<svg width="709" height="655" viewBox="0 0 709 655" fill="none" xmlns="http://www.w3.org/2000/svg">
<rect x="256" width="413" height="304" rx="20" fill="#F8F8F8"/>
<path d="M256 20C256 8.9543 264.954 0 276 0H649C660.046 0 669 8.95431 669 20V52H256V20Z" fill="#749AF0"/>
<rect x="274" y="68" width="378" height="43" rx="10" fill="white"/>
<rect x="274" y="127" width="288" height="43" rx="10" fill="white"/>
<rect x="274" y="186" width="378" height="43" rx="10" fill="white"/>
<rect x="274" y="245" width="295" height="43" rx="10" fill="white"/>
<path d="M281.704 18.16C284.184 18.16 286.128 18.848 287.536 20.224C288.96 21.584 289.672 23.536 289.672 26.08C289.672 28.624 288.96 30.584 287.536 31.96C286.128 33.32 284.184 34 281.704 34H276.592V18.16H281.704ZM281.896 32.2C283.704 32.2 285.112 31.664 286.12 30.592C287.144 29.504 287.656 28 287.656 26.08C287.656 24.16 287.144 22.664 286.12 21.592C285.112 20.504 283.704 19.96 281.896 19.96H278.512V32.2H281.896ZM298.745 34.24C297.609 34.24 296.593 33.992 295.697 33.496C294.817 33 294.129 32.288 293.633 31.36C293.137 30.416 292.889 29.296 292.889 28C292.889 26.704 293.137 25.592 293.633 24.664C294.129 23.72 294.809 23 295.673 22.504C296.537 22.008 297.521 21.76 298.625 21.76C299.745 21.76 300.697 22 301.481 22.48C302.281 22.96 302.889 23.616 303.305 24.448C303.721 25.264 303.929 26.184 303.929 27.208C303.929 27.48 303.921 27.728 303.905 27.952C303.889 28.176 303.865 28.376 303.833 28.552H294.137V26.848H302.993L302.009 27.04C302.009 25.888 301.689 25 301.049 24.376C300.425 23.752 299.601 23.44 298.577 23.44C297.793 23.44 297.113 23.624 296.537 23.992C295.977 24.344 295.537 24.864 295.217 25.552C294.913 26.224 294.761 27.04 294.761 28C294.761 28.944 294.921 29.76 295.241 30.448C295.561 31.136 296.009 31.664 296.585 32.032C297.177 32.384 297.881 32.56 298.697 32.56C299.577 32.56 300.289 32.392 300.833 32.056C301.393 31.72 301.841 31.264 302.177 30.688L303.689 31.576C303.385 32.12 302.993 32.592 302.513 32.992C302.049 33.392 301.497 33.704 300.857 33.928C300.233 34.136 299.529 34.24 298.745 34.24ZM307.78 39.04V22H309.46L309.628 24.928L309.364 24.592C309.572 24.032 309.884 23.544 310.3 23.128C310.716 22.696 311.22 22.36 311.812 22.12C312.404 21.88 313.044 21.76 313.732 21.76C314.708 21.76 315.604 22.008 316.42 22.504C317.252 23 317.916 23.712 318.412 24.64C318.908 25.568 319.156 26.688 319.156 28C319.156 29.296 318.9 30.416 318.388 31.36C317.892 32.288 317.228 33 316.396 33.496C315.564 33.992 314.652 34.24 313.66 34.24C312.668 34.24 311.796 34 311.044 33.52C310.308 33.024 309.78 32.4 309.46 31.648L309.7 31.288V39.04H307.78ZM313.468 32.56C314.652 32.56 315.572 32.144 316.228 31.312C316.9 30.48 317.236 29.376 317.236 28C317.236 26.624 316.908 25.52 316.252 24.688C315.612 23.856 314.708 23.44 313.54 23.44C312.772 23.44 312.1 23.632 311.524 24.016C310.948 24.384 310.5 24.912 310.18 25.6C309.86 26.272 309.7 27.072 309.7 28C309.7 28.912 309.852 29.712 310.156 30.4C310.476 31.088 310.916 31.624 311.476 32.008C312.052 32.376 312.716 32.56 313.468 32.56ZM324.851 16.48V30.952C324.851 31.56 324.963 31.984 325.187 32.224C325.411 32.448 325.771 32.56 326.267 32.56C326.587 32.56 326.851 32.536 327.059 32.488C327.267 32.44 327.547 32.352 327.899 32.224L327.587 33.904C327.331 34.016 327.051 34.096 326.747 34.144C326.443 34.208 326.131 34.24 325.811 34.24C324.835 34.24 324.107 33.976 323.627 33.448C323.163 32.92 322.931 32.112 322.931 31.024V16.48H324.851ZM335.531 21.76C336.667 21.76 337.667 22.008 338.531 22.504C339.411 23 340.099 23.72 340.595 24.664C341.091 25.592 341.339 26.704 341.339 28C341.339 29.296 341.091 30.416 340.595 31.36C340.099 32.288 339.411 33 338.531 33.496C337.667 33.992 336.667 34.24 335.531 34.24C334.411 34.24 333.411 33.992 332.531 33.496C331.651 33 330.963 32.288 330.467 31.36C329.971 30.416 329.723 29.296 329.723 28C329.723 26.704 329.971 25.592 330.467 24.664C330.963 23.72 331.651 23 332.531 22.504C333.411 22.008 334.411 21.76 335.531 21.76ZM335.531 23.416C334.715 23.416 334.019 23.6 333.443 23.968C332.867 24.336 332.419 24.864 332.099 25.552C331.795 26.224 331.643 27.04 331.643 28C331.643 28.944 331.795 29.76 332.099 30.448C332.419 31.136 332.867 31.664 333.443 32.032C334.019 32.4 334.715 32.584 335.531 32.584C336.347 32.584 337.043 32.4 337.619 32.032C338.195 31.664 338.635 31.136 338.939 30.448C339.259 29.76 339.419 28.944 339.419 28C339.419 27.04 339.259 26.224 338.939 25.552C338.635 24.864 338.195 24.336 337.619 23.968C337.043 23.6 336.347 23.416 335.531 23.416ZM354.666 22L349.026 36.016C348.722 36.8 348.386 37.416 348.018 37.864C347.666 38.328 347.266 38.656 346.818 38.848C346.386 39.056 345.882 39.16 345.306 39.16C344.762 39.16 344.258 39.08 343.794 38.92C343.346 38.776 342.946 38.576 342.594 38.32L343.122 36.64C343.442 36.928 343.778 37.136 344.13 37.264C344.498 37.408 344.858 37.48 345.21 37.48C345.626 37.48 346.018 37.352 346.386 37.096C346.754 36.84 347.09 36.32 347.394 35.536L348.018 33.976L346.818 31.12L343.002 22H345.186L348.186 29.824L348.93 31.96L349.794 29.584L352.602 22H354.666ZM377.94 18.16V34H375.564L368.94 23.392L367.26 20.416H367.236L367.332 22.816V34H365.508V18.16H367.884L374.484 28.72L376.188 31.768H376.212L376.116 29.344V18.16H377.94ZM394.421 19.96H385.253V25.072H392.405V26.872H385.253V34H383.333V18.16H394.421V19.96ZM409.317 18.16V19.96H403.797V34H401.877V19.96H396.357V18.16H409.317Z" fill="white"/>
<g clip-path="url(#clip0_2774_350)">
<rect y="149" width="413" height="304" rx="20" fill="#F8F8F8"/>
<path d="M0 169C0 157.954 8.95431 149 20 149H393C404.046 149 413 157.954 413 169V201H0V169Z" fill="#749AF0"/>
<rect x="16" y="217" width="146" height="146" rx="10" fill="white"/>
<rect x="178" y="217" width="146" height="146" rx="10" fill="white"/>
<rect x="340" y="217" width="146" height="146" rx="10" fill="white"/>
<path d="M20.592 183V167.16H26.232C28.104 167.16 29.472 167.552 30.336 168.336C31.2 169.12 31.632 170.184 31.632 171.528C31.632 172.328 31.4 173.056 30.936 173.712C30.472 174.352 29.816 174.76 28.968 174.936V174.96C29.912 175.136 30.656 175.568 31.2 176.256C31.76 176.928 32.04 177.696 32.04 178.56C32.04 179.904 31.536 180.984 30.528 181.8C29.52 182.6 28.08 183 26.208 183H20.592ZM22.512 181.2H26.664C27.8 181.2 28.64 180.968 29.184 180.504C29.744 180.04 30.024 179.392 30.024 178.56C30.024 177.712 29.744 177.064 29.184 176.616C28.64 176.152 27.8 175.92 26.664 175.92H22.512V181.2ZM22.512 174.12H26.256C28.496 174.12 29.616 173.256 29.616 171.528C29.616 169.816 28.496 168.96 26.256 168.96H22.512V174.12ZM40.4557 183.24C39.6877 183.24 38.9597 183.096 38.2717 182.808C37.5997 182.52 37.0477 182.056 36.6157 181.416C36.1997 180.76 35.9917 179.912 35.9917 178.872V171H37.9117V178.368C37.9117 179.584 38.1757 180.424 38.7037 180.888C39.2317 181.336 39.9757 181.56 40.9357 181.56C41.3837 181.56 41.8237 181.488 42.2557 181.344C42.6877 181.184 43.0717 180.944 43.4077 180.624C43.7597 180.288 44.0317 179.864 44.2237 179.352C44.4317 178.84 44.5357 178.232 44.5357 177.528V171H46.4557V183H44.7757L44.6557 181.176C44.2397 181.896 43.6717 182.424 42.9517 182.76C42.2477 183.08 41.4157 183.24 40.4557 183.24ZM60.9882 171L55.3482 185.016C55.0442 185.8 54.7082 186.416 54.3402 186.864C53.9882 187.328 53.5882 187.656 53.1402 187.848C52.7082 188.056 52.2042 188.16 51.6282 188.16C51.0842 188.16 50.5802 188.08 50.1162 187.92C49.6682 187.776 49.2682 187.576 48.9162 187.32L49.4442 185.64C49.7642 185.928 50.1002 186.136 50.4522 186.264C50.8202 186.408 51.1802 186.48 51.5322 186.48C51.9482 186.48 52.3402 186.352 52.7082 186.096C53.0762 185.84 53.4122 185.32 53.7162 184.536L54.3402 182.976L53.1402 180.12L49.3242 171H51.5082L54.5082 178.824L55.2522 180.96L56.1162 178.584L58.9242 171H60.9882ZM84.2615 167.16V183H81.8855L75.2615 172.392L73.5815 169.416H73.5575L73.6535 171.816V183H71.8295V167.16H74.2055L80.8055 177.72L82.5095 180.768H82.5335L82.4375 178.344V167.16H84.2615ZM100.743 168.96H91.5745V174.072H98.7265V175.872H91.5745V183H89.6545V167.16H100.743V168.96ZM115.639 167.16V168.96H110.119V183H108.199V168.96H102.679V167.16H115.639Z" fill="white"/>
<rect x="16" y="373" width="146" height="146" rx="10" fill="white"/>
<rect x="178" y="373" width="146" height="146" rx="10" fill="white"/>
<rect x="340" y="373" width="146" height="146" rx="10" fill="white"/>
</g>
<g clip-path="url(#clip1_2774_350)">
<rect x="296" y="351" width="413" height="304" rx="20" fill="#F8F8F8"/>
<path d="M296 371C296 359.954 304.954 351 316 351H689C700.046 351 709 359.954 709 371V403H296V371Z" fill="#749AF0"/>
<rect x="312" y="419" width="381" height="221" rx="10" fill="white"/>
<path d="M328.712 369.16V379.096C328.712 381.128 328.176 382.664 327.104 383.704C326.032 384.728 324.496 385.24 322.496 385.24C320.512 385.24 318.976 384.728 317.888 383.704C316.816 382.664 316.28 381.128 316.28 379.096V369.16H318.2V378.616C318.2 380.264 318.544 381.48 319.232 382.264C319.936 383.048 321.024 383.44 322.496 383.44C323.968 383.44 325.048 383.048 325.736 382.264C326.44 381.48 326.792 380.264 326.792 378.616V369.16H328.712ZM337.533 385.24C336.365 385.24 335.285 384.992 334.293 384.496C333.317 384 332.565 383.296 332.037 382.384L333.669 381.208C334.021 381.944 334.533 382.52 335.205 382.936C335.893 383.352 336.717 383.56 337.677 383.56C338.525 383.56 339.189 383.4 339.669 383.08C340.149 382.744 340.389 382.312 340.389 381.784C340.389 381.448 340.277 381.144 340.053 380.872C339.845 380.584 339.437 380.376 338.829 380.248L335.949 379.648C334.781 379.408 333.941 379.008 333.429 378.448C332.933 377.888 332.685 377.192 332.685 376.36C332.685 375.704 332.869 375.104 333.237 374.56C333.621 374.016 334.157 373.584 334.845 373.264C335.549 372.928 336.373 372.76 337.317 372.76C338.501 372.76 339.501 372.992 340.317 373.456C341.133 373.92 341.741 374.576 342.141 375.424L340.533 376.48C340.261 375.776 339.821 375.264 339.213 374.944C338.605 374.608 337.973 374.44 337.317 374.44C336.741 374.44 336.245 374.52 335.829 374.68C335.429 374.84 335.117 375.064 334.893 375.352C334.685 375.624 334.581 375.936 334.581 376.288C334.581 376.64 334.701 376.968 334.941 377.272C335.181 377.56 335.629 377.768 336.285 377.896L339.285 378.52C340.405 378.744 341.189 379.112 341.637 379.624C342.085 380.136 342.309 380.76 342.309 381.496C342.309 382.248 342.109 382.912 341.709 383.488C341.309 384.048 340.749 384.48 340.029 384.784C339.309 385.088 338.477 385.24 337.533 385.24ZM351.086 385.24C349.949 385.24 348.933 384.992 348.037 384.496C347.157 384 346.469 383.288 345.973 382.36C345.477 381.416 345.229 380.296 345.229 379C345.229 377.704 345.477 376.592 345.973 375.664C346.469 374.72 347.149 374 348.013 373.504C348.877 373.008 349.862 372.76 350.966 372.76C352.086 372.76 353.037 373 353.821 373.48C354.622 373.96 355.23 374.616 355.645 375.448C356.061 376.264 356.269 377.184 356.269 378.208C356.269 378.48 356.261 378.728 356.246 378.952C356.23 379.176 356.206 379.376 356.173 379.552H346.477V377.848H355.334L354.35 378.04C354.35 376.888 354.03 376 353.39 375.376C352.766 374.752 351.942 374.44 350.918 374.44C350.133 374.44 349.453 374.624 348.877 374.992C348.317 375.344 347.877 375.864 347.557 376.552C347.253 377.224 347.101 378.04 347.101 379C347.101 379.944 347.261 380.76 347.581 381.448C347.901 382.136 348.349 382.664 348.925 383.032C349.517 383.384 350.221 383.56 351.037 383.56C351.918 383.56 352.63 383.392 353.174 383.056C353.734 382.72 354.182 382.264 354.518 381.688L356.03 382.576C355.726 383.12 355.334 383.592 354.854 383.992C354.389 384.392 353.837 384.704 353.197 384.928C352.573 385.136 351.869 385.24 351.086 385.24ZM360.121 385V373H361.681L361.945 374.968C362.281 374.232 362.769 373.68 363.409 373.312C364.065 372.944 364.857 372.76 365.785 372.76C365.993 372.76 366.217 372.776 366.457 372.808C366.713 372.84 366.929 372.904 367.105 373L366.769 374.752C366.593 374.688 366.401 374.64 366.193 374.608C365.985 374.576 365.689 374.56 365.305 374.56C364.809 374.56 364.305 374.704 363.793 374.992C363.297 375.28 362.881 375.72 362.545 376.312C362.209 376.888 362.041 377.624 362.041 378.52V385H360.121ZM377.935 385V373H379.615L379.735 374.872C380.167 374.136 380.727 373.6 381.415 373.264C382.119 372.928 382.839 372.76 383.575 372.76C384.423 372.76 385.223 372.952 385.975 373.336C386.727 373.72 387.303 374.312 387.703 375.112C387.959 374.568 388.319 374.128 388.783 373.792C389.247 373.44 389.751 373.184 390.295 373.024C390.855 372.848 391.383 372.76 391.879 372.76C392.647 372.76 393.375 372.92 394.063 373.24C394.767 373.56 395.343 374.056 395.791 374.728C396.239 375.4 396.463 376.264 396.463 377.32V385H394.543V377.512C394.543 376.424 394.271 375.64 393.727 375.16C393.183 374.68 392.511 374.44 391.711 374.44C391.087 374.44 390.503 374.592 389.959 374.896C389.415 375.2 388.975 375.648 388.639 376.24C388.319 376.832 388.159 377.56 388.159 378.424V385H386.239V377.512C386.239 376.424 385.967 375.64 385.423 375.16C384.879 374.68 384.207 374.44 383.407 374.44C382.879 374.44 382.335 374.584 381.775 374.872C381.231 375.144 380.775 375.584 380.407 376.192C380.039 376.8 379.855 377.6 379.855 378.592V385H377.935ZM408.018 377.248C408.018 376.352 407.778 375.664 407.298 375.184C406.818 374.688 406.138 374.44 405.258 374.44C404.426 374.44 403.722 374.624 403.146 374.992C402.57 375.344 402.146 375.92 401.874 376.72L400.314 375.76C400.634 374.864 401.226 374.144 402.09 373.6C402.954 373.04 404.026 372.76 405.306 372.76C406.17 372.76 406.954 372.912 407.658 373.216C408.362 373.504 408.914 373.952 409.314 374.56C409.73 375.152 409.938 375.92 409.938 376.864V382.672C409.938 383.248 410.242 383.536 410.85 383.536C411.154 383.536 411.45 383.496 411.738 383.416L411.642 384.928C411.322 385.088 410.906 385.168 410.394 385.168C409.93 385.168 409.514 385.08 409.146 384.904C408.778 384.728 408.49 384.464 408.282 384.112C408.074 383.744 407.97 383.288 407.97 382.744V382.504L408.45 382.576C408.258 383.2 407.93 383.712 407.466 384.112C407.002 384.496 406.482 384.784 405.906 384.976C405.33 385.152 404.762 385.24 404.202 385.24C403.498 385.24 402.842 385.12 402.234 384.88C401.626 384.64 401.138 384.28 400.77 383.8C400.418 383.304 400.242 382.696 400.242 381.976C400.242 381.08 400.538 380.344 401.13 379.768C401.738 379.176 402.578 378.776 403.65 378.568L408.402 377.632V379.216L404.538 380.008C403.754 380.168 403.17 380.392 402.786 380.68C402.402 380.968 402.21 381.368 402.21 381.88C402.21 382.376 402.402 382.784 402.786 383.104C403.186 383.408 403.746 383.56 404.466 383.56C404.93 383.56 405.37 383.504 405.786 383.392C406.218 383.264 406.602 383.08 406.938 382.84C407.274 382.584 407.538 382.272 407.73 381.904C407.922 381.52 408.018 381.072 408.018 380.56V377.248ZM414.804 385V373H416.484L416.652 375.688L416.34 375.424C416.596 374.784 416.94 374.272 417.372 373.888C417.804 373.488 418.3 373.2 418.86 373.024C419.436 372.848 420.028 372.76 420.636 372.76C421.5 372.76 422.284 372.928 422.988 373.264C423.692 373.584 424.252 374.08 424.668 374.752C425.1 375.424 425.316 376.28 425.316 377.32V385H423.396V377.992C423.396 376.664 423.108 375.744 422.532 375.232C421.972 374.704 421.276 374.44 420.444 374.44C419.868 374.44 419.292 374.576 418.716 374.848C418.14 375.12 417.66 375.56 417.276 376.168C416.908 376.776 416.724 377.592 416.724 378.616V385H414.804ZM434.207 385.24C433.439 385.24 432.711 385.096 432.023 384.808C431.351 384.52 430.799 384.056 430.367 383.416C429.951 382.76 429.743 381.912 429.743 380.872V373H431.663V380.368C431.663 381.584 431.927 382.424 432.455 382.888C432.983 383.336 433.727 383.56 434.687 383.56C435.135 383.56 435.575 383.488 436.007 383.344C436.439 383.184 436.823 382.944 437.159 382.624C437.511 382.288 437.783 381.864 437.975 381.352C438.183 380.84 438.287 380.232 438.287 379.528V373H440.207V385H438.527L438.407 383.176C437.991 383.896 437.423 384.424 436.703 384.76C435.999 385.08 435.167 385.24 434.207 385.24ZM451.884 377.248C451.884 376.352 451.644 375.664 451.164 375.184C450.684 374.688 450.004 374.44 449.124 374.44C448.292 374.44 447.588 374.624 447.012 374.992C446.436 375.344 446.012 375.92 445.74 376.72L444.18 375.76C444.5 374.864 445.092 374.144 445.956 373.6C446.82 373.04 447.892 372.76 449.172 372.76C450.036 372.76 450.82 372.912 451.524 373.216C452.228 373.504 452.78 373.952 453.18 374.56C453.596 375.152 453.804 375.92 453.804 376.864V382.672C453.804 383.248 454.108 383.536 454.716 383.536C455.02 383.536 455.316 383.496 455.604 383.416L455.508 384.928C455.188 385.088 454.772 385.168 454.26 385.168C453.796 385.168 453.38 385.08 453.012 384.904C452.644 384.728 452.356 384.464 452.148 384.112C451.94 383.744 451.836 383.288 451.836 382.744V382.504L452.316 382.576C452.124 383.2 451.796 383.712 451.332 384.112C450.868 384.496 450.348 384.784 449.772 384.976C449.196 385.152 448.628 385.24 448.068 385.24C447.364 385.24 446.708 385.12 446.1 384.88C445.492 384.64 445.004 384.28 444.636 383.8C444.284 383.304 444.108 382.696 444.108 381.976C444.108 381.08 444.404 380.344 444.996 379.768C445.604 379.176 446.444 378.776 447.516 378.568L452.268 377.632V379.216L448.404 380.008C447.62 380.168 447.036 380.392 446.652 380.68C446.268 380.968 446.076 381.368 446.076 381.88C446.076 382.376 446.268 382.784 446.652 383.104C447.052 383.408 447.612 383.56 448.332 383.56C448.796 383.56 449.236 383.504 449.652 383.392C450.084 383.264 450.468 383.08 450.804 382.84C451.14 382.584 451.404 382.272 451.596 381.904C451.788 381.52 451.884 381.072 451.884 380.56V377.248ZM460.494 367.48V381.952C460.494 382.56 460.606 382.984 460.83 383.224C461.054 383.448 461.414 383.56 461.91 383.56C462.23 383.56 462.494 383.536 462.702 383.488C462.91 383.44 463.19 383.352 463.542 383.224L463.23 384.904C462.974 385.016 462.694 385.096 462.39 385.144C462.086 385.208 461.774 385.24 461.454 385.24C460.478 385.24 459.75 384.976 459.27 384.448C458.806 383.92 458.574 383.112 458.574 382.024V367.48H460.494Z" fill="white"/>
</g>
<defs>
<clipPath id="clip0_2774_350">
<rect y="149" width="413" height="304" rx="20" fill="white"/>
</clipPath>
<clipPath id="clip1_2774_350">
<rect x="296" y="351" width="413" height="304" rx="20" fill="white"/>
</clipPath>
</defs>
</svg>
