<svg width="48" height="48" viewBox="0 0 48 48" fill="none" xmlns="http://www.w3.org/2000/svg">
<path d="M8.60941 15.6191L8.63728 15.7614L8.67241 15.7612L8.70753 15.7145L8.74272 15.7143L8.79966 15.6816L8.81866 15.7183C8.72341 15.7815 8.61834 15.821 8.59434 15.936C8.58772 15.9677 8.58059 16.0421 8.56691 16.0675C8.53447 16.1276 8.43434 16.0836 8.39772 16.1091C8.37897 16.1222 8.37366 16.148 8.36159 16.1675C8.33991 16.1992 8.34591 16.1833 8.34016 16.2264L8.33659 16.2592C8.31022 16.2089 8.31153 16.189 8.30984 16.1344L8.30934 16.1127L8.24609 16.0915C8.40872 15.9425 8.55978 15.844 8.60941 15.6191Z" fill="white"/>
<path d="M19.6655 36.9234C19.9545 36.8929 20.2855 36.9075 20.57 36.9742C21.3914 37.1669 22.0613 37.6759 22.5015 38.3942C22.8714 38.9974 23.036 39.7458 22.8768 40.4416C22.7762 40.8814 22.5664 41.3279 22.2824 41.6792C21.77 42.3129 21 42.7631 20.1864 42.8435C19.8807 42.8712 19.5865 42.8538 19.2885 42.7793C18.4519 42.5703 17.7283 42.0268 17.2956 41.2826C16.9021 40.6058 16.7704 39.8721 16.9674 39.1058C17.0592 38.7483 17.2324 38.3902 17.4606 38.0994C18.0307 37.373 18.7629 37.0313 19.6655 36.9234Z" fill="#224447"/>
<path d="M19.6378 37.6722C20.1742 37.6104 20.6788 37.7565 21.13 38.0424C21.6392 38.3651 21.9942 38.8687 22.1224 39.4582L22.132 39.5036L22.1513 39.5957C22.2495 40.1124 22.0684 40.6552 21.771 41.0757C21.394 41.609 20.8002 41.9754 20.1616 42.0917C19.5955 42.1412 19.0902 41.974 18.6323 41.6422C18.155 41.2962 17.7352 40.6937 17.6484 40.1012C17.5717 39.5772 17.7255 39.0394 18.0386 38.6166C18.4273 38.0915 18.9967 37.7678 19.6378 37.6722Z" fill="white"/>
<path d="M24.3189 8.35443C24.6307 8.31706 24.9753 8.33712 25.2896 8.33981C27.259 8.35681 29.2574 8.75287 31.0619 9.54737C32.8213 10.322 34.3792 11.6378 35.5587 13.1441C36.1913 13.9519 36.7315 14.8224 37.1016 15.7823C37.823 17.6526 38.0732 19.6071 37.6831 21.5815C37.5665 22.1715 37.402 22.7496 37.1558 23.2991C36.6452 24.439 35.7068 25.4663 34.6002 26.0517C34.1284 26.3013 33.6201 26.4502 33.1058 26.5841L31.3624 26.9765L29.4691 27.3662L27.7748 27.7606C26.6489 28.0309 25.5289 28.3273 24.4453 28.7394C23.1749 29.2226 21.3658 30.2543 21.7538 31.892C21.8439 32.2723 21.9784 32.6464 22.0863 33.0227C22.1471 33.2347 22.2153 33.4629 22.2176 33.6853C22.2217 34.0812 21.9916 34.5611 21.8311 34.9174C21.7308 35.1141 21.6094 35.2985 21.4656 35.466C21.0263 35.9779 20.327 36.297 19.6608 36.3488C18.6593 36.4266 17.7534 36.0751 16.9978 35.424C15.9552 34.5258 15.454 33.1985 15.3631 31.8503C15.2768 30.5701 15.6259 29.2643 16.248 28.1508C16.4176 27.8471 16.5979 27.5422 16.8263 27.2785C15.3581 27.3069 13.8918 26.7306 12.7741 25.7903C11.4287 24.6585 10.7408 22.9834 10.6046 21.2531C10.3878 18.4978 11.5208 15.6196 13.3126 13.5484C15.0751 11.511 17.5118 9.89525 20.0858 9.09993C21.4494 8.67856 22.8983 8.45837 24.3189 8.35443Z" fill="#2E2D2D"/>
<path d="M24.4015 9.22031C24.6103 9.19875 24.8362 9.20656 25.0464 9.20606L26.2464 9.24043C28.238 9.38237 30.3252 9.95449 32.0212 11.0284C32.9827 11.6373 33.8207 12.3971 34.5624 13.2564C36.1996 15.1531 37.2174 17.8177 37.0213 20.3351C36.8732 22.2369 36.1029 24.1128 34.4132 25.1401C33.4969 25.6972 32.3747 25.8764 31.3384 26.0941L29.0131 26.583C27.5668 26.9018 26.0902 27.2481 24.6948 27.7424C23.7557 28.075 22.7965 28.4279 22.0334 29.0898C21.286 29.7381 20.7799 30.6293 20.8935 31.6406C20.9257 31.9268 21.0128 32.2081 21.0929 32.4838C21.2311 32.9598 21.3985 33.4218 21.356 33.9251C21.3192 34.3621 21.0002 34.7939 20.6722 35.0651C20.2125 35.4449 19.6608 35.5916 19.0705 35.5312C18.3102 35.4534 17.6286 34.9994 17.1544 34.4168C16.3666 33.4486 16.0449 32.2036 16.1824 30.9691C16.314 29.7873 16.8399 28.5296 17.5604 27.5872C18.7324 26.0542 20.3009 25.0896 22.0792 24.4045C23.3577 23.912 24.6214 23.4936 25.8057 22.7841C26.1664 22.568 26.5284 22.3431 26.8559 22.0785C28.2635 20.9416 29.2489 19.2844 29.4392 17.4708C29.5681 16.2441 29.1929 14.9719 28.4147 14.0149C27.5887 12.9988 26.5681 12.3986 25.2666 12.2508C24.2268 12.1327 23.0834 12.4338 22.2031 12.9858C20.9993 13.7407 20.2266 14.8369 19.9125 16.2217C19.7325 17.351 19.8414 18.4001 20.1709 19.491C20.2875 19.8771 20.441 20.2719 20.525 20.6658C20.6577 21.2871 20.456 21.9814 20.1152 22.5047C19.6166 23.2704 18.784 23.9569 17.8724 24.1432C17.0464 24.312 16.2365 24.1408 15.5369 23.6729C14.8629 23.2221 14.3976 22.6071 14.2469 21.8C14.2149 21.6288 14.2432 21.4584 14.2091 21.2866C14.1466 21.5729 14.124 21.842 14.1472 22.1355C14.206 22.8773 14.5979 23.6566 15.166 24.1381C15.85 24.7178 16.7643 25.0404 17.6632 24.9559C18.4463 24.8823 19.1047 24.6051 19.7943 24.2433C20.2867 23.9849 20.7492 23.7159 21.1043 23.2779C21.3949 22.9193 21.5939 22.5011 21.6289 22.0373C21.649 21.7708 21.594 21.4799 21.5375 21.2201C21.4024 20.5987 21.172 20.0038 20.9892 19.3956C20.8233 18.8431 20.686 18.3094 20.626 17.7344C20.5064 16.5869 20.8557 15.4211 21.5866 14.5272C22.2905 13.6663 23.3328 13.1444 24.4346 13.0385C25.4328 12.9426 26.418 13.2126 27.1982 13.8551C28.0027 14.5177 28.5597 15.5616 28.6489 16.6019C28.7746 18.068 28.1514 19.4622 27.2236 20.5635C26.6906 21.1961 26.0532 21.7333 25.3411 22.1551C24.7244 22.5204 24.0481 22.8408 23.3826 23.1039C22.286 23.5374 21.1647 23.8886 20.1127 24.4323C19.551 24.7224 19.01 25.0716 18.5102 25.4587C18.187 25.7089 17.8595 26.0374 17.5004 26.2284C17.2954 26.3376 17.0597 26.3948 16.8291 26.4127C15.6079 26.5077 14.263 25.9278 13.3488 25.1476C12.1769 24.1475 11.5716 22.7213 11.4542 21.2039C11.2559 18.6417 12.3864 16.0159 14.0439 14.102C14.8856 13.13 15.8449 12.2805 16.9147 11.5686C17.3796 11.2591 17.8517 10.9622 18.3506 10.7097C19.5683 10.0932 20.9049 9.67687 22.2497 9.45093C22.963 9.33106 23.6807 9.27225 24.4015 9.22031Z" fill="white"/>
</svg>
