<svg width="48" height="50" viewBox="0 0 48 50" fill="none" xmlns="http://www.w3.org/2000/svg">
<ellipse cx="24" cy="25" rx="24" ry="25" fill="#F5F5F5"/>
<path d="M32.142 25.5C34.275 29.5957 35.7585 37.6858 34.671 39.0546C32.1825 42.1875 19.8093 43.125 15.4728 40.3417C12.5756 38.4823 12.3917 28.8739 13.9323 26.2995M33.6909 28.6286C34.2345 28.4346 35.2863 27.9165 35.5307 28.9682C35.775 30.0199 35.7712 30.6743 35.5307 31.7633C35.3996 32.3565 35.0925 32.5339 34.7237 32.5339" stroke="#262626" stroke-width="0.5625" stroke-linecap="round" stroke-linejoin="round"/>
<path d="M12.9057 29.126C11.4795 28.678 10.6395 29.48 11.1507 31.2517C11.635 32.9298 12.4727 33.283 12.9057 33.1882" stroke="#262626" stroke-width="0.5625" stroke-linecap="round" stroke-linejoin="round"/>
<path d="M24.9237 29.625C24.7756 30.6259 24.7151 32.6876 24.9963 33.8126C25.6557 36.4502 24.7064 37.0883 24.3802 37.0883C23.3934 37.0883 23.1611 36.2072 22.9346 33.7149C22.6533 30.6212 22.6454 30.6491 22.25 29.7823" stroke="#262626" stroke-width="0.5625" stroke-linecap="round" stroke-linejoin="round"/>
<path d="M20.3017 39.8959C21.1844 40.6609 22.8254 41.1098 24.5154 40.9211C26.4331 40.707 27.5696 39.69 28.0507 38.9149M19.625 40.4145C19.9213 40.2253 20.5269 39.7129 20.5782 39.1751M27.7128 38.4375C27.9014 38.7341 28.4131 39.3403 28.9507 39.3924" stroke="#262626" stroke-width="0.5625" stroke-linecap="round" stroke-linejoin="round"/>
<path d="M20.6346 10.8691C18.6201 11.8368 14.5334 14.8852 14.3033 19.3366C14.0155 24.9007 13.0711 27.3217 14.0783 28.2894C15.0854 29.2571 18.1752 26.2925 23.0676 27.1393C27.9601 27.9858 31.4888 28.2279 32.2084 27.1393C32.9279 26.0505 32.7214 17.4011 31.5704 15.1029C30.4191 12.8045 27.2061 10.9903 24.3284 10.8691" stroke="#F24E1E" stroke-width="0.5625" stroke-linecap="round" stroke-linejoin="round"/>
<path d="M13.8066 25.5655C18.6361 24.8528 29.1231 23.8547 32.4346 25.5655M21.3546 11.3123C20.1076 12.7371 17.4695 16.1241 16.894 18.2734C16.3184 20.4229 16.3364 23.8204 16.2884 24.9603M22.4026 11.2188C21.1555 12.6437 20.7989 15.6678 20.2233 17.8171C19.6476 19.9666 19.7266 23.4271 19.6786 24.5667" stroke="#F24E1E" stroke-width="0.5625" stroke-linecap="round" stroke-linejoin="round"/>
<path d="M24.2031 10.9493C26.0331 11.8643 26.6121 15.6388 26.8808 17.8478C27.1533 20.0875 27.4131 23.5181 27.3651 24.658M23.249 11.0376C24.0642 11.4853 23.8295 13.6763 23.491 17.0305C23.158 20.3297 23.249 22.5088 23.7635 24.567M19.9973 8.15177C20.5403 8.42327 21.5815 9.39639 22.0341 9.84883C21.6569 9.09452 21.2646 5.91133 22.7129 6.00189C24.1611 6.09246 23.5445 8.55452 23.2051 9.53514C23.6198 9.08252 24.8626 7.78952 25.3152 8.15177C25.8809 8.60439 25.6589 10.4501 23.5793 10.8671C22.8027 11.023 22.0341 11.3198 20.9026 10.8671C19.771 10.4147 18.979 9.84902 18.5264 9.05683C18.074 8.26483 19.3186 7.81221 19.9973 8.15177Z" stroke="#F24E1E" stroke-width="0.5625" stroke-linecap="round" stroke-linejoin="round"/>
<path d="M18.8837 31.8009C18.543 31.472 18.9658 30.9793 19.338 31.1655C19.8034 31.3982 19.9774 31.9755 19.5703 32.3825C19.1632 32.7898 18.2265 32.5292 18.1684 31.5403C18.1102 30.5512 19.3796 29.8204 20.0194 30.9838C20.6593 32.1472 20.4549 33.197 19.0541 33.197C18.1001 33.197 17.6854 32.5359 17.5892 31.9037C17.396 30.6375 18.0409 29.3415 19.406 29.6552C20.2466 29.8483 21.216 30.3969 21.0414 32.1422C20.867 33.8872 19.9292 34.0614 18.7365 33.857C17.2991 33.6107 16.908 32.3239 17.3737 30.8702M27.3997 31.8009C27.059 31.472 27.4819 30.9793 27.854 31.1655C28.3192 31.3982 28.4934 31.9755 28.0864 32.3825C27.6793 32.7898 26.7425 32.5292 26.6844 31.5403C26.6263 30.5512 27.8957 29.8204 28.5354 30.9838C29.1754 32.1472 28.971 33.197 27.5702 33.197C26.6162 33.197 26.2014 32.5359 26.1052 31.9037C25.9121 30.6375 26.5569 29.3415 27.9221 29.6552C28.7627 29.8483 29.732 30.3969 29.5575 32.1422C29.3831 33.8872 28.4452 34.0614 27.2525 33.857C25.8152 33.6107 25.424 32.3239 25.8898 30.8702M18.27 28.1019C18.8484 28.5103 19.9273 28.5967 20.5415 28.2894M26.2258 28.2727C26.9032 28.4795 27.9547 28.224 28.442 27.7402" stroke="#262626" stroke-width="0.5625" stroke-linecap="round" stroke-linejoin="round"/>
</svg>
