<svg width="48" height="48" viewBox="0 0 48 48" fill="none" xmlns="http://www.w3.org/2000/svg">
<g clip-path="url(#clip0_2489_3324)">
<mask id="mask0_2489_3324" style="mask-type:luminance" maskUnits="userSpaceOnUse" x="0" y="0" width="48" height="48">
<path d="M48 0H0V48H48V0Z" fill="white"/>
</mask>
<g mask="url(#mask0_2489_3324)">
<path d="M32.767 19.6875C34.9 23.7832 36.3835 31.8733 35.296 33.2421C32.8075 36.375 20.4343 37.3125 16.0978 34.5292C13.2006 32.6698 13.0167 23.0614 14.5573 20.487M34.3159 22.8161C34.8595 22.6221 35.9113 22.104 36.1557 23.1557C36.4 24.2074 36.3962 24.8618 36.1557 25.9508C36.0246 26.544 35.7175 26.7214 35.3487 26.7214" stroke="#F24E1E" stroke-width="0.5625" stroke-linecap="round" stroke-linejoin="round"/>
<path d="M13.5307 23.3135C12.1045 22.8655 11.2645 23.6675 11.7757 25.4392C12.26 27.1173 13.0977 27.4705 13.5307 27.3757" stroke="#F24E1E" stroke-width="0.5625" stroke-linecap="round" stroke-linejoin="round"/>
<path d="M21.375 23.3897C22.0316 23.3897 22.8218 24.4562 22.8958 26.1551C23.0164 28.9121 22.1154 29.7847 22.8958 31.212C23.4073 32.1474 26.2258 32.0994 26.9927 30.5494C27.5961 29.3302 26.4435 28.2909 25.7565 26.6599C25.1012 25.1051 24.6862 24.1492 25.3714 23.25" stroke="#F24E1E" stroke-width="0.5625" stroke-linecap="round" stroke-linejoin="round"/>
<path d="M23.9762 36.699C23.8644 37.449 23.8125 37.7852 23.8125 37.7852M24.4119 36.6643C24.5259 37.2006 24.4457 37.5023 24.6613 37.8662M25.2137 37.7852C25.2137 37.7852 25.0162 37.2463 25.0162 36.6429M25.6494 36.5625C25.7661 37.3136 26.0085 37.6774 26.0085 37.6774" stroke="#F24E1E" stroke-width="0.5625" stroke-linecap="round" stroke-linejoin="round"/>
<path d="M19.125 34.2716C19.125 34.2716 20.1915 33.7498 20.4581 32.8551M20.6574 33.1817C20.6998 33.3398 19.3551 34.9258 19.3551 34.9258M21.0411 33.1044C20.9383 33.8902 20.0642 35.0402 20.0642 35.0402M20.5534 35.2558C20.5534 35.2558 21.5415 34.3485 21.63 33.3178M22.0442 33.2573C22.0442 33.9135 21.7313 35.3563 21.7313 35.3563M26.9276 32.9468L26.9274 35.2522M21.8878 35.283C21.8878 35.283 22.6674 34.3024 22.6674 33.4924M27.5908 34.9209C27.5908 34.9209 27.0223 33.7438 27.0223 32.9334M23.1272 33.4202C23.1831 33.8625 22.5806 35.2414 22.5806 35.2414M28.7848 32.7891C28.8407 33.2314 29.8001 34.3586 29.8001 34.3586M27.5906 33.0088C27.6467 33.4513 28.5015 34.8456 28.5015 34.8456M23.5658 33.3853C23.454 34.1353 23.3308 35.3766 23.3308 35.3766M27.9043 32.8744L29.0987 34.5943M24.0015 33.3506C24.1155 33.8869 24.1453 34.9686 24.6932 35.3361M29.3409 32.8597C29.6301 33.306 30.1746 33.9735 30.8863 34.1492M24.7562 33.1809C24.7562 33.4312 24.4217 34.2859 24.9354 35.2682M25.8608 35.337C25.8608 35.337 24.9356 34.1871 24.9356 33.1809M25.398 33.1142C25.398 33.8327 26.5549 35.3563 26.5549 35.3563M26.7276 35.2459C26.6038 34.872 26.0046 33.5122 26.0719 32.9094" stroke="#F24E1E" stroke-width="0.5625" stroke-linecap="round" stroke-linejoin="round"/>
<path d="M13.3219 12.5086C12.4847 15.516 13.5862 16.8249 13.5862 17.4408C13.5862 18.0568 14.3792 13.8071 14.8007 11.4605L14.2461 18.9806L16.0864 10.887L15.456 19.8605L17.2708 10.5112C17.0691 14.1043 16.6768 21.0924 16.7209 20.3006C16.7647 19.5086 17.9494 13.3038 18.4993 10.0957L18.0049 20.3006L19.7452 10.5112L19.4882 20.3006L21.1101 10.5112L20.7356 20.7956L22.4955 10.5112L22.2176 20.7956L23.6417 11.0055V20.7956L25.0802 11.6385V20.7956L26.4002 12.1061C26.2536 15.4059 26.3122 21.5435 26.4002 20.7956C26.4881 20.0476 27.2434 15.0935 27.6101 12.5086L27.4588 20.7956L28.8201 13.041L28.6687 20.7956L29.9199 13.481V20.1826L31.0387 13.8536L30.7999 20.1826L31.9258 14.8029L32.0647 19.8605L32.6407 14.8029L32.8639 18.7873L33.6994 15.5805V18.9806" stroke="#F24E1E" stroke-width="1.125" stroke-linecap="round" stroke-linejoin="round"/>
<path d="M32.8443 19.9952C29.6416 21.8432 16.25 21.7174 14.0803 19.2774C10.7366 15.5179 12.2338 12.0455 14.4163 11.1448C16.5988 10.244 18.3813 8.51266 25.2275 11.1448C32.0739 13.7767 35.1978 14.6432 34.6104 18.3879C34.0228 22.1325 30.1205 23.1994 25.8886 22.3295C21.6568 21.4597 16.1206 24.2265 14.7033 21.7174C14.5121 21.4144 14.1866 20.6458 14.4163 19.9952" stroke="#F24E1E" stroke-width="0.5625" stroke-linecap="round" stroke-linejoin="round"/>
<path d="M33.9258 20.1443C34.6773 18.4958 36.8028 14.8819 39.2941 13.6133" stroke="#F24E1E" stroke-width="0.5625" stroke-linecap="round" stroke-linejoin="round"/>
<path d="M35.0599 18.8433C35.851 18.7344 37.6939 18.2283 38.7377 17.0756C40.0426 15.6344 41.3545 14.1161 41.0046 12.8343C40.6547 11.5524 38.7014 13.0203 37.7721 12.9343C36.8431 12.8482 33.9766 17.6666 34.3193 19.0258" stroke="#F24E1E" stroke-width="0.5625" stroke-linecap="round" stroke-linejoin="round"/>
<path d="M19.9735 28.3075C19.8375 28.2072 19.0107 27.8723 18.5788 27.1525C18.147 26.4331 18.1183 25.7135 18.5788 25.3968C18.8882 25.1841 19.5439 25.5246 19.9735 25.8155M20.142 25.6906C20.4216 25.382 20.9145 25.1221 21.4 25.3968C21.7257 25.5811 21.6878 26.7209 21.4 27.1527C21.1688 27.4994 20.4259 28.079 20.142 28.2642M27.8792 25.547C27.4667 25.1536 26.5437 24.5395 26.1522 25.2305C25.6628 26.0939 27.1978 27.6631 28.0624 28.0216M28.2707 28.126C28.6928 27.8093 29.5776 27.1186 29.7388 26.8881C29.9402 26.6003 30.2569 25.3913 29.7388 24.902C29.2206 24.4126 28.1267 25.1035 28.1267 25.8807" stroke="#F24E1E" stroke-width="0.5625" stroke-linecap="round" stroke-linejoin="round"/>
<path d="M18.1875 22.7385C18.3069 22.4723 18.7382 21.9623 19.5094 22.0502C20.4729 22.1603 20.6657 22.3257 20.886 22.7385M26.8419 22.3525C26.9522 22.0405 27.4147 21.4493 28.3839 21.5815C29.3533 21.7137 29.7058 22.2608 29.7607 22.5177" stroke="#F24E1E" stroke-width="0.5625" stroke-linecap="round" stroke-linejoin="round"/>
</g>
</g>
<defs>
<clipPath id="clip0_2489_3324">
<rect width="48" height="48" fill="white"/>
</clipPath>
</defs>
</svg>
