<svg width="26" height="38" viewBox="0 0 26 38" fill="none" xmlns="http://www.w3.org/2000/svg">
<g id="Group">
<g id="Group_2">
<g id="Group_3">
<path id="Vector" d="M22.142 20.5C24.275 24.5957 25.7585 32.6858 24.671 34.0546C22.1825 37.1875 9.80934 38.125 5.47284 35.3417C2.57559 33.4823 2.39165 23.8739 3.93234 21.2995M23.6909 23.6286C24.2345 23.4346 25.2863 22.9165 25.5307 23.9682C25.775 25.0199 25.7712 25.6743 25.5307 26.7633C25.3996 27.3565 25.0925 27.5339 24.7237 27.5339" stroke="#D9D9D9" stroke-width="0.5625" stroke-linecap="round" stroke-linejoin="round"/>
<path id="Vector_2" d="M2.90566 24.126C1.47954 23.678 0.639536 24.48 1.15066 26.2517C1.63497 27.9298 2.47272 28.283 2.90566 28.1882" stroke="#D9D9D9" stroke-width="0.5625" stroke-linecap="round" stroke-linejoin="round"/>
</g>
<g id="Group_4">
<path id="Vector_3" d="M14.9237 24.625C14.7756 25.6259 14.7151 27.6876 14.9963 28.8126C15.6557 31.4502 14.7064 32.0883 14.3802 32.0883C13.3934 32.0883 13.1611 31.2072 12.9346 28.7149C12.6533 25.6212 12.6454 25.6491 12.25 24.7823" stroke="#D9D9D9" stroke-width="0.5625" stroke-linecap="round" stroke-linejoin="round"/>
</g>
<g id="Group_5">
<g id="Group_6">
<path id="Vector_4" d="M10.3017 34.8959C11.1844 35.6609 12.8254 36.1098 14.5154 35.9211C16.4331 35.707 17.5696 34.69 18.0507 33.9149M9.625 35.4145C9.92125 35.2253 10.5269 34.7129 10.5782 34.1751M17.7128 33.4375C17.9014 33.7341 18.4131 34.3403 18.9507 34.3924" stroke="#D9D9D9" stroke-width="0.5625" stroke-linecap="round" stroke-linejoin="round"/>
</g>
</g>
<g id="Group_7">
<g id="Group_8">
<path id="Vector_5" d="M10.6346 5.86914C8.62012 6.83683 4.53337 9.8852 4.3033 14.3366C4.01549 19.9007 3.07105 22.3217 4.0783 23.2894C5.08537 24.2571 8.17518 21.2925 13.0676 22.1393C17.9601 22.9858 21.4888 23.2279 22.2084 22.1393C22.9279 21.0505 22.7214 12.4011 21.5704 10.1029C20.4191 7.80452 17.2061 5.99027 14.3284 5.86914" stroke="#FFC700" stroke-width="0.5625" stroke-linecap="round" stroke-linejoin="round"/>
<path id="Vector_6" d="M3.80664 20.5655C8.63608 19.8528 19.1231 18.8547 22.4346 20.5655M11.3546 6.31231C10.1076 7.73713 7.46945 11.1241 6.89402 13.2734C6.31839 15.4229 6.33639 18.8204 6.28839 19.9603M12.4026 6.21875C11.1555 7.64375 10.7989 10.6678 10.2233 12.8171C9.64764 14.9666 9.72658 18.4271 9.67858 19.5667" stroke="#FFC700" stroke-width="0.5625" stroke-linecap="round" stroke-linejoin="round"/>
<path id="Vector_7" d="M14.2031 5.94927C16.0331 6.86427 16.6121 10.6388 16.8808 12.8478C17.1533 15.0875 17.4131 18.5181 17.3651 19.658M13.249 6.03758C14.0642 6.48533 13.8295 8.67627 13.491 12.0305C13.158 15.3297 13.249 17.5088 13.7635 19.567M9.99733 3.15177C10.5403 3.42327 11.5815 4.39639 12.0341 4.84883C11.6569 4.09452 11.2646 0.911332 12.7129 1.00189C14.1611 1.09246 13.5445 3.55452 13.2051 4.53514C13.6198 4.08252 14.8626 2.78952 15.3152 3.15177C15.8809 3.60439 15.6589 5.45014 13.5793 5.86714C12.8027 6.02296 12.0341 6.31977 10.9026 5.86714C9.77101 5.41471 8.97901 4.84902 8.52639 4.05683C8.07395 3.26483 9.31858 2.81221 9.99733 3.15177Z" stroke="#FFC700" stroke-width="0.5625" stroke-linecap="round" stroke-linejoin="round"/>
</g>
</g>
<g id="Group_9">
<g id="Group_10">
<path id="Vector_8" d="M8.88366 26.8009C8.54298 26.472 8.96579 25.9793 9.33798 26.1655C9.80335 26.3982 9.97735 26.9755 9.57029 27.3825C9.16323 27.7898 8.22648 27.5292 8.16835 26.5403C8.11023 25.5512 9.3796 24.8204 10.0194 25.9838C10.6593 27.1472 10.4549 28.197 9.0541 28.197C8.1001 28.197 7.68535 27.5359 7.58916 26.9037C7.39604 25.6375 8.04085 24.3415 9.40604 24.6552C10.2466 24.8483 11.216 25.3969 11.0414 27.1422C10.867 28.8872 9.92917 29.0614 8.73648 28.857C7.2991 28.6107 6.90798 27.3239 7.37373 25.8702M17.3997 26.8009C17.059 26.472 17.4819 25.9793 17.854 26.1655C18.3192 26.3982 18.4934 26.9755 18.0864 27.3825C17.6793 27.7898 16.7425 27.5292 16.6844 26.5403C16.6263 25.5512 17.8957 24.8204 18.5354 25.9838C19.1754 27.1472 18.971 28.197 17.5702 28.197C16.6162 28.197 16.2014 27.5359 16.1052 26.9037C15.9121 25.6375 16.5569 24.3415 17.9221 24.6552C18.7627 24.8483 19.732 25.3969 19.5575 27.1422C19.3831 28.8872 18.4452 29.0614 17.2525 28.857C15.8152 28.6107 15.424 27.3239 15.8898 25.8702M8.26998 23.1019C8.84841 23.5103 9.92729 23.5967 10.5415 23.2894M16.2258 23.2727C16.9032 23.4795 17.9547 23.224 18.442 22.7402" stroke="#D9D9D9" stroke-width="0.5625" stroke-linecap="round" stroke-linejoin="round"/>
</g>
</g>
</g>
</g>
</svg>
