<svg width="64" height="64" viewBox="0 0 64 64" fill="none" xmlns="http://www.w3.org/2000/svg">
<path d="M30.934 7.57596L31.0738 7.56893C33.752 7.51277 36.4131 7.64335 39.0595 8.0798L42.6597 8.8432C46.11 9.65428 49.5409 10.741 52.5179 12.7205C53.468 13.3524 54.3541 14.0981 55.175 14.8888C56.4128 16.081 57.3171 17.5222 58.0358 19.0725C59.1995 21.5827 59.8592 24.332 59.9105 27.101C59.9377 28.5726 59.8689 30.0684 59.6199 31.5211C59.2545 33.6525 58.5005 35.7492 57.5229 37.673C57.0222 38.6582 56.4633 39.6653 55.6906 40.4648C54.8001 41.3861 53.6111 42.0531 52.4691 42.6174C51.329 43.1808 50.1672 43.6829 48.9634 44.0946C47.6004 44.561 46.1771 44.9181 44.773 45.2379C43.0081 45.6399 41.1995 45.9678 39.401 46.1757C37.7789 46.3633 36.1787 46.4083 34.5485 46.4371C34.149 47.4645 33.615 48.3526 32.9015 49.196C31.4754 50.8814 29.5462 52.1501 27.6187 53.1855C25.7264 54.2019 23.7178 55.0445 21.637 55.5908C20.1371 55.9846 18.6139 56.2085 17.0708 56.3394L14.4498 56.3893C12.5592 56.3276 9.63236 56.1074 8.27739 54.6384C7.78071 54.0999 7.69228 53.5583 7.72517 52.8498C8.07979 53.4549 8.55619 53.9464 9.22477 54.195C10.7882 54.7766 13.9326 53.7922 15.4194 53.1004C18.0292 51.8861 20.2629 49.4439 21.5488 46.8926C21.9151 46.1657 22.1856 45.4 22.4662 44.6375C22.0978 44.5598 21.7126 44.5389 21.3395 44.484L19.6551 44.1852C16.6036 43.6115 13.4478 42.8362 10.688 41.3759C9.92452 40.9719 9.15344 40.5065 8.51077 39.9251C6.3376 37.9591 5.24895 35.1523 4.67633 32.3444C4.48426 31.4025 4.33174 30.4655 4.2806 29.5043C4.20987 28.1751 4.3239 26.8854 4.55206 25.5751C5.0972 22.4447 6.38778 19.3822 8.53219 17.0075C10.2265 15.1314 12.1958 13.6163 14.3508 12.3085C16.8116 10.8152 19.513 9.62053 22.292 8.85903C25.1174 8.08493 28.0145 7.72132 30.934 7.57596Z" fill="#252424"/>
<path d="M32.0305 8.79523C35.1168 8.72323 38.2706 9.13607 41.2822 9.78707C46.1259 10.8341 51.2628 12.4508 54.6809 16.2467C55.194 16.8164 55.6454 17.4515 56.0593 18.0961C56.4211 18.6597 56.7184 19.2587 56.9951 19.8677C57.5001 20.9795 57.9003 22.1297 58.1549 23.3257C58.4182 24.5623 58.531 25.8167 58.5778 27.0777C58.6459 28.9147 58.522 30.7374 58.1283 32.5352C57.8723 33.7037 57.4844 34.8126 57.0034 35.9057C56.1535 37.8373 55.0693 39.5832 53.2554 40.7362C50.4848 42.4974 47.1443 43.444 43.9615 44.1296C41.8155 44.5918 39.7079 44.9304 37.5166 45.0757C36.4406 45.1471 35.3616 45.1608 34.2863 45.0698C33.9138 45.0383 33.5418 45.018 33.1758 44.9341L33.1493 44.9278C33.0478 45.035 32.9831 45.2573 32.9216 45.3943C32.5658 46.1873 32.11 46.9351 31.5965 47.6355C28.5093 51.8462 23.6531 54.1604 18.5874 54.9385C16.9212 55.2082 15.1623 55.2471 13.4786 55.1706C12.9523 55.1468 12.4295 55.1343 11.9061 55.0695C12.1811 54.9965 12.4722 54.9697 12.7509 54.9064C13.4737 54.7422 14.1802 54.5157 14.8672 54.2386C16.6779 53.5083 18.5392 52.6457 20.1388 51.5194C21.7373 50.394 23.1248 48.9433 24.0854 47.2352C24.7193 46.1082 25.1531 44.8769 25.6581 43.6893C25.2066 43.6932 24.7692 43.6379 24.3213 43.5897L22.5298 43.3738C19.578 42.9697 16.6333 42.3379 13.8435 41.2794C12.0977 40.617 10.3522 39.7822 8.98075 38.4875C7.55265 37.1393 6.75982 35.181 6.25521 33.3242C5.89802 32.0098 5.66261 30.6504 5.6258 29.2858C5.57414 27.3707 5.8236 25.551 6.35855 23.7109C6.72982 22.4338 7.20249 21.2479 7.88972 20.1062C8.52875 19.0444 9.30283 18.087 10.1549 17.1892C10.7357 16.5774 11.3802 16.0317 12.0401 15.508C12.9287 14.8028 13.8322 14.1636 14.8004 13.5723C16.2953 12.6595 17.8753 11.8279 19.5007 11.1739C23.4708 9.57657 27.7691 8.90557 32.0305 8.79523Z" fill="white"/>
</svg>
