<svg width="140" height="140" viewBox="0 0 140 140" fill="none" xmlns="http://www.w3.org/2000/svg">
<g clip-path="url(#clip0_2658_464)">
<path d="M140 123.04V140H0V0H140V118.796V119.852V122.044V123.04Z" fill="#2E2D2D"/>
<path d="M83.7444 100.659C84.1285 100.646 85.116 100.601 85.4248 100.783L85.4147 100.95L85.1927 101.069C84.7565 101.144 83.9719 101.167 83.6006 100.905C83.4883 100.826 83.5204 100.867 83.502 100.73L83.7444 100.659Z" fill="#FFFEFE"/>
<path d="M85.958 86.6827L86.9991 86.6777L86.8596 87.9443L86.7995 88.1122L86.7143 88.1242C86.3999 87.7146 86.1979 87.1455 85.958 86.6827Z" fill="#FFFEFE"/>
<path d="M81.8291 79.4766C82.1647 79.9573 82.4042 80.5355 82.6638 81.062L84.4202 85.0252C83.7311 84.7803 83.1843 84.693 82.4467 84.6788C82.4618 84.0377 82.3554 83.3887 82.2766 82.7531L81.8291 79.4766Z" fill="#FFFEFE"/>
<path d="M56.2188 92.6611C56.509 92.6349 56.9303 92.6117 57.185 92.7756C57.7408 93.1335 57.9965 93.8564 58.0986 94.4793L58.1189 94.6095L58.169 94.9555C58.2645 96.0266 58.0221 97.0319 57.345 97.8729L56.7688 98.3013C57.2222 96.6367 57.3126 95.0411 56.4286 93.4867C56.3034 93.2663 56.0097 92.9747 55.9902 92.7297L56.2188 92.6611Z" fill="#FFFEFE"/>
<path d="M54.3643 93.0703L54.4928 93.0721C54.964 93.496 55.2657 93.9887 55.4762 94.5804C55.8997 95.7713 55.9112 97.3602 55.3687 98.5028C55.0776 98.6488 54.7655 98.7173 54.4518 98.7992L53.5986 98.941L53.6384 98.8559C54.4313 97.123 54.383 95.5983 53.7364 93.827L54.3643 93.0703Z" fill="#FFFEFE"/>
<path d="M20.7493 121.793L25.9344 123.295L24.8426 123.731C23.5385 124.304 22.1248 124.602 20.7197 124.793L20.7493 121.793Z" fill="#FFFEFE"/>
<path d="M18.9362 105.913L19.2087 105.875C19.3595 106.067 19.3453 109.331 19.3606 109.9C18.1002 109.225 16.8343 109.101 15.4265 109.059L14.3548 109.103L14.1436 106.62L18.9362 105.913Z" fill="#FFFEFE"/>
<path d="M7.69155 104.345C8.83062 104.193 10.2852 104.36 11.3721 104.731C11.8645 104.899 12.7219 105.211 12.9383 105.719C13.0538 105.989 13.0517 106.188 12.9455 106.458C12.0156 107.481 9.85556 107.672 8.55828 107.787C7.27134 107.815 5.97402 107.808 4.7152 107.5C4.30527 107.4 3.86029 107.294 3.50245 107.06C3.30283 106.93 3.10499 106.71 3.06439 106.473C3.0225 106.227 3.10726 106.026 3.25911 105.835C4.14126 104.726 6.37603 104.452 7.69155 104.345Z" fill="#FFFEFE"/>
<path d="M15.2112 109.951C16.1962 109.891 17.1424 110.002 18.0552 110.38C18.709 110.651 19.376 110.998 19.6451 111.694C19.7931 112.077 19.9566 112.922 19.7937 113.306C19.3729 113.606 18.854 113.689 18.3548 113.777C17.2249 113.977 16.1357 114.037 14.9923 114.046C13.8897 114.02 12.8305 113.863 11.7697 113.556C11.3748 113.442 10.8937 113.307 10.5618 113.064C10.3757 112.927 10.2393 112.733 10.2169 112.5C10.1821 112.136 10.3321 111.845 10.5643 111.578C11.6007 110.385 13.7312 110.057 15.2112 109.951Z" fill="#FFFEFE"/>
<path d="M87.5727 75.0826C87.7412 75.056 87.8412 75.0321 88.0062 75.0924L86.9888 85.432L85.5757 85.3669C85.5019 84.372 85.1747 83.4022 84.7636 82.5004C84.2324 81.3368 83.6257 80.1993 82.9872 79.0914C82.3836 78.0443 81.7439 77.0681 81.3311 75.9237L87.5727 75.0826Z" fill="#FFFEFE"/>
<path d="M50.1533 93.277C50.3075 93.2562 50.4481 93.2675 50.6023 93.2828C51.2875 93.3508 51.9713 93.6951 52.3957 94.2471C52.9737 94.9993 53.0067 96.206 52.8614 97.106C52.73 97.9201 52.4708 98.7938 51.7546 99.2809C50.7354 99.9738 48.701 99.5706 47.5628 99.3301L47.4789 99.3088C46.7875 99.1282 45.9734 98.8832 45.6132 98.2067C45.1408 97.32 45.2486 95.9982 45.5156 95.0587C45.73 94.3042 46.121 93.8341 46.7882 93.46C47.0602 93.7507 47.3311 94.0896 47.708 94.2424C49.3979 94.9265 49.0118 93.7176 50.1533 93.277Z" fill="#FFFEFE"/>
<path d="M65.7032 79.1699C65.9018 80.0766 66.2961 80.9245 66.6668 81.7714C68.0016 84.8191 69.7126 87.8623 72.2809 90.0507L72.3501 90.1083L67.1463 91.2325L64.2662 91.8932C64.5284 91.512 64.8062 91.2165 65.0067 90.7901C65.8591 88.9776 65.9388 87.124 65.2532 85.2453C64.7635 83.904 63.9162 82.8054 62.6039 82.2018L62.5166 82.1626C62.6242 82.0053 62.8885 81.8635 63.0438 81.7422C63.9994 80.9967 64.8499 80.0327 65.7032 79.1699Z" fill="#FFFEFE"/>
<path d="M20.6064 110.912L20.6269 110.912C21.0974 110.921 21.6076 111.073 22.063 111.187C23.8461 111.637 25.7819 112.469 27.0995 113.789C28.0124 114.704 28.8599 115.803 29.1867 117.075C29.3909 117.871 29.4093 118.665 29.4111 119.481L20.8564 116.881C20.9413 116.045 20.8943 115.172 20.9191 114.33C20.9389 113.659 21.0467 112.935 20.9758 112.271C20.924 111.787 20.7957 111.358 20.6064 110.912Z" fill="#FFFEFE"/>
<path d="M73.0231 90.9513C73.2986 90.9234 73.5583 91.1819 73.7818 91.3401C74.2921 91.7013 74.7996 92.0704 75.3435 92.3803C76.0034 92.7564 76.7224 93.0012 77.4366 93.2511C77.1973 93.3849 76.8957 93.4272 76.6281 93.4926L74.8619 93.8933L62.3824 96.694L58.8984 97.6728C59.4491 96.3865 59.5097 95.4021 59.3775 94.0432C61.2939 93.8505 63.0651 93.1868 64.9285 92.7591C67.6297 92.1391 70.346 91.6925 73.0231 90.9513Z" fill="#FFFEFE"/>
<path d="M29.8073 112.73L39.7852 113.91L42.8065 114.267C43.4737 114.346 44.1752 114.377 44.8134 114.597L47.1365 122.648L29.7783 114.377L29.8073 112.73Z" fill="#FFFEFE"/>
<path d="M62.2657 116.688L81.7717 120.233L82.1882 124.291L62.2588 120.875L62.2657 116.688Z" fill="#FFFEFE"/>
<path d="M82.9904 6.09961L83.228 6.15692C83.3926 6.29656 83.5063 6.42589 83.5829 6.63163C83.8771 7.42237 83.8397 8.50878 83.8589 9.35158C83.9753 14.476 82.9509 19.6613 80.9451 24.3772C80.746 23.9187 80.6447 23.3737 80.4958 22.893L79.5032 19.8746C78.6676 17.7058 77.8237 15.6326 76.3401 13.8095C75.6829 13.0022 74.9404 12.3189 74.1719 11.6216C74.8513 11.2319 75.4596 10.6447 76.0745 10.1567C77.5454 8.98895 79.042 7.83284 80.7191 6.97162C81.4515 6.59546 82.1785 6.25789 82.9904 6.09961Z" fill="#FFFEFE"/>
<path d="M13.0134 107.633L13.1294 107.701L13.1419 109.417C12.2811 109.785 11.3527 109.894 10.5378 110.39C9.90927 110.773 9.34032 111.419 9.19495 112.153C9.06144 112.827 9.20798 113.452 9.5901 114.018C9.6933 114.171 9.09058 115.236 8.97962 115.478C8.57554 116.363 8.63032 117.543 8.60561 118.5L8.54365 122.377C6.87455 122.182 5.17935 121.992 3.60778 121.367C3.37749 121.249 3.12623 121.112 2.9448 120.924C2.82718 120.803 2.81854 120.646 2.8124 120.485C2.7681 119.32 2.85455 118.118 2.8587 116.948L2.88754 107.948C3.85606 108.422 4.98973 108.622 6.05258 108.76C7.80893 108.989 11.5185 108.813 12.961 107.676L13.0134 107.633Z" fill="#FFFEFE"/>
<path d="M4.17273 109.59L4.25287 109.585C4.42616 109.572 4.60322 109.545 4.77637 109.573C5.10116 109.625 5.45339 109.804 5.62864 110.091C5.78193 110.341 5.79028 110.701 5.71042 110.978C5.604 111.347 5.32325 111.526 5.00355 111.698L4.92988 111.708C4.7738 111.733 4.61592 111.769 4.45684 111.754C4.17995 111.727 3.90391 111.561 3.73359 111.344C3.52201 111.074 3.40906 110.691 3.47652 110.351C3.55429 109.96 3.85584 109.784 4.17273 109.59Z" fill="#2E2D2D"/>
<path d="M10.7079 114.429C13.1064 115.073 15.3673 115.322 17.8331 114.935C18.4986 114.831 19.2104 114.719 19.8191 114.417L19.8812 114.385L19.8585 115.892C19.8557 116.08 19.8889 116.254 19.7895 116.416C19.6237 116.387 19.4341 116.34 19.2656 116.356C18.9539 116.385 18.6756 116.639 18.5082 116.885C18.0816 117.511 18.1448 118.544 18.1537 119.281C18.1574 119.587 18.1432 119.939 18.2228 120.233C18.4029 120.9 18.9904 121.256 19.5371 121.599L19.5515 124.61L19.5535 125.72C17.0152 126.307 13.313 126.273 11.0373 124.848C10.3872 124.441 9.8055 123.814 9.65319 123.042C9.51952 122.365 9.61896 121.507 9.62829 120.813L9.70713 117.681C9.72963 117.105 9.70285 116.464 9.86487 115.91C10.0139 115.4 10.4236 114.878 10.7079 114.429Z" fill="#FFFEFE"/>
<path d="M19.385 117.682L58.4994 129.605C58.3875 130.458 58.5187 131.332 58.4212 132.187L58.2079 132.184L54.3541 130.998L45.2707 128.216L28.2324 122.781L23.6474 121.415L21.1673 120.696C20.429 120.48 19.7092 120.299 19.0852 119.831C18.9652 119.085 19.1275 118.378 19.385 117.682Z" fill="#FFFEFE"/>
<path d="M86.5893 91.8555L86.3035 94.5729C85.6634 94.7056 85.0349 94.9218 84.4018 95.0875L80.4047 96.0682L65.794 99.3746L63.7328 99.8176C63.3269 99.8967 62.8646 99.921 62.5151 100.151L62.4852 100.318C62.8462 100.621 63.8482 100.79 64.3169 100.759C65.2327 100.698 66.2158 100.391 67.1134 100.185L71.1647 99.2693L82.9526 96.5823L85.0203 96.0823C85.3165 96.0048 85.8162 95.7962 86.1037 95.8679C86.0967 96.0258 86.1126 96.2332 86.0342 96.373C85.9855 96.4598 85.8703 96.4614 85.7808 96.4871L80.457 97.8191L73.1958 99.6517L70.0445 100.453C69.5842 100.576 69.0995 100.662 68.6556 100.838C68.4653 100.913 68.3186 100.98 68.2393 101.173C68.2854 101.235 68.3222 101.305 68.3778 101.359C68.5612 101.537 69.1443 101.654 69.3915 101.719L72.7869 102.553L75.4908 103.181C76.0091 103.298 76.5673 103.472 77.0997 103.425C77.9603 103.349 78.8375 103.13 79.6746 102.926C81.1707 102.563 82.6514 102.114 84.1655 101.829C84.4977 101.766 85.1443 101.606 85.4514 101.754L85.4503 102.164C85.3988 102.212 85.3862 102.23 85.3129 102.262C85.1301 102.343 84.8484 102.366 84.6501 102.407L83.4331 102.675L79.2916 103.725C78.4605 103.933 77.5394 104.239 76.6792 104.227C75.258 104.208 73.7084 103.709 72.3095 103.444L62.3031 101.329L55.5107 99.8036L62.3882 97.7756L78.2967 94.2134C80.1952 93.7788 82.1485 93.9788 84.0482 93.4438C85.1315 93.1386 85.8071 92.6404 86.5893 91.8555Z" fill="#FFFEFE"/>
<path d="M19.4289 82.3967C20.6239 82.2281 21.9358 82.646 22.8976 83.3501C24.3579 84.4187 25.2061 86.3854 25.4827 88.1263C25.7477 89.7955 25.646 91.6332 24.6078 93.0327C23.6568 94.3145 22.3542 94.7816 20.835 95.0122C19.4133 95.0441 18.2696 94.8147 17.1019 93.9656C15.7509 92.9833 14.9582 91.3986 14.7144 89.7698C14.4296 87.8676 14.8834 85.8154 16.0504 84.2737C16.9066 83.1426 18.0487 82.5919 19.4289 82.3967Z" fill="#FFFEFE"/>
<path d="M29.9053 115.262L33.8712 117.391C38.1372 119.567 42.5461 121.746 47.0369 123.423C48.5184 123.977 50.0542 124.385 51.5719 124.825L57.2695 126.528L75.1271 132.062L83.1959 134.771C83.358 135.305 83.2457 136.122 83.2234 136.685L83.0865 136.791L30.2906 119.738C30.1685 119.303 30.2883 118.537 30.248 118.055L29.9053 115.262Z" fill="#FFFEFE"/>
<path d="M107.857 114.049L108.161 118.321C104.833 119.566 101.372 120.504 97.9371 121.398L83.1099 124.723L82.6797 119.956L107.857 114.049Z" fill="#FFFEFE"/>
<path d="M140 119.852V122.043L83.7303 136.745L83.7246 134.66L140 119.852Z" fill="#FFFEFE"/>
<path d="M80.042 76.6658C80.2033 76.6339 80.1191 76.6385 80.2944 76.6576L81.1394 83.9105L81.3116 86.3047C81.3337 86.7238 81.2456 87.4858 81.5003 87.8268C81.6206 87.8833 81.7324 87.9459 81.8674 87.9541C82.0523 87.9654 82.1101 87.9466 82.2373 87.8086C82.6068 87.4077 82.4949 86.3898 82.5014 85.8656C82.9014 85.9239 83.34 86.0351 83.7051 86.2141C84.4602 86.5843 84.8669 87.1899 85.1317 87.9729C85.4438 88.8943 85.502 90.4641 85.0371 91.3343C84.701 91.9634 84.0593 92.2452 83.4012 92.4175C80.7688 93.1069 78.1277 92.4755 75.8259 91.1486L73.8502 89.7203C70.9108 87.1553 68.9384 83.9158 67.5112 80.323C67.3154 79.8299 66.8761 78.9977 66.8398 78.4838C71.2291 78.4857 75.8359 77.9464 80.042 76.6658Z" fill="#FFFEFE"/>
<path d="M43.72 96.284C43.8709 96.2609 43.8562 96.2421 44.0031 96.3181L44.0809 97.7362C44.1805 98.5219 44.4616 99.2483 45.1189 99.729C45.2892 99.8533 45.4738 99.9569 45.6649 100.045C47.3186 100.809 49.9721 101.038 51.7304 100.662C51.9928 100.605 52.245 100.548 52.4891 100.434C52.6326 100.367 52.9753 100.133 53.1126 100.119C53.2721 100.104 53.7778 100.34 53.957 100.395L56.0176 100.953L62.8313 102.634L72.8542 104.704L75.2474 105.146C75.8757 105.258 76.5608 105.396 77.1975 105.303L77.3147 105.285C78.1959 105.16 79.076 104.921 79.9446 104.724L85.3304 103.421L85.0036 106.951C84.8946 108.081 84.6944 109.46 85.0422 110.547C85.362 111.548 86.0727 111.918 86.9392 112.366C84.3964 112.492 81.8729 112.945 79.3168 112.925C77.9978 112.914 76.6844 112.706 75.3779 112.543L45.7766 108.173L39.8795 107.276C38.8094 107.128 37.6393 107.084 36.6 106.806C35.5497 106.524 34.5195 105.996 33.5282 105.554C31.9979 104.871 30.1033 104.245 28.9033 103.05L30.6203 99.1238C31.1472 98.8474 31.8266 98.7608 32.4039 98.6442L35.6942 98.0114L43.72 96.284Z" fill="#FFFEFE"/>
<path d="M35.4063 5.21478C39.16 5.03399 44.7225 9.12097 47.2446 11.75L49.0322 13.7356C49.3773 14.1307 49.7814 14.6826 50.2235 14.9538C50.4384 15.0858 50.5846 15.0884 50.8252 15.0394C50.9931 14.8634 51.0268 14.8451 51.0693 14.5951C50.9244 14.1367 50.5314 13.7485 50.2381 13.3736C48.913 11.68 47.5055 10.2347 45.8494 8.86725L48.9968 7.48145C54.9211 5.47608 61.8792 5.89506 67.496 8.67556C71.0365 10.4282 74.3199 12.7428 76.384 16.1889C77.7537 18.4755 78.6107 21.0613 79.423 23.5873L82.7556 34.2003C81.6832 34.6362 80.6237 35.1741 79.5982 35.7112C79.1362 35.9531 78.6205 36.1778 78.2069 36.4976C78.0144 36.6465 77.9517 36.7435 77.9207 36.9828C78.0009 37.1637 78.1491 37.3268 78.3327 37.4118C78.4849 37.482 78.6404 37.4739 78.7979 37.4307C79.3393 37.282 79.8935 36.926 80.386 36.66C81.2725 36.1811 82.1473 35.6964 83.0692 35.287L83.6485 37.5385C83.2449 37.6692 82.8422 37.7784 82.4239 37.8522C81.8188 37.9588 81.2659 37.9258 80.8352 38.4215C80.7933 38.5681 80.7745 38.6618 80.8129 38.809C80.8558 38.9738 80.9839 39.094 81.1349 39.1738C81.6511 39.4467 83.2166 38.8265 83.8067 38.6648C83.8197 40.4187 83.6058 41.9847 83.1102 43.6668L82.8134 44.459C82.3921 44.292 81.3206 43.7404 80.8693 43.8226C80.6888 43.8556 80.6272 43.9158 80.5138 44.0559C80.3589 44.2474 80.3472 44.4027 80.3716 44.6391C80.7236 45.1426 81.7022 45.2746 82.2678 45.4127L80.6017 47.9481C79.0928 50.0346 77.0284 51.9328 74.7756 53.1946C72.5719 54.4291 70.001 55.0532 67.5392 55.531L61.0786 56.5623C58.853 56.8455 56.6374 57.1421 54.3881 57.1028C51.7985 57.0574 49.1968 56.6837 46.7072 55.9705C41.2841 54.4174 36.2723 50.9921 32.7102 46.6226C31.5435 45.1916 30.5491 43.6257 29.6549 42.0132C30.2275 41.6829 30.7141 41.1921 31.3771 41.1012C31.6955 41.0574 32.1261 40.9331 32.3328 40.6743C32.3698 40.4207 32.3786 40.3691 32.2814 40.1199C31.9744 39.8312 31.5894 39.8058 31.1889 39.7406L29.2331 39.4784C28.9927 34.124 30.4795 28.861 31.0023 23.5678C31.3317 20.2328 31.0176 16.9007 31.5599 13.5691C31.9099 11.4187 32.4212 9.12487 33.4525 7.18802C33.8932 6.36009 34.4676 5.50197 35.4063 5.21478Z" fill="#FFFEFE"/>
<path d="M71.5883 42.623L71.6466 42.6191C71.8849 42.6357 72.0672 42.7127 72.2387 42.8796C72.4082 43.0446 72.4498 43.1788 72.4596 43.4092C72.3674 43.6363 72.2593 43.7153 72.061 43.8534C71.9942 43.8678 71.8825 43.9008 71.8112 43.8939C71.5897 43.872 71.428 43.7572 71.2955 43.58C71.1852 43.4327 71.14 43.2305 71.1958 43.0535C71.2602 42.8503 71.418 42.7322 71.5883 42.623Z" fill="#2E2D2D"/>
<path d="M43.0417 43.9832C43.1301 43.9754 43.1783 43.9681 43.2716 43.9763C43.5117 43.9978 43.5758 44.0721 43.7016 44.2621C43.7129 44.4573 43.7022 44.578 43.582 44.7408C43.4949 44.8589 43.3059 44.9406 43.1721 44.9874C42.3477 45.2767 41.2237 45.3238 40.3493 45.4204C40.1859 45.435 40.0481 45.4054 39.8877 45.3785C39.7882 45.2758 39.7007 45.2266 39.6728 45.0804C39.6367 44.8901 39.6852 44.7362 39.808 44.5889C40.0268 44.3264 40.4924 44.3166 40.8107 44.2701L43.0417 43.9832Z" fill="#2E2D2D"/>
<path d="M73.9485 21.9586L74.0763 21.9451C74.8031 21.8802 75.417 22.0904 75.9679 22.5753C76.1901 22.771 76.2811 22.912 76.2999 23.2073C76.267 23.3046 76.2382 23.3907 76.1624 23.4643C75.568 24.0418 75.1562 23.3438 74.6395 23.1484C74.4857 23.0904 74.2919 23.0904 74.1284 23.0846L74.0269 23.0822C73.5507 23.2337 72.8099 23.939 72.354 23.8345C72.0587 23.7667 71.9537 23.6424 71.8115 23.391C71.8089 23.2209 71.7847 23.1708 71.8753 23.0184C72.2384 22.4076 73.2979 22.1334 73.9485 21.9586Z" fill="#2E2D2D"/>
<path d="M52.607 22.1771C54.1808 22.0621 56.1439 22.3959 57.6416 22.8558C57.913 22.9393 58.1148 23.0131 58.253 23.2764C58.2533 23.4309 58.2738 23.5852 58.1573 23.7058C58.0497 23.817 57.9115 23.8854 57.7579 23.8952C57.0608 23.9395 56.138 23.601 55.4415 23.4767C54.9169 23.383 54.3733 23.3522 53.8422 23.3099C53.0033 23.3028 52.2002 23.3338 51.37 23.4734L49.6796 23.842C49.3358 23.9231 48.926 24.0438 48.5691 23.9981C48.3463 23.9696 48.2765 23.8458 48.1462 23.6865C48.1462 23.4703 48.1205 23.4153 48.2725 23.2485C48.8896 22.572 51.6834 22.2526 52.607 22.1771Z" fill="#2E2D2D"/>
<path d="M54.3952 31.0489C54.8393 31.0248 55.3058 31.006 55.7365 31.13L55.8494 31.1646C56.2293 31.2765 56.5771 31.4278 56.9078 31.6473C57.9319 32.3276 58.5225 33.3215 58.7398 34.5231C59.0001 35.9633 58.7327 37.6587 57.8781 38.869C57.1701 39.8716 56.247 40.2714 55.0739 40.4686C54.2073 40.4876 53.4185 40.3645 52.6514 39.9336C51.61 39.3484 50.9248 38.3358 50.6477 37.1877C50.3174 35.8183 50.6834 34.2842 51.4186 33.1055C52.1128 31.9922 53.1294 31.3478 54.3952 31.0489Z" fill="#2E2D2D"/>
<path d="M54.5053 32.3533C55.1517 32.3278 55.6291 32.377 56.1893 32.7489C56.9055 33.2243 57.2974 34.0676 57.4456 34.893C57.6294 35.9162 57.46 37.1357 56.8346 37.9885C56.3524 38.6458 55.7335 38.9958 54.9442 39.1342C54.493 39.1158 54.1051 39.132 53.6813 38.9421C52.9746 38.6252 52.3633 37.9899 52.1125 37.2522C51.7696 36.2447 51.8877 34.9825 52.3715 34.0433C52.8522 33.11 53.5426 32.6791 54.5053 32.3533Z" fill="#FFFEFE"/>
<path d="M69.7618 30.7126C70.5403 30.6679 71.3238 30.8934 71.9174 31.4109C72.8941 32.2622 73.3318 33.5346 73.3972 34.8032C73.4656 36.1248 73.1828 37.5844 72.2502 38.5808C71.5056 39.3763 70.6284 39.4491 69.6161 39.4914C69.2484 40.5904 68.4996 41.1652 67.6446 41.8688C67.5322 42.7387 67.4246 43.7517 67.7145 44.5975C67.9507 45.2868 68.4934 45.8016 69.1402 46.1124C69.9842 46.518 71.0754 46.3113 71.717 45.6299C71.9533 45.3792 72.2634 44.8252 72.5893 44.7339C72.8133 44.6712 73.0525 44.7694 73.2443 44.8781C73.3701 45.0489 73.4302 45.1564 73.4262 45.3739C73.4167 45.88 72.9223 46.3767 72.5618 46.6955C71.8288 47.3434 70.8326 47.6741 69.8575 47.6075C68.6219 47.5231 67.7177 46.8508 66.9218 45.9556C66.6163 46.2876 66.3139 46.6111 65.9382 46.8652C64.9301 47.547 63.6413 47.6631 62.4665 47.4355L62.3624 47.4149C61.7739 48.2262 61.1908 48.5923 60.2471 48.8508C59.9933 48.9009 59.7425 48.9437 59.4831 48.9507C58.3091 48.9815 57.2305 48.6998 56.3668 47.8664C55.7802 47.3004 54.9371 46.194 54.9584 45.3473C54.9653 45.075 55.0745 44.9565 55.2685 44.782C55.4429 44.7372 55.5915 44.6923 55.7683 44.7541C56.159 44.8903 56.258 45.5207 56.428 45.8608C56.811 46.6274 57.5127 47.314 58.3397 47.5662C59.0587 47.7855 60.013 47.7094 60.666 47.3439C60.9035 47.2109 61.158 47.0246 61.2343 46.7579C61.1122 46.6051 60.9737 46.4177 60.9266 46.2239C60.8758 46.0145 60.9197 45.793 61.0542 45.6227C61.2243 45.4076 61.3929 45.3225 61.66 45.3019C62.0545 45.4064 62.2096 45.793 62.5146 46.0325C62.8972 46.3333 63.3531 46.4509 63.8344 46.3953C64.548 46.3131 65.4391 45.8327 65.877 45.2547C66.3748 44.5977 66.2463 43.4205 66.1544 42.6477C66.1283 42.4279 66.1024 42.1718 66.0024 41.9713C65.8976 41.7614 65.6677 41.5638 65.4954 41.4069C64.9137 40.8766 64.2248 40.4633 63.6122 39.9684C63.2866 39.7052 62.9926 39.4476 62.9709 38.9992C62.9607 38.7863 63.0365 38.5615 63.1818 38.4062C63.8561 37.685 65.6609 37.6896 66.5797 37.6413C66.5082 35.8215 66.4612 33.7875 67.5099 32.2123C68.0559 31.3921 68.8035 30.9045 69.7618 30.7126Z" fill="#2E2D2D"/>
<path d="M66.3478 38.7864C66.8989 38.7673 67.6802 38.7172 68.1778 38.9762C68.3284 39.0546 68.2786 39.0028 68.3353 39.1647L68.1884 39.3311C67.9591 39.4325 67.7039 39.4246 67.4569 39.4363C66.9093 39.4385 66.2576 39.4963 65.7275 39.3634C65.5353 39.3151 65.3261 39.2429 65.2178 39.0677C65.5224 38.844 65.9796 38.8249 66.3478 38.7864Z" fill="#FFFEFE"/>
<path d="M69.7564 32.2031L69.82 32.2051C70.1738 32.2075 70.425 32.2224 70.7453 32.3858C71.3823 32.711 71.7503 33.4022 71.9572 34.0589C72.2507 34.99 72.1798 36.0909 71.7191 36.9567C71.3708 37.6115 70.9406 37.9366 70.2468 38.1511C70.0732 38.1506 69.9099 38.1201 69.7413 38.0844C69.3854 38.0091 68.0735 37.6217 67.9313 37.3164C67.8726 37.1906 67.8837 36.89 67.8744 36.7475C67.8132 35.8145 67.8675 34.7485 68.2064 33.8656C68.5248 33.0357 68.9399 32.5664 69.7564 32.2031Z" fill="#FFFEFE"/>
<path d="M130.41 45.8293L131.83 45.7969C132.109 45.7982 132.298 45.9391 132.496 46.1276C132.895 46.508 133.022 46.9858 133.024 47.5215C133.028 48.3202 132.9 49.1277 132.814 49.9216L132.342 54.1511L130.603 69.7083L129.638 79.3628L128.47 89.6278L127.603 96.3624C127.485 97.2535 127.446 98.1514 127.273 99.0355C127.166 99.5873 126.88 100.059 126.484 100.452C125.396 101.529 123.578 101.997 122.166 102.485L113.355 105.108L101.62 108.381L94.1312 110.592C92.3619 111.109 90.5545 111.868 88.69 111.849C88.1579 111.734 87.6643 111.562 87.2074 111.26C86.6678 110.904 86.2068 110.442 86.0718 109.793C85.9624 109.268 86.043 108.705 86.0814 108.175L86.446 104.877L86.9345 100.499L88.5168 84.8819L90.4236 64.1877L91.2261 56.0209L91.5792 52.3442C91.6584 51.696 91.7799 51.0795 92.155 50.5284C92.4284 50.1272 92.8738 49.713 93.3651 49.6286L93.4476 49.6159L130.41 45.8293Z" fill="#FFFEFE"/>
<path d="M110.495 73.4171C110.701 73.4086 110.905 73.3951 111.107 73.4498L111.461 73.5409C111.794 73.5641 112.118 73.338 112.335 73.1103L112.376 73.0664L112.423 73.1616C112.542 73.1869 112.647 73.2102 112.761 73.2542L112.869 73.4441C112.437 73.6508 111.96 73.9141 111.474 73.948C111.11 73.9731 110.679 73.8601 110.312 73.8185C110.499 73.764 110.687 73.7686 110.879 73.76L110.983 73.6233L110.931 73.5037C110.813 73.5168 110.736 73.4983 110.626 73.4618L110.495 73.4171Z" fill="#060606"/>
<path d="M110.312 73.8176L109.922 73.8345C108.803 73.9047 108.084 74.2786 107.361 75.1128C106.363 76.2641 105.88 77.7804 106.008 79.2962C106.096 80.344 106.523 81.3194 107.336 81.9996C107.978 82.5357 108.777 82.7311 109.601 82.6536C110.591 82.5605 111.485 82.0021 112.107 81.2452C112.34 80.9612 112.514 80.6377 112.751 80.3557L112.827 80.4149L112.819 80.5328C112.758 81.2449 112.148 81.9199 111.614 82.345C110.924 82.8941 109.802 83.2678 108.909 83.1434L108.794 83.1258C108.368 83.0643 107.986 82.9673 107.603 82.7712C106.68 82.2985 106.038 81.3453 105.741 80.3715C105.07 78.1733 106.005 75.454 107.833 74.079C108.156 73.8358 108.499 73.6586 108.869 73.4975C109.004 73.4388 109.377 73.3343 109.461 73.2463C109.539 73.1641 109.612 72.9686 109.67 72.8633L109.682 73.2805C109.861 73.2583 109.783 73.2918 109.919 73.1859L109.927 73.1872L109.956 73.3296C110.143 73.3795 110.3 73.4063 110.494 73.4162L110.625 73.4608C110.735 73.4973 110.812 73.5159 110.93 73.5028L110.982 73.6223L110.879 73.7591C110.686 73.7676 110.498 73.7631 110.312 73.8176Z" fill="#2E2D2D"/>
<path d="M109.67 72.8632L109.67 72.8406C109.753 72.5892 109.967 72.3581 110.161 72.1874C110.823 71.6055 111.655 71.3664 112.524 71.4192C113.264 71.4643 114.076 71.8205 114.572 72.3743C114.91 72.5961 115.167 73.0743 115.239 73.4688C115.289 73.742 115.261 74.0566 115.256 74.3343L115.18 74.3798C114.547 74.77 113.764 75.5177 113.606 76.2647C113.557 76.4939 113.553 76.7633 113.673 76.9719C113.767 77.1354 113.964 77.3029 114.16 77.3093C114.464 77.3191 114.73 77.1614 115.028 77.2796C115.061 77.5242 115.012 77.7041 114.866 77.9025C114.753 78.0556 114.713 78.0826 114.536 78.1507C114.163 78.101 113.813 77.9196 113.574 77.6212C113.239 77.2032 113.087 76.684 113.167 76.153C113.278 75.4149 113.767 74.7822 114.294 74.277C114.45 74.1274 114.692 73.9482 114.792 73.7562C114.9 73.5495 114.799 73.1955 114.666 73.0181C114.525 72.8304 114.383 72.711 114.149 72.6647C113.766 72.9082 113.287 73.2896 112.868 73.4431L112.76 73.2531C112.646 73.2092 112.542 73.1858 112.423 73.1605L112.375 73.0653L112.335 73.1093C112.117 73.337 111.793 73.563 111.46 73.5398L111.106 73.4487C110.904 73.394 110.701 73.4075 110.494 73.4161C110.3 73.4062 110.143 73.3794 109.956 73.3295L109.927 73.1871L109.919 73.1858C109.783 73.2917 109.861 73.2582 109.682 73.2804L109.67 72.8632Z" fill="#252424"/>
<path d="M109.927 73.1878C110.322 72.834 110.791 72.1872 111.289 71.9932C111.449 72.1484 111.386 72.2874 111.597 72.3833C111.779 72.2678 111.836 72.0381 111.915 71.8461C112.119 71.7316 112.174 71.7732 112.399 71.8115C112.521 72.0113 112.456 72.3901 112.589 72.4765L112.991 72.0306C113.214 72.047 113.267 72.1188 113.442 72.2519L113.494 72.4265C113.323 72.7364 113.006 73.0144 112.664 73.124C112.585 73.1495 112.505 73.1546 112.423 73.1612L112.375 73.066L112.335 73.1099C112.117 73.3376 111.793 73.5637 111.46 73.5405L111.106 73.4494C110.904 73.3947 110.701 73.4082 110.494 73.4167C110.3 73.4069 110.143 73.3801 109.956 73.3302L109.927 73.1878Z" fill="#FFFEFE"/>
<path d="M28.4013 42.5098C28.7142 42.8957 28.938 43.4724 29.2036 43.9036C29.9871 45.1761 30.8366 46.4516 31.7978 47.5972C35.9431 52.5382 41.6835 56.0455 47.9549 57.5069C49.7891 57.9342 51.7156 58.1909 53.6004 58.2297C56.8363 58.2964 60.0685 57.8726 63.2663 57.4251C66.4832 56.9748 69.8767 56.4812 72.9296 55.3488C74.2404 54.8626 75.3934 54.2007 76.5749 53.4679C77.3104 55.3686 77.7928 57.3496 78.2253 59.3364C79.3745 64.6126 79.808 69.9718 80.3257 75.336C80.1394 75.4683 79.8807 75.5071 79.6612 75.5673L78.2731 75.9105C76.4427 76.3158 74.6324 76.7228 72.7682 76.9478L67.1717 77.4376L69.1007 74.6365C70.2519 72.8254 71.198 70.977 71.9543 68.9692C72.1829 68.3627 72.4835 67.6863 72.6193 67.055C72.6552 66.8886 72.6348 66.8585 72.5287 66.7219C72.4104 66.5697 72.2318 66.5274 72.0506 66.5159C71.8196 66.6022 71.7407 66.6532 71.6061 66.8621C71.1318 67.5995 70.8507 68.55 70.5004 69.3588C70.1093 70.2613 69.6481 71.1303 69.1707 71.9894C68.2726 73.606 67.2845 75.2417 66.1478 76.703C64.5013 78.8197 62.4174 80.7857 60.2113 82.3128C60.0024 82.4574 59.7583 82.632 59.5158 82.7091C59.0433 82.8595 58.2979 82.8517 57.957 83.252C57.8046 83.431 57.7779 83.581 57.7833 83.8091C57.8395 83.9119 57.8905 84.0152 57.9968 84.0767C58.2635 84.2312 58.6226 84.1122 58.8946 84.0322L58.9939 84.0021L59.4887 84.4041C60.0961 84.452 60.8923 83.5179 61.3783 83.1464C61.8574 83.3869 62.3762 83.6526 62.7861 84.0001C63.8086 84.8663 64.3476 86.0676 64.4322 87.3936C64.5126 88.6525 64.1599 90.2959 63.2852 91.2489C62.2063 92.4247 60.4758 92.6265 58.9713 92.7171C58.7602 92.3068 58.5068 91.9788 58.1198 91.7189C57.0146 90.9766 55.8144 91.2083 54.6032 91.4635C54.6054 90.1935 54.5805 88.9318 54.4118 87.6714C53.914 83.9531 52.5791 80.262 51.4093 76.7097C50.8958 75.1502 50.4636 73.5225 49.8791 71.9925C49.7869 71.7512 49.6478 71.4923 49.3846 71.4048C49.1833 71.3381 49.0692 71.3915 48.8842 71.4701C48.746 71.7043 48.7431 71.852 48.7841 72.1251C48.8928 72.8484 49.1768 73.5725 49.3622 74.2812L52.4655 84.5736C53.0003 86.6699 53.957 90.8366 52.8055 92.7831C52.3076 92.5124 51.8235 92.2167 51.2806 92.0417C50.0636 91.6492 49.1407 92.2056 48.0757 92.722C47.7746 92.5616 47.4601 92.1117 47.2716 91.8259C45.9839 89.8735 44.9547 87.7249 43.8074 85.6876C42.5886 83.5229 41.2228 81.4559 40.1641 79.2024C38.9179 76.5497 37.8102 73.8195 36.8792 71.0404L36.097 68.5649C35.9548 68.0807 35.7997 67.1281 35.4333 66.7653C35.261 66.5947 35.1192 66.604 34.8973 66.5947C34.6981 66.6858 34.6257 66.7387 34.4986 66.917C34.4266 67.2046 34.5156 67.4954 34.5805 67.7787C34.7396 68.4743 34.9739 69.1639 35.1839 69.8459C36.4052 73.8104 37.983 77.7686 39.91 81.4475L44.8924 90.2071L46.0897 92.1425C45.1629 92.6805 44.6826 93.5247 44.3641 94.5194C44.3264 94.637 44.2636 94.9937 44.1989 95.0765C44.1805 95.1002 43.2096 95.2841 43.0824 95.3139L35.1276 97.105C33.5496 97.4303 31.8343 97.6226 30.3107 98.1213C29.9763 98.2309 29.6767 98.3796 29.4267 98.6323C29.218 98.8432 29.1868 99.004 29.1978 99.2925L29.36 99.5552C29.5819 100.043 28.3301 101.709 28.127 102.25C27.9773 102.648 28.0388 102.905 28.2008 103.284L28.2429 103.381C27.6722 103.126 27.0828 102.884 26.5487 102.557C24.0327 101.021 22.3527 98.7987 20.8395 96.3216C22.0977 96.1243 23.3163 95.8438 24.3483 95.0563C25.7408 93.9937 26.5185 92.387 26.7392 90.6731C27.0424 88.3213 26.4809 85.5193 24.9899 83.632C23.9512 82.317 22.3529 81.3352 20.6736 81.1487C18.9951 80.9622 17.3665 81.3959 16.0535 82.4714C14.5395 83.7113 13.5462 85.8779 13.3756 87.8116C13.1838 89.9869 13.7606 92.1 15.1839 93.7828C16.1992 94.983 17.8836 96.2186 19.5062 96.35C19.6306 96.3602 19.5892 96.3252 19.6273 96.44C19.9678 97.4662 20.5407 98.3594 21.1957 99.2125C22.2745 100.617 23.5192 102.023 25.0156 102.991C26.529 103.971 28.1835 104.343 29.8185 105.026C34.2795 106.888 38.6511 108.873 43.2676 110.332L45.7256 111.088C46.407 111.28 47.0952 111.455 47.7638 111.689C48.0291 111.782 48.3535 111.87 48.5745 112.046C49.2705 112.601 49.8848 114.789 50.2005 115.648C50.7224 117.067 51.2941 118.471 51.7207 119.923C51.9653 120.756 52.1625 121.607 52.2989 122.465L50.1325 122.918C49.6655 123.026 49.0508 123.239 48.5776 123.171C48.4015 123.146 48.3071 123.118 48.1886 122.979C47.9844 122.739 47.8736 122.072 47.7957 121.757L47.031 118.672L46.1409 115.709C45.9903 115.214 45.8494 114.441 45.5235 114.047C45.3609 113.851 45.1177 113.769 44.8783 113.712C43.8307 113.463 42.708 113.347 41.6381 113.225L37.3923 112.766L29.1081 111.9L29.1032 114.448C28.946 114.277 28.8226 114.078 28.681 113.894C26.7162 111.344 23.4199 110.123 20.332 109.741L20.2945 105.583C20.4737 105.398 20.752 105.156 20.8284 104.912C20.8915 104.71 20.6257 104.485 20.4733 104.392C19.9625 104.078 19.2904 103.906 18.7341 103.676C17.9214 103.341 17.1388 102.932 16.3819 102.486C14.9575 101.646 13.6805 100.602 12.4811 99.4699C10.5541 97.6505 8.93757 95.6766 7.74924 93.2915C6.06246 89.9062 5.12266 85.9904 5.07805 82.2027C5.02544 77.7362 6.08463 73.1588 7.51715 68.9625C8.88944 64.9424 10.73 60.9726 12.9829 57.3684C14.6469 54.706 16.6744 52.1935 18.8341 49.921C21.6079 47.0025 24.7654 44.297 28.4013 42.5098Z" fill="#FFFEFE"/>
<path d="M140 123.04V140H0V0H140V118.796L127.903 121.925L115.596 125.239L101.711 128.765L94.2252 130.82L87.1752 132.653L84.5535 133.368C84.2204 133.467 83.6225 133.766 83.2911 133.767C83.0326 133.768 82.4374 133.458 82.1655 133.363L78.2739 132.058L59.4853 126.228L53.0362 124.295L51.6662 123.892C51.4254 123.827 51.1186 123.797 50.9022 123.679C51.6686 123.538 52.4453 123.314 53.1503 122.978C53.1049 121.209 52.4754 119.361 51.9052 117.699L51.4302 116.348C51.3866 116.228 51.2606 115.992 51.2787 115.869C53.0826 116.47 54.9509 116.882 56.7961 117.34C58.3024 117.713 59.807 118.166 61.347 118.369C61.419 118.697 61.3804 119.087 61.3807 119.425L61.3891 121.598C62.5749 122.007 63.8455 122.176 65.0712 122.433L75.5371 124.282L80.6654 125.034C81.0389 125.09 81.8025 125.101 82.1141 125.286C82.2395 125.36 82.4021 125.63 82.5262 125.674C82.6186 125.706 82.9603 125.656 83.0711 125.648C84.0792 125.575 85.1372 125.279 86.134 125.078C92.1077 123.876 97.9778 122.58 103.795 120.751C105.313 120.273 106.99 119.843 108.431 119.171C108.649 119.07 108.977 118.89 109.071 118.649C109.135 118.484 109.096 118.223 109.085 118.043L108.975 116.58L108.912 114.019C108.905 113.717 108.951 113.256 108.794 112.999C108.56 112.918 108.385 112.94 108.145 112.992C107.549 113.12 106.96 113.323 106.367 113.475L101.897 114.554L87.4392 117.799L84.4182 118.567C83.5828 118.797 82.502 119.26 81.6379 119.222C79.6909 119.136 77.6836 118.643 75.7616 118.306L65.3516 116.436C64.8355 116.338 61.884 115.6 61.5326 115.698C61.2356 116.137 61.368 117.019 61.3846 117.555L54.9088 115.834C53.5712 115.485 52.1351 115.206 50.8563 114.681C50.4082 113.41 50.1146 111.709 48.7738 111.075C47.685 110.56 46.3885 110.325 45.2286 109.986L41.4109 108.784C40.6511 108.556 39.7562 108.372 39.0476 108.022C40.2861 108.154 41.5239 108.423 42.7474 108.655L46.9966 109.396L66.7126 112.417L74.2726 113.482C75.8589 113.687 77.4691 113.921 79.0702 113.965C81.5212 114.033 84.0318 113.654 86.469 113.396C87.6154 113.274 88.7912 113.241 89.9247 113.031C92.1505 112.62 94.3872 111.776 96.5629 111.137L110.026 107.274L121.485 103.901C123.351 103.281 125.63 102.75 127.173 101.494C127.746 101.029 128.195 100.372 128.432 99.6753C128.802 98.5896 128.858 97.2658 129.018 96.1223L130.161 86.6712L132.983 60.2336L133.988 51.5279C134.144 50.1432 134.431 48.6694 134.408 47.2796C134.397 46.5549 134.088 45.9151 133.633 45.3624C133.34 45.0078 132.897 44.5712 132.423 44.5189C131.603 44.4285 130.633 44.6236 129.815 44.7165L126.034 45.1198L107.427 47.0327L98.2449 47.9433L94.9853 48.1883C94.4042 48.2258 93.7875 48.2154 93.2133 48.3064C92.6693 48.3924 92.2367 48.6024 91.8202 48.9678C91.1982 49.5132 90.7182 50.2775 90.4847 51.0707C90.2069 52.0144 90.1772 53.1554 90.0848 54.1346L89.6128 59.4439L88.2804 72.1861L88.1244 73.4798C88.1197 73.5205 88.0971 73.7997 88.0858 73.815C88.0741 73.8305 86.9634 73.9302 86.0304 74.0509C84.5254 74.2454 83.02 74.4425 81.5351 74.7617C81.1155 68.3762 80.3795 61.8352 78.6768 55.6555C78.4336 54.773 78.1933 53.6317 77.7101 52.856C80.1524 50.9476 82.1906 48.4347 83.4171 45.5737C84.1009 45.78 84.8457 46.0775 85.5517 46.1596C85.7331 46.0553 85.8554 45.9764 85.9265 45.7665C85.9617 45.6628 85.9628 45.5339 85.9682 45.4249C85.6235 44.92 84.6005 44.7286 84.0309 44.5805C84.779 42.5186 85.084 40.61 84.9538 38.4151L86.7481 38.1415C87.1356 38.0769 87.5219 38.0372 87.8566 37.8184C87.99 37.6124 87.9786 37.5616 87.982 37.3242C87.8515 37.1306 87.785 36.9968 87.5343 36.944C87.2622 36.8866 86.8431 37.0052 86.5667 37.0539L84.7256 37.349L84.3637 35.7419C84.2912 35.459 84.1419 35.0919 84.1417 34.8042C84.5914 34.58 85.8055 34.1015 85.9309 33.5986C85.9728 33.4309 85.8797 33.1873 85.757 33.0736C85.5997 32.9281 85.4617 32.9387 85.2682 32.9835C84.7589 33.1011 84.2562 33.4854 83.8281 33.7768L81.4797 25.9009L81.5488 25.8061C82.4141 24.6076 82.8655 23.1303 83.2999 21.7334C83.8283 20.0337 84.2954 18.3508 84.6007 16.5946C84.9232 14.7397 85.0593 12.8399 85.123 10.961C85.17 9.57181 85.19 8.09217 84.9618 6.71643C84.8606 6.10708 84.7318 5.46261 84.1849 5.09183C83.7558 4.80074 83.3002 4.82123 82.811 4.93291C80.1655 5.53666 77.7048 7.21598 75.6024 8.87455C74.8031 9.50511 73.9817 10.1427 73.2405 10.8401L73.187 10.7932C72.226 9.96587 71.0954 9.27617 69.9991 8.64428C65.3622 5.97142 60.2921 4.72342 54.94 5.15255C52.2093 5.37152 49.4747 5.91307 46.9494 6.99707C46.2487 7.29783 45.5533 7.59552 44.9336 8.04895C42.8411 6.55392 40.7316 5.35269 38.3068 4.47473C37.3581 4.13124 36.1583 3.74466 35.1329 3.91078C34.2583 4.05247 33.534 4.77876 33.0488 5.48097C32.0704 6.89672 31.4326 8.60439 30.9708 10.2533C30.3166 12.5901 29.9298 14.936 29.847 17.3617L29.8448 21.3495C29.8279 22.5493 29.7345 23.7249 29.6022 24.9167L28.3502 33.034C28.0795 35.0826 28.0082 37.1029 27.9858 39.1661C27.4517 39.1131 25.9069 38.6947 25.5363 39.0234C25.4075 39.1377 25.3369 39.2946 25.3258 39.4651C25.3165 39.6056 25.4064 39.7835 25.5163 39.8716C25.7555 40.063 26.1428 40.0725 26.4352 40.104L28.1832 40.3051L28.2913 41.3398C27.1954 41.8478 26.1117 42.3637 25.0866 43.0068C22.2511 44.7856 19.7473 47.0849 17.4919 49.5451C12.939 54.5111 9.2851 60.3123 6.96322 66.6524C4.85877 72.3988 3.27648 78.8844 3.97582 85.0488C4.28987 87.8169 5.12686 90.6355 6.30939 93.154C8.47994 97.7766 12.2664 101.636 16.7838 103.999C17.1549 104.193 17.5357 104.376 17.9279 104.524C18.1958 104.624 19.0429 104.838 19.2006 105.028L14.0659 105.712C13.8325 104.962 13.6786 104.624 12.9497 104.242C11.1734 103.311 8.84735 103.333 6.90033 103.545C6.01317 103.642 5.13654 103.778 4.28488 104.053C3.46914 104.317 2.61241 104.756 2.19565 105.547C1.9728 105.97 1.91211 106.56 2.06815 107.015L2.10737 107.119L2.03401 107.226C1.90309 107.435 1.86309 107.698 1.84895 107.94L1.80708 110.588L1.76272 117.148L1.72629 119.424C1.71447 119.892 1.64203 120.466 1.77894 120.92C1.9767 121.575 2.63406 122.055 3.22179 122.342C4.44442 122.939 5.86825 123.089 7.20105 123.273L8.35961 123.421C8.4019 123.426 8.66513 123.439 8.69648 123.46C8.76453 123.507 8.96998 124.072 9.02235 124.18C9.24633 124.645 9.55608 125.08 9.94247 125.422C10.4915 125.908 11.1897 126.226 11.8752 126.468C13.8553 127.168 16.115 127.275 18.1913 127.04C18.7458 126.978 19.3787 126.924 19.9101 126.746C20.2129 126.644 20.3593 126.482 20.4872 126.197L20.6188 125.94C22.8554 125.715 25.4676 125.221 27.1496 123.599L33.9746 125.792L47.7457 130.134L54.3508 132.169C55.5983 132.559 56.8785 133.049 58.154 133.323C58.4626 133.389 58.9318 133.43 59.2142 133.253C59.41 133.13 59.4488 132.972 59.4665 132.754L59.4734 129.88L76.057 135.45L80.3515 136.862C81.1855 137.142 82.2561 137.667 83.1342 137.733C83.5064 137.761 83.9723 137.573 84.3331 137.477L86.6438 136.889L105.342 131.981L130.867 125.396L140 123.04Z" fill="#FFFEFE"/>
<path d="M135.697 105.911L136.206 105.881C136.239 105.918 136.292 105.944 136.305 105.992C136.337 106.108 136.304 106.362 136.305 106.491L136.312 107.666L136.434 112.042C135.859 112.321 135.219 112.495 134.61 112.685L131.847 113.534L115.986 117.614C114.211 117.999 112.333 118.542 110.527 118.732C110.242 118.654 110.132 118.602 109.96 118.365C109.728 117.36 109.828 116.159 109.787 115.121L109.69 113.102C109.671 112.697 109.596 112.227 109.727 111.841C109.87 111.731 109.983 111.684 110.16 111.638L116.587 110.197L123.507 108.651L133.12 106.436L135.697 105.911Z" fill="#2E2D2D"/>
<path d="M135.062 106.948L135.248 106.924C135.373 107.039 135.347 106.971 135.352 107.117L135.535 111.546L110.982 117.731C110.933 117.738 110.87 117.72 110.821 117.713C110.691 117.055 110.756 116.302 110.732 115.629L110.562 112.507C111.108 112.307 111.785 112.232 112.356 112.104L117.442 110.998L128.43 108.509L135.062 106.948Z" fill="#FFFEFE"/>
</g>
<defs>
<clipPath id="clip0_2658_464">
<rect width="140" height="140" fill="white"/>
</clipPath>
</defs>
</svg>
