<svg width="140" height="140" viewBox="0 0 140 140" fill="none" xmlns="http://www.w3.org/2000/svg">
<path d="M96.6543 15.8101C97.5326 15.6757 98.4876 15.9189 99.2237 16.409C99.9017 16.8602 100.379 17.4577 100.67 18.2185C101.272 19.79 101.252 21.6732 101.253 23.3377C101.254 28.0852 100.696 32.7575 99.6703 37.3933L99.1045 39.6352C98.9474 40.1884 98.4195 41.2893 98.544 41.8289L99.4326 46.3827C101.944 46.0912 104.374 46.1299 106.88 46.4795C107.464 46.561 108.271 46.6315 108.784 46.9409C109.064 47.1093 109.157 47.3053 109.23 47.6132C109.202 47.7734 109.174 47.9223 109.07 48.0529C108.915 48.2461 108.756 48.2831 108.518 48.2818C107.602 48.2767 106.601 47.9922 105.677 47.8992C103.682 47.6981 101.729 47.7468 99.7371 47.9355C99.8107 48.6238 99.9217 49.3247 99.9443 50.016C100.016 52.2128 99.4669 53.9507 98.6375 55.9587L103.492 57.2043C104.11 57.3913 105.116 57.6332 105.513 58.1824C105.625 58.3367 105.652 58.537 105.613 58.7215C105.574 58.9091 105.46 59.083 105.3 59.1883C105.133 59.2981 104.926 59.3504 104.727 59.3294C104.053 59.2585 103.297 58.8706 102.651 58.6599L99.7391 57.8505L98.2461 57.5579C98.1923 57.5495 98.0031 57.503 97.9661 57.518C97.9502 57.5244 97.8175 57.7929 97.7978 57.8288C97.2645 58.7924 96.6984 59.7006 96.0108 60.5628C94.5219 62.4293 92.7491 63.9106 90.7293 65.1691C92.6523 68.5541 94.5839 72.0441 95.8626 75.7315C96.1809 76.6493 96.5245 77.6087 96.6864 78.5676L96.6964 78.6316C97.1955 78.1445 97.654 77.6182 98.1786 77.1566C99.2312 76.2304 100.458 75.524 101.835 75.2286C102.541 75.0771 103.617 75.0041 104.238 75.4116C104.328 75.5838 104.321 75.5756 104.271 75.7647C103.952 76.0252 103.504 76.0773 103.111 76.165C102.528 76.2953 101.974 76.4242 101.423 76.6652C99.3012 77.5943 97.2863 79.726 96.4491 81.8864C96.1191 82.7375 95.8553 83.5977 96.2646 84.4713C96.9846 86.008 98.6364 87.1368 100.193 87.6924C101.839 88.2797 103.819 88.3011 105.413 87.5425C106.969 86.8015 108.059 85.4148 108.623 83.809C108.909 82.9944 109.283 81.5825 109.036 80.729C108.782 79.8515 107.511 79.0494 106.827 78.4403C105.979 77.6844 104.973 76.7735 104.48 75.7453C104.651 74.2075 105.713 72.6385 106.498 71.3315C108.521 67.9651 110.851 64.7934 113.167 61.6258L117.8 55.4594C118.758 54.3084 119.76 53.0887 121.371 52.9824C123.187 52.8626 125.512 53.6459 126.877 54.8507C127.57 55.4627 127.973 56.1648 128.019 57.1018C128.076 58.259 127.588 59.4545 126.989 60.4181C126.04 61.946 124.789 63.285 123.64 64.6638L117.289 72.2885L114.687 75.699C113.918 76.7935 113.2 77.9852 112.308 78.9839C111.959 79.3751 111.51 79.8894 110.979 80.0164C110.666 80.0912 110.311 80.0895 109.991 80.1063C110.34 82.4072 110.286 84.4948 108.971 86.5131C107.889 88.1751 106.468 89.0503 104.557 89.4466C104.506 89.9849 104.422 90.387 104.095 90.8369C103.429 91.7542 102.313 92.3674 101.204 92.5406C99.1293 92.8647 97.1527 92.3417 95.4787 91.1102L95.0332 91.6064L95.3956 91.9026C95.5035 92.0039 95.6687 92.1762 95.7398 92.2989C95.8347 92.4635 95.8364 92.8804 95.8484 93.0722L95.9144 96.0412C98.9709 95.7114 101.979 93.7408 105 95.4312C106.14 96.0689 106.885 97.2073 107.222 98.4507C107.501 99.4836 107.492 100.684 107.114 101.695C106.889 102.299 106.527 102.87 106.212 103.431L119.315 102.763C123.35 102.896 132.016 103.373 134.818 106.432C135.203 106.852 135.544 107.387 135.686 107.944C135.886 108.728 135.801 109.651 135.794 110.458L135.74 113.772C135.617 116.37 134.634 118.659 132.674 120.412C129.715 123.058 125.693 123.69 121.878 124.014C119.353 124.229 116.872 124.266 114.342 124.115C109.969 123.852 104.866 123.227 101.802 119.733C99.7083 117.346 99.6228 114.687 99.6195 111.679C99.6182 110.497 99.5881 109.293 99.674 108.113C99.8171 106.143 101.048 104.646 102.805 103.82C103.346 103.566 104.036 103.376 104.474 102.969C105.259 102.242 105.813 100.848 105.828 99.8028C105.841 98.8523 105.442 97.8149 104.755 97.1475C104.089 96.5013 103.231 96.2056 102.318 96.2473C101.271 96.2951 100.278 96.5543 99.2925 96.8985C98.3252 97.2361 97.4482 97.632 96.4168 97.721C96.2843 97.7325 95.9228 97.7334 95.9042 97.7616C95.8351 97.8661 95.8975 98.9374 95.8954 99.1261C95.8422 104.168 95.1058 109.221 91.5675 113.086C93.3419 115.313 95.2357 117.615 96.3267 120.277C96.6146 120.98 97.0669 122.419 96.6622 123.136C96.5563 123.323 96.4055 123.456 96.1993 123.523C95.7961 123.653 95.3004 123.633 94.8799 123.64L92.7084 123.671L86.2427 123.767L68.1204 124.182L57.4558 124.295L41.5667 124.575C41.327 124.577 40.7566 124.63 40.5644 124.515C40.4013 124.417 40.3099 124.24 40.2633 124.061C40.1163 123.496 40.2961 122.838 40.462 122.296C40.9877 120.577 41.9391 118.99 42.8048 117.425L45.1091 113.435L44.9416 113.311C42.1145 110.935 40.7633 107.183 40.5331 103.588L36.8659 103.921L36.7523 108.639C36.573 110.815 35.8835 113.019 34.4957 114.734C33.9596 115.397 33.2924 115.973 32.6444 116.524C32.9029 116.915 33.2456 117.238 33.5378 117.603C34.3268 118.59 34.9888 119.754 35.3563 120.966C35.5973 121.761 35.6546 122.725 35.2229 123.462C34.8523 124.095 34.3054 124.382 33.6127 124.547C31.7459 124.993 29.5988 125.033 27.6857 125.124C23.1645 125.339 18.6736 125.375 14.1568 125.045C13.2735 124.98 12.3827 124.93 11.5069 124.796C10.9893 124.717 10.4038 124.613 9.96212 124.32C9.54838 124.046 9.35877 123.522 9.29579 123.048C9.23585 122.597 9.32385 122.117 9.41375 121.674C9.80801 119.732 10.8516 118.314 12.0192 116.769C11.2441 116.289 10.5095 115.812 9.83663 115.189C8.62554 114.069 7.81285 112.638 7.23894 111.107C6.54164 109.043 6.55584 107.02 6.56018 104.87C6.56149 104.213 6.50478 103.485 6.64009 102.84C6.80093 102.075 7.28739 101.324 7.94018 100.897C8.88031 100.282 10.1679 100.053 11.2486 99.8162C15.6672 98.8501 20.3147 98.7057 24.8146 99.0375C27.2023 99.2136 29.5952 99.4905 31.9442 99.965C33.6448 100.308 35.811 100.736 36.8231 102.28L36.8827 102.372L40.441 102.095C40.4817 101.383 40.4199 100.643 40.4139 99.9265L40.4137 95.818C40.4175 94.9456 40.3557 93.9286 40.5969 93.0853C40.7511 92.5457 41.1011 92.0393 41.452 91.6087C41.7887 91.1958 42.206 90.7968 42.6692 90.5283C43.9439 89.7895 45.5011 89.4787 46.9288 89.1742C47.884 88.9706 48.835 88.7519 49.8077 88.6505C47.6764 86.7656 45.6064 84.618 43.9607 82.2903L43.9122 82.2207L42.4544 82.6132C39.8828 83.2193 37.2037 82.7844 34.9659 81.369C32.9423 80.0892 31.3204 77.7868 30.7983 75.4511C30.3524 73.4569 30.7939 71.4473 31.8751 69.7412C31.1983 69.0534 30.5889 68.191 29.9951 67.4274L25.8701 61.8399L18.7323 51.8855C17.1453 49.6753 15.5992 47.3709 13.8774 45.2663C12.8314 45.4142 11.7221 45.3117 10.7141 44.9995C8.55667 44.3308 6.95573 42.7916 5.912 40.8177C4.94405 38.9873 4.69112 36.8848 5.30812 34.8936C6.15631 32.1565 8.18367 29.7936 10.7172 28.4796C12.9776 27.3075 15.5827 27.2216 17.9787 28.002C20.0845 28.6882 21.9648 30.0929 22.9638 32.0974C23.8804 33.9365 24.1141 36.0907 23.446 38.0534C22.7106 40.2136 21.0598 42.2434 19.0017 43.2431C19.5214 44.1948 19.9035 45.2485 20.4699 46.1641C22.241 49.0283 24.4225 51.6801 26.4425 54.37C30.0874 59.2239 33.7762 64.1461 37.8457 68.6536C38.2907 68.485 38.7809 68.3676 39.2503 68.288C40.307 68.109 41.5005 68.2807 42.376 68.924C42.7585 69.2053 43.1384 69.5883 43.223 70.0691C43.1058 70.2562 43.0224 70.3273 42.8356 70.4452C42.4234 70.5263 41.82 69.9886 41.4562 69.7992C40.5909 69.3485 39.5961 69.4758 38.6985 69.7485C40.1654 71.5484 42.5944 72.6491 43.013 75.1374C43.1462 75.9286 42.8945 76.7866 42.4218 77.4288C41.7803 78.3007 40.7979 78.8171 39.7363 78.9601C38.4334 79.1356 36.9523 78.6174 35.9282 77.8233C35.3644 77.3862 34.8437 76.7181 34.7945 75.9821C34.7821 75.7975 34.8498 75.6287 34.987 75.5038C35.1644 75.3423 35.389 75.3301 35.6154 75.3305C35.7512 75.4223 35.768 75.4318 35.8347 75.5785C36.2328 76.4543 36.7573 76.9313 37.6574 77.2616C38.5444 77.587 39.6121 77.6432 40.4756 77.2159C41.289 76.8136 41.6142 76.1575 41.8685 75.3379C41.7584 74.7849 41.5643 74.3638 41.2221 73.9155C40.8947 73.4864 40.4764 73.1147 40.0914 72.7383L38.0752 70.7276L34.051 66.0471L26.7234 56.6324L21.1389 49.1925L19.2988 46.5834C18.7102 45.6944 18.1947 44.5208 17.4016 43.8093C17.2122 43.6392 16.8593 43.6241 16.6196 43.6409C15.9212 43.6895 15.4101 44.099 14.9676 44.6026C15.7206 46.0309 16.8484 47.3755 17.8065 48.6825L22.0317 54.4899L28.3213 63.2846C30.0225 65.6159 31.7397 67.9017 33.7866 69.9466C34.7065 70.8659 35.6302 71.8098 36.6244 72.6486C37.2086 73.1415 37.8991 73.5349 38.4415 74.0739C38.5886 74.2199 38.7269 74.4071 38.7656 74.615C38.8077 74.8426 38.821 75.0628 38.6956 75.2648C38.5547 75.3494 38.5012 75.3981 38.337 75.3994C37.2309 75.4074 33.7442 71.5847 32.9051 70.7702C32.2866 71.7991 31.9728 73.0389 32.1046 74.2403C32.2727 75.7745 32.7609 77.2609 33.7916 78.4431C35.2324 80.0961 37.2504 81.2238 39.4674 81.3426C41.2482 81.438 43.5024 81.0462 44.8512 79.7973C45.9962 78.7371 46.7319 77.3502 46.7735 75.7736C46.8229 73.8965 46.3199 72.5315 44.9888 71.1939L43.5177 69.8068C43.795 69.4331 44.0513 69.1626 44.4649 68.9315C45.2007 68.5206 46.0849 68.3407 46.8865 68.0845C48.0081 67.7263 49.1507 67.3215 50.2109 66.8109C51.5047 66.1876 52.6341 65.372 53.7527 64.4788C51.139 62.8345 48.2209 60.2374 46.8693 57.4154L46.8325 57.3362C46.5828 57.3078 46.1039 57.5351 45.8527 57.6139L43.0666 58.5106C42.2058 58.8294 41.3297 59.2463 40.4474 59.4875C40.2126 59.5516 39.9224 59.5865 39.6861 59.5068C39.4792 59.437 39.2691 59.2536 39.1934 59.0489C39.1369 58.8954 39.1394 58.6298 39.2125 58.4809C39.6856 57.5196 45.2761 56.0217 46.4415 55.6934C46.1963 54.687 45.9686 53.6589 45.8965 52.6231C45.7676 50.7739 46.0995 49.0285 46.523 47.2406C45.4611 46.5697 44.1871 46.1372 42.9902 45.7806C42.1031 45.5163 41.2048 45.2601 40.2848 45.1398C39.7361 45.0682 38.8757 45.2015 38.3831 44.994C38.1726 44.9052 38.0205 44.7293 37.9416 44.5179C37.8576 44.2924 37.866 44.0833 37.969 43.8647C38.1017 43.5832 38.3893 43.4536 38.6755 43.3749C39.3044 43.2015 40.0389 43.33 40.6698 43.436C42.1795 43.6892 43.7162 44.0845 45.1297 44.6779C45.6983 44.9167 46.2412 45.2277 46.7833 45.521L47.095 43.6707C47.1191 43.5056 47.2057 43.1953 47.1827 43.0367C47.1606 42.8851 46.838 42.5383 46.7427 42.3874C46.5915 42.1484 46.4623 41.8755 46.3484 41.6172C45.9686 40.7575 45.771 39.7535 45.5877 38.8347C44.5927 33.8518 43.743 22.0364 46.6508 17.7835C47.1902 16.9944 48.0424 16.3635 48.9961 16.2003C49.6517 16.0882 50.3092 16.2251 50.9248 16.4569C52.8748 17.1911 54.7063 18.5675 56.4052 19.7632L61.3202 23.3995C62.5853 24.4211 63.7995 25.5881 65.1308 26.5149C66.0237 26.2763 66.9202 26.0189 67.8296 25.8521C70.5359 25.3555 73.4489 25.2786 76.1808 25.6169L78.34 25.9724L79.4925 26.2092C79.5694 26.2231 79.7271 26.2748 79.7962 26.2624C80.0559 26.2158 80.4883 25.8169 80.7 25.6559L83.0479 23.8589L86.8439 21.2669L91.4111 18.2223C93.0402 17.201 94.7532 16.2049 96.6543 15.8101Z" fill="black"/>
<path d="M97.5391 88.0195C99.2523 89.0982 101.018 89.5003 103.017 89.6146C102.616 90.2165 102.326 90.4847 101.678 90.8017C100.817 91.1334 99.8816 91.2275 98.9674 91.0895L98.8472 91.07C97.8574 90.9147 97.0883 90.4276 96.3066 89.8275L97.4857 88.114L97.5391 88.0195Z" fill="white"/>
<path d="M53.7505 79.5352L53.8742 79.6037L53.86 85.9197L51.8359 83.5392L49.2588 80.3305C50.8872 80.3199 52.2054 80.0354 53.7505 79.5352Z" fill="white"/>
<path d="M46.9842 79.502C48.9143 82.6002 51.4733 85.2405 53.8243 88.0044C53.3106 88.2771 52.4033 88.3156 51.8151 88.4027C51.1765 87.7106 50.3453 87.1879 49.6256 86.5809C48.5466 85.6713 47.6038 84.6814 46.6837 83.6139C46.076 82.909 45.4536 82.1753 44.9795 81.3726C45.7473 80.8372 46.3509 80.1841 46.9842 79.502Z" fill="white"/>
<path d="M20.3717 100.317C23.8402 100.268 27.3139 100.601 30.7182 101.257C31.3382 101.377 32.446 101.498 32.9154 101.941L32.8472 102.043C31.9222 102.452 30.8454 102.489 29.8485 102.583L22.8919 102.895C20.992 102.91 11.4961 103.015 10.3184 101.89L10.3841 101.777C11.2725 101.244 12.4417 101.079 13.4536 100.912C15.7527 100.533 18.044 100.36 20.3717 100.317Z" fill="white"/>
<path d="M62.9031 89.5877L72.9455 89.5742L68.7909 94.3359L68.1121 95.096L65.0264 95.0887C64.3844 94.0338 63.487 93.3748 62.5616 92.5815L60.4181 90.6594C60.1082 90.3727 59.6621 90.0434 59.4297 89.6974L62.9031 89.5877Z" fill="white"/>
<path d="M55.5094 89.8526C55.7894 89.7931 56.2842 89.7696 56.5689 89.8011C57.1546 89.866 62.6487 94.68 63.2138 95.3375C62.2152 95.3753 61.1969 95.3051 60.1985 95.2566L53.0303 94.5961C51.2438 94.3211 49.4537 93.9829 47.7048 93.5252C46.535 93.2189 45.3727 92.9014 44.3428 92.2515C45.4289 91.4389 46.8881 91.0987 48.1922 90.8258C50.6005 90.3221 53.0649 90.1043 55.5094 89.8526Z" fill="white"/>
<path d="M74.7794 89.8555C75.9038 89.9862 77.0857 89.941 78.2194 90.0093C81.5984 90.2133 84.9877 90.5465 88.2896 91.3193C89.4191 91.5834 90.6419 91.8636 91.6299 92.4867L91.0974 92.7619C89.4227 93.4891 87.5256 93.8061 85.7388 94.1368C81.7746 94.7874 77.8577 95.1742 73.8391 95.2371C72.5769 95.2568 71.3142 95.3049 70.0527 95.2376C70.4895 94.6147 71.0767 94.0533 71.5884 93.4882L74.7794 89.8555Z" fill="white"/>
<path d="M30.6613 117.195L31.1719 117.162L31.3194 117.304L32.2361 118.358C33.2302 119.429 34.2426 120.5 34.1865 122.065C34.1748 122.394 34.0645 122.689 33.814 122.91C32.9563 123.669 29.7794 123.65 28.6362 123.697C23.7302 123.899 18.7957 123.834 13.8939 123.552C13.1258 123.525 12.3292 123.509 11.572 123.372C11.3281 123.328 11.0652 123.286 10.8624 123.134C10.6649 122.987 10.6546 122.88 10.6319 122.642C10.4722 120.97 11.8469 119.299 12.835 118.096C12.9449 117.963 13.558 117.214 13.6565 117.199C13.744 117.186 14.0208 117.276 14.1201 117.296L15.1959 117.479C16.4421 117.648 17.6992 117.693 18.9547 117.729C22.8882 117.845 26.7526 117.587 30.6613 117.195Z" fill="white"/>
<path d="M97.1108 17.1855C97.358 17.1994 97.6342 17.1992 97.8728 17.267C98.4246 17.4236 98.8307 17.8372 99.1034 18.3278C99.8886 19.7405 99.8667 21.7018 99.8749 23.2746C99.8915 26.4933 99.5982 29.772 99.0099 32.9373C98.6085 35.0968 98.0491 37.2396 97.4185 39.3429C96.4332 37.6148 95.1063 35.881 93.7437 34.434L92.6478 33.2246C92.796 31.8512 92.7537 30.3464 92.3289 29.0288C91.7418 27.207 90.4098 25.5923 88.7456 24.6584C87.9332 24.2023 87.0496 23.8619 86.2207 23.4323C87.5472 22.4313 89.0528 21.5612 90.4491 20.6545C92.0307 19.6277 93.5847 18.4331 95.3114 17.6617C95.9002 17.3986 96.471 17.2508 97.1108 17.1855Z" fill="white"/>
<path d="M14.8813 28.8095C15.8497 28.7616 16.8678 28.9109 17.7746 29.259C19.6145 29.9654 21.127 31.3709 21.9067 33.1874C22.5551 34.6983 22.5332 36.4621 21.9149 37.9788C21.2241 39.6723 19.8037 41.361 17.921 41.6828C17.3282 41.7841 16.5865 41.7019 16.0305 41.9044C15.4792 42.1051 15.107 42.6362 14.6517 42.9854C14.364 43.206 14.0471 43.3442 13.7163 43.4853C13.3882 43.5857 13.0634 43.6668 12.7208 43.6975C11.3173 43.8225 9.90097 43.1329 8.84555 42.2526C7.44925 41.088 6.52494 39.3084 6.38412 37.4988C6.22398 35.4409 7.2192 33.3486 8.53595 31.8237C10.2163 29.8777 12.3554 28.9814 14.8813 28.8095Z" fill="white"/>
<path d="M121.585 54.2867L121.728 54.2663C123.146 54.1108 125.087 55.0995 126.157 55.9745C126.532 56.281 126.843 56.6189 126.871 57.125C126.914 57.9074 126.414 58.7889 125.988 59.4187C125.166 60.6343 124.174 61.7667 123.246 62.9029L116.783 70.6394L114.262 73.8291C113.084 75.4169 111.975 77.0254 110.666 78.5118L110.085 79.1083C109.25 78.7386 108.56 78.1888 107.866 77.604C107.106 76.9631 106.379 76.2878 105.771 75.4976L105.97 75.0238C107.171 72.5507 108.906 70.2945 110.442 68.0222L117.04 58.7578C117.919 57.6146 118.784 56.3621 119.82 55.3578C120.349 54.8452 120.887 54.5178 121.585 54.2867Z" fill="white"/>
<path d="M114.636 104.21C115.659 104.129 116.729 104.166 117.757 104.168C120.374 104.173 122.97 104.353 125.567 104.676C127.215 104.881 128.856 105.131 130.43 105.682C131.169 105.941 131.904 106.245 132.519 106.739C132.954 107.087 133.484 107.736 133.524 108.318C133.544 108.618 133.355 108.919 133.165 109.135C131.252 111.301 123.66 111.688 120.799 111.83C117.729 111.901 114.674 111.928 111.613 111.652C109.305 111.444 106.937 111.08 104.762 110.251C103.971 109.95 103.114 109.601 102.463 109.05C102.158 108.792 101.81 108.463 101.784 108.042C101.745 107.421 101.945 106.955 102.361 106.501C103.349 105.423 105.114 105.116 106.481 104.886C109.174 104.433 111.913 104.34 114.636 104.21Z" fill="white"/>
<path d="M90.4471 114.156C91.8336 115.919 93.2969 117.735 94.3582 119.717C94.7373 120.425 95.1324 121.2 95.0833 122.022C94.8469 122.193 94.5288 122.177 94.2399 122.195L86.5402 122.379L75.0023 122.57L42.7253 122.975L42.554 122.967C42.292 122.939 42.1812 122.951 42.0226 122.739C41.806 121.668 44.0333 118.264 44.639 117.208L46.2953 114.249C47.2584 114.822 48.2792 115.373 49.3214 115.782C51.1694 116.508 53.2007 116.949 55.1532 117.302C57.0551 117.646 59.0011 117.8 60.9273 117.94C64.8087 118.22 68.6766 118.249 72.5654 118.121C76.6759 117.987 80.9005 117.819 84.8898 116.734C86.9282 116.179 88.7101 115.357 90.4471 114.156Z" fill="white"/>
<path d="M101.387 110.564C101.949 110.957 102.708 111.242 103.353 111.462C105.297 112.125 107.34 112.572 109.375 112.836C113.554 113.379 117.842 113.394 122.046 113.157C126.083 112.93 130.509 112.556 134.18 110.745C134.235 112.259 134.3 114.033 133.94 115.505C133.656 116.661 133.14 117.642 132.407 118.575L131.799 119.223C129.125 121.739 125.394 122.295 121.885 122.592C119.946 122.756 117.993 122.82 116.047 122.758C112.573 122.648 108.581 122.368 105.469 120.723C104.597 120.262 103.764 119.709 103.089 118.984C102.574 118.432 102.128 117.824 101.84 117.121C101.039 115.164 101.31 112.633 101.387 110.564Z" fill="white"/>
<path d="M8.1811 103.008C10.1293 103.67 12.1591 103.909 14.1999 104.064L21.8341 104.266C24.7341 104.252 27.6479 104.223 30.533 103.898C32.1055 103.72 33.5915 103.364 35.1339 103.052L35.1853 103.431C35.2491 104.248 35.2119 105.094 35.2112 105.915C35.2103 106.948 35.2409 107.993 35.0878 109.018C34.8612 110.533 34.1466 112.156 33.1728 113.334L32.571 113.972C30.609 115.843 27.9859 116.071 25.4061 116.253L20.1036 116.367C16.6606 116.283 12.8191 116.062 10.3014 113.377C9.16039 112.16 8.41835 110.396 8.18163 108.758C8.06762 107.969 8.0995 107.15 8.10915 106.355L8.1811 103.008Z" fill="white"/>
<path d="M55.0781 65.1094L55.162 65.1497C59.2174 67.0789 63.706 67.9493 68.1554 68.333C71.0139 68.5797 73.8409 68.6451 76.7063 68.4934C78.8519 68.3801 81.0295 68.195 83.1407 67.7865C85.4246 67.3446 87.6072 66.6118 89.7939 65.8349C91.132 68.8628 92.81 71.7639 94.0131 74.8467C94.3937 75.8221 94.7209 76.8036 94.9794 77.8188C95.1714 78.5729 95.2631 79.4464 95.5941 80.147C95.6041 80.1685 95.6265 80.1873 95.6255 80.2108C95.6233 80.2534 95.4975 80.4481 95.4752 80.4899C95.3334 80.7553 95.185 81.0214 95.0682 81.2989C94.7995 81.9367 94.6764 82.5735 94.6695 83.2634C94.6531 84.8786 95.3777 85.9677 96.4778 87.0865L93.3605 90.7504C88.115 88.8399 82.4301 88.2938 76.8888 87.948L79.6614 84.6301L82.6796 81.2911C83.343 80.5447 83.9825 79.7295 84.7025 79.0399C85.1176 78.6422 85.6187 78.354 86.046 77.975C86.2819 77.7659 86.4943 77.5254 86.5036 77.1939C86.5098 76.9771 86.4166 76.7678 86.2591 76.6204C86.0424 76.4175 85.8056 76.3896 85.5174 76.4091C85.2326 76.4282 84.9568 76.5828 84.7417 76.7624C84.0898 77.3074 83.5555 78.0887 82.9421 78.6965L74.2454 88.0732L62.6651 87.9915L58.7651 88.063C58.046 88.0756 57.2981 88.1283 56.5811 88.0641C56.2422 88.0338 55.921 87.9097 55.6585 87.6897C55.5588 87.6062 55.3353 87.4042 55.2788 87.2925C55.1432 87.0243 55.2471 86.1293 55.2473 85.815L55.2462 81.8979C55.2436 81.1618 55.2814 80.392 55.1946 79.6619L55.1782 79.5358C55.1344 79.1783 55.0894 78.8396 54.9255 78.5135C54.8005 78.2652 54.5453 77.9369 54.2516 77.8851C53.6991 77.7878 52.7678 78.185 52.2194 78.316C50.8714 78.638 49.1338 78.7041 47.8103 78.2741C48.1284 76.9687 48.277 75.7031 48.0949 74.3634C47.83 72.4144 46.9317 71.1494 45.3818 69.9793C46.2443 69.8515 47.0959 69.5755 47.9248 69.307C50.3786 68.5126 53.4805 67.2196 55.0781 65.1094Z" fill="white"/>
<path d="M94.1146 93.1396C94.2513 93.1423 94.1926 93.1186 94.2922 93.2078C94.4196 94.3154 94.341 95.5147 94.3459 96.6325C94.3532 98.2538 94.4338 99.9267 94.3102 101.542C93.991 105.716 92.7585 110.099 89.4468 112.916C88.3175 113.876 86.948 114.551 85.5471 115.016C82.1032 116.157 78.2904 116.45 74.6841 116.642C69.8474 116.9 64.9714 116.868 60.1447 116.45C54.8163 115.988 48.1729 115.206 44.5159 110.849C41.8911 107.724 41.909 103.402 41.9194 99.5544L42.0486 93.2845C44.7166 94.5522 47.5854 95.3364 50.5086 95.7648C53.8389 96.2528 57.2105 96.5585 60.574 96.6994L69.5276 96.7515C75.2698 96.6759 80.9757 96.4555 86.6454 95.4678C88.6356 95.1211 90.6607 94.7328 92.529 93.9419C93.0559 93.7187 93.6547 93.4812 94.1146 93.1396Z" fill="white"/>
<path d="M49.1004 17.5783C49.5694 17.5494 49.9662 17.5643 50.4172 17.7239C51.5474 18.124 52.5705 18.8237 53.559 19.4863L58.0576 22.74L61.6194 25.4627C62.4443 26.1549 63.3044 27.3575 64.3055 27.75C65.1705 28.089 66.2163 27.7058 67.0698 27.5062L68.7361 27.2C70.8259 26.909 72.9159 26.7958 75.0213 26.9488L77.3377 27.2332C78.1495 27.3704 79.4237 27.8431 80.2187 27.6756C81.055 27.4993 81.9049 26.5534 82.5936 26.0628C83.2841 25.571 84.0204 25.0852 84.7909 24.7292C86.5261 25.0362 88.282 25.5798 89.5458 26.8715C90.4296 27.7749 91.1892 29.1151 91.3663 30.3804C91.4438 30.9333 91.3973 31.5418 91.3919 32.1009C89.9168 30.7388 88.0661 29.7537 86.4149 28.6322C85.9018 28.2837 85.3841 27.7405 84.7995 27.5301C84.6389 27.4723 84.4752 27.4468 84.3208 27.5372C84.1635 27.6293 84.065 27.7922 84.0103 27.9594C84.0719 28.2567 84.1813 28.3898 84.4061 28.5914C85.0388 29.1591 85.8201 29.6281 86.5077 30.1301C88.1367 31.3192 89.793 32.5238 91.2931 33.8755C92.3522 34.83 93.2689 35.9281 94.1543 37.0421C95.9548 39.308 97.3257 41.6249 97.9261 44.4801C98.1075 45.3427 98.1795 46.2267 98.2758 47.1019C98.3594 47.8642 98.4755 48.6242 98.5138 49.3907C98.7209 53.5377 97.0457 57.2606 94.2879 60.2941C93.1395 61.5576 91.8097 62.7419 90.3544 63.6366C85.9953 66.3171 80.6037 66.888 75.5998 67.1257C70.7916 67.2362 65.8499 66.8703 61.1746 65.6967C59.1136 65.1794 57.066 64.5156 55.1709 63.5433C53.0958 62.4785 51.1641 60.9588 49.6935 59.1457C49.0974 58.4109 48.54 57.5962 48.2507 56.6893C49.1111 56.4691 50.6287 56.6118 51.2849 56.0026C51.4357 55.8626 51.5059 55.68 51.4929 55.474C51.482 55.2973 51.4208 55.132 51.2806 55.0172C51.1679 54.9251 51.0257 54.8748 50.8817 54.8648C50.5407 54.8409 50.152 54.9417 49.8155 55.0002L47.7458 55.3817C47.198 53.2203 47.0623 51.0301 47.5168 48.84C47.6298 48.2948 47.8748 47.7696 47.9654 47.2249C48.1009 46.4092 47.9955 45.5208 48.112 44.6825C48.3384 43.0533 48.7566 41.3168 49.3988 39.7998C50.8367 36.4039 53.4817 33.3775 56.4392 31.2119C57.2944 30.5857 58.2104 30.0439 59.1069 29.4797C59.5154 29.2227 59.9655 28.9859 60.3434 28.6853C60.5193 28.5455 60.6316 28.3626 60.6212 28.1302C60.6146 27.9826 60.5716 27.8633 60.4613 27.7653C59.8908 27.257 58.5336 27.1901 57.805 27.1941C56.8394 27.1996 55.0135 27.6468 54.352 28.4037C54.1785 28.6024 54.1464 28.6798 54.1745 28.9349C54.298 29.0561 54.391 29.1941 54.5846 29.1875C54.8934 29.1768 55.4432 28.8732 55.7465 28.7673C56.7739 28.4086 57.8186 28.3273 58.8947 28.4069C57.2267 29.2085 55.6308 30.0541 54.1874 31.2274C53.0153 32.18 52.0079 33.3109 51.0449 34.468C50.1155 35.5845 49.2451 36.7652 48.5737 38.0569C48.1521 38.8681 47.8353 39.7283 47.4949 40.5755C46.7481 37.7685 46.2307 34.8768 46.0506 31.9753C45.9651 30.5963 45.9945 29.2005 46.003 27.8185C46.0178 25.3849 46.1478 22.709 46.9238 20.3892C47.3462 19.1261 47.8686 18.1947 49.1004 17.5783Z" fill="white"/>
<path d="M65.167 51.0993C65.3322 51.0699 65.4649 51.0537 65.6273 51.1085C65.8352 51.1787 66.0043 51.3876 66.1009 51.5779C66.2296 51.8315 66.3521 52.333 66.222 52.6035C66.0956 52.8655 65.9401 52.9327 65.68 53.0133C65.5395 53.0381 65.4046 53.0239 65.2662 52.992C65.0385 52.9397 64.8892 52.8026 64.77 52.6064C64.6102 52.3439 64.5556 51.9748 64.64 51.6775C64.7217 51.3896 64.9106 51.2289 65.167 51.0993Z" fill="black"/>
<path d="M76.7771 50.961C76.9262 50.9356 77.0835 50.9107 77.2323 50.9508C77.4818 51.018 77.7009 51.2091 77.8191 51.4369C77.9643 51.7168 77.9518 52.0759 77.8603 52.3706C77.7511 52.7226 77.5666 52.9075 77.2496 53.0803C77.1315 53.1138 76.9933 53.1406 76.8704 53.1324C76.6363 53.1169 76.2896 52.8626 76.1689 52.6707C76.0271 52.4448 76.0745 52.058 76.1453 51.8156C76.2588 51.4262 76.4211 51.1597 76.7771 50.961Z" fill="black"/>
<path d="M58.1217 47.6129C58.303 47.5766 58.4436 47.5475 58.6182 47.6259C58.8224 47.7175 59.0554 47.9407 59.1195 48.1598C59.2331 48.5466 59.0637 48.9637 58.8933 49.3057C58.5484 49.998 57.9911 50.6368 57.2328 50.8739C56.1453 51.2143 54.8154 50.972 53.8296 50.4439L53.4346 50.142C53.2324 49.9574 53.0939 49.6879 53.0928 49.411C53.0919 49.2012 53.1797 49.0335 53.3371 48.8977C53.9975 48.328 54.9219 49.5791 55.6784 49.6363C56.5027 49.6987 57.2093 49.444 57.5245 48.6285C57.6643 48.2668 57.7576 47.9086 58.0704 47.6527L58.1217 47.6129Z" fill="black"/>
<path d="M85.0492 47.6798C85.8945 47.6025 85.9341 48.6504 86.2968 49.1728C86.4561 49.4025 86.6897 49.5826 86.9409 49.7027C87.5603 49.9986 88.533 49.9315 89.0997 49.5653C89.4111 49.3638 89.6648 49.0315 90.0243 48.9198C90.256 48.8478 90.5752 48.8766 90.777 49.0151C90.9203 49.1136 91.0118 49.2665 91.0333 49.4391C91.0789 49.8066 90.8441 50.0733 90.623 50.3345L90.1384 50.6798C89.2016 51.2456 88.0829 51.3986 87.0214 51.151C86.1393 50.9452 85.2887 50.4385 84.8117 49.6479C84.5776 49.2598 84.3445 48.6325 84.512 48.1777C84.6154 47.8966 84.7847 47.7908 85.0492 47.6798Z" fill="black"/>
<path d="M69.8904 50.4001C70.5191 50.357 71.1576 50.3773 71.7876 50.3815C72.116 50.3836 72.6023 50.335 72.8759 50.5508C72.9727 50.6272 73.0298 50.7521 73.0453 50.8693C73.1408 51.5941 72.1212 52.6025 71.6903 53.1168C71.7915 53.606 71.8956 54.1039 71.9475 54.6008C71.9918 55.025 71.8903 55.5221 72.0441 55.9191C72.2097 56.0356 72.4375 56.0168 72.6315 56.0019C73.1368 55.9629 73.6897 55.7609 74.1199 55.496C74.652 55.1684 75.3525 54.2827 76.0152 54.4152C76.2646 54.465 76.3588 54.6019 76.4995 54.7891C76.5245 55.0073 76.5219 55.1732 76.4118 55.3702C75.9102 56.2675 74.6629 56.8114 73.7347 57.1046C73.3798 57.1744 73.0037 57.2683 72.6422 57.2821C72.2977 57.2954 71.9495 57.2533 71.6059 57.2708C71.0592 57.2989 70.6026 57.4088 70.0537 57.2646L69.9312 57.2309C69.3211 57.0697 68.6214 56.8554 68.1198 56.4585C67.8341 56.2327 67.5459 55.9401 67.5111 55.5595C67.489 55.3196 67.5796 55.1147 67.7466 54.9453C68.3926 54.2902 69.2888 55.5452 69.818 55.8602C70.1955 56.085 70.4861 56.1421 70.9223 56.1278L71.0392 55.9855L70.9176 53.8552C70.9044 53.6727 70.9243 53.3025 70.8658 53.1459C70.8275 53.0433 70.6217 52.8965 70.5362 52.8244C70.1911 52.5331 69.5467 52.1032 69.3818 51.6916C69.2808 51.4398 69.2822 51.0388 69.3922 50.7902C69.4871 50.5752 69.6882 50.4905 69.8904 50.4001Z" fill="black"/>
</svg>
