<svg width="150" height="150" viewBox="0 0 150 150" fill="none" xmlns="http://www.w3.org/2000/svg">
<path d="M80.3226 115.599C81.3853 115.535 82.4087 115.739 83.3134 116.325C84.1263 116.853 84.7206 117.687 84.9138 118.638C85.0698 119.406 84.9228 120.188 84.4646 120.831C83.7206 121.874 82.5157 122.25 81.3179 122.482C80.2189 122.624 79.0812 122.407 78.1497 121.796C77.3212 121.253 76.7853 120.485 76.6015 119.511C76.4573 118.748 76.5773 117.95 77.0388 117.311C77.8321 116.212 79.0333 115.782 80.3226 115.599Z" fill="black"/>
<path d="M80.1333 116.614C80.929 116.531 81.7206 116.58 82.4296 116.994C83.087 117.379 83.6679 118.002 83.8372 118.763C83.9556 119.295 83.8646 119.822 83.5618 120.277C83.0425 121.059 82.1659 121.369 81.2986 121.571C80.4962 121.656 79.7808 121.623 79.0486 121.246C78.4593 120.942 77.8843 120.45 77.6898 119.793C77.5126 119.195 77.5405 118.442 77.8741 117.904C78.3804 117.086 79.2462 116.799 80.1333 116.614Z" fill="white"/>
<path d="M68.5522 110.623C69.6885 110.545 70.9682 110.922 71.8289 111.68C72.5465 112.313 73.0563 113.288 73.0709 114.259C73.0838 115.121 72.6535 115.988 72.0856 116.619C71.2377 117.562 70.2492 117.866 69.0299 117.939C67.9027 117.927 66.8031 117.707 65.8762 117.026C65.0649 116.43 64.5414 115.676 64.4084 114.657C64.2983 113.812 64.6621 112.932 65.1783 112.281C66.0309 111.206 67.226 110.773 68.5522 110.623Z" fill="black"/>
<path d="M68.3914 111.639C69.1832 111.555 70.0801 111.736 70.7449 112.184C71.3086 112.564 71.8854 113.23 71.976 113.929C72.0537 114.53 71.8641 115.15 71.4887 115.623C70.8598 116.417 69.9922 116.692 69.0272 116.806C68.2055 116.854 67.3457 116.675 66.6453 116.233C66.0442 115.853 65.5945 115.358 65.457 114.646C65.3537 114.112 65.5549 113.534 65.861 113.098C66.4895 112.203 67.3619 111.833 68.3914 111.639Z" fill="white"/>
<path d="M78.8909 90.5703L80.0328 90.7916C80.337 90.8734 81.5676 91.1408 81.7215 91.4109C81.9995 91.8994 81.4659 94.7764 81.5811 94.9504C81.5901 94.9639 81.9573 95.0779 81.9989 95.0922C83.2385 95.5158 85.2211 95.9826 85.8721 97.2195C86.4975 98.4082 85.9096 100.036 85.5799 101.233L84.6528 104.411C84.3088 105.49 83.9287 106.883 82.8582 107.455C81.6457 108.104 80.1979 107.5 78.9877 107.124L76.3946 106.303L72.25 104.959C71.5039 104.712 70.6938 104.513 70.0139 104.109C69.5723 103.847 69.1877 103.459 68.9432 103.009C68.5575 102.299 68.5692 101.532 68.7885 100.773C69.075 99.7818 69.4963 98.8238 69.8791 97.8672C70.483 96.3572 71.1897 93.8467 72.7315 93.0441C73.1432 92.8299 73.5325 92.8082 73.984 92.8318C75.4967 92.9107 77.0067 93.641 78.4442 94.0998C78.5041 92.9006 78.5438 91.7279 78.8909 90.5703Z" fill="black"/>
<path d="M73.4492 93.8405C74.7355 93.7678 76.1044 94.3206 77.3208 94.6805L79.5042 95.2848L81.9333 96.1594C82.7341 96.4475 83.8577 96.7163 84.5214 97.2559C84.824 97.502 85.0085 97.727 85.0374 98.1235C85.1224 99.296 83.5009 105.287 82.6779 106.188C82.3253 106.574 82.0142 106.683 81.5003 106.707C79.2363 106.289 76.9517 105.379 74.7611 104.673C73.5158 104.272 72.098 103.948 70.9181 103.411C70.4484 103.198 70.03 102.896 69.8585 102.39C69.664 101.816 69.8454 101.124 70.014 100.564C70.2904 99.6465 70.6521 98.7657 70.9995 97.8739C71.3531 96.9667 71.6743 96.0003 72.1454 95.1469C72.4568 94.5835 72.8019 94.0311 73.4492 93.8405Z" fill="white"/>
<path d="M78.5219 97.3764C78.7559 97.3368 79.042 97.3252 79.2735 97.3875C79.462 97.4381 79.6291 97.5596 79.7241 97.7315C79.8573 97.9733 79.8286 98.1475 79.7561 98.4018C79.5747 98.6151 79.4231 98.7241 79.1694 98.8413C79.0239 98.8776 78.8903 98.8905 78.7399 98.8854C78.37 98.8733 78.167 98.6649 77.936 98.4018C77.8663 98.1555 77.8524 98.1118 77.9206 97.8526C78.1096 97.6317 78.2547 97.4958 78.5219 97.3764Z" fill="black"/>
<path d="M73.1436 97.0101L73.3405 96.9784C73.6358 96.9493 73.9487 97.03 74.1703 97.2308C74.391 97.4308 74.3869 97.4399 74.3957 97.7425C74.2901 97.9481 74.2086 98.1259 73.9936 98.2378L73.3182 98.587C73.1686 98.6782 73.0555 98.723 72.8756 98.7058C72.7016 98.689 72.4391 98.5218 72.3584 98.3649C72.2616 98.1763 72.2905 98.0437 72.3559 97.8522C72.4914 97.4565 72.785 97.2013 73.1436 97.0101Z" fill="black"/>
<path d="M78.9701 100.196L79.358 100.168C79.7686 100.191 80.1012 100.393 80.3477 100.708C80.3608 100.856 80.3758 100.987 80.3303 101.131C80.2016 101.539 79.9731 101.731 79.6112 101.935C79.4369 101.95 79.2514 101.971 79.078 101.94C78.8055 101.891 78.5221 101.71 78.3756 101.472C78.2221 101.224 78.2377 101.019 78.2979 100.745C78.4834 100.469 78.6844 100.357 78.9701 100.196Z" fill="black"/>
<path d="M74.494 98.5476C74.6426 98.5401 74.7926 98.5491 74.9407 98.5653C75.2782 98.6021 75.6713 98.7696 75.861 99.0685C75.9665 99.2345 75.996 99.4792 75.9604 99.67C75.9108 99.9372 75.7325 100.133 75.5131 100.282C75.1092 100.558 74.6801 100.481 74.2299 100.404C74.1049 100.354 73.9958 100.303 73.8837 100.227C73.603 100.037 73.3012 99.7524 73.2711 99.3899C73.2522 99.1616 73.3389 99.0581 73.4694 98.8894C73.6768 98.7888 73.7299 98.7487 73.9659 98.7675C74.0126 98.9511 74.0514 99.1304 74.1395 99.2997C74.2315 99.1491 74.2545 98.853 74.2897 98.6735L74.494 98.5476Z" fill="black"/>
<path d="M81.3147 98.9541C81.5612 98.9401 81.7922 98.9422 82.0313 99.0124C82.3604 99.1086 82.6832 99.3295 82.8307 99.6479C82.9227 99.8463 82.9377 100.073 82.8608 100.279C82.7176 100.661 82.3918 100.867 82.0436 101.038C81.8682 101.062 81.6788 101.09 81.5041 101.05C81.1858 100.977 80.8188 100.696 80.6522 100.415C80.518 100.189 80.4307 99.8174 80.5141 99.5629C80.6309 99.2065 81.0026 99.0889 81.3147 98.9541Z" fill="black"/>
<path d="M119.653 106.159C120 106.074 120.583 106.131 120.947 106.147C123.277 106.249 125.418 107.025 127.261 108.451C127.649 108.751 128.007 109.091 128.368 109.421C128.459 109.505 128.679 109.76 128.78 109.801C128.906 109.852 129.775 109.631 129.948 109.601C131.712 109.3 133.471 109.263 135.243 109.531C137.991 109.946 140.651 111.199 142.321 113.49C143.41 114.982 144.02 117.017 143.731 118.861C143.36 121.229 141.959 123.315 140.022 124.706C137.636 126.419 134.839 126.744 132.005 126.277L130.551 125.888C127.032 124.763 124.759 122.165 123.109 118.976C122.542 119.051 121.856 119.526 121.289 119.733C120.09 120.17 118.827 120.421 117.56 120.553C115.395 120.779 112.484 120.557 110.744 119.113C109.7 118.248 108.987 117.011 108.885 115.648C108.729 113.558 109.685 111.451 111.025 109.891C113.283 107.264 116.31 106.406 119.653 106.159Z" fill="black"/>
<path d="M119.804 107.185C121.731 107.063 123.944 107.537 125.593 108.553C126.321 109.003 126.936 109.565 127.567 110.138C127.691 110.251 128.182 110.787 128.311 110.818C128.46 110.854 128.944 110.728 129.128 110.703L131.496 110.429C133.043 110.317 134.607 110.39 136.121 110.742C138.399 111.273 140.571 112.637 141.813 114.653C142.704 116.098 142.945 117.722 142.553 119.373C142.066 121.417 140.595 123.182 138.81 124.247C136.688 125.512 134.151 125.787 131.782 125.183C128.641 124.339 126.247 122.489 124.673 119.634C124.368 119.08 124.098 118.226 123.595 117.825C123.54 117.782 123.511 117.765 123.448 117.737C123.084 117.579 122.406 118.063 122.066 118.237C120.567 119.004 118.824 119.379 117.154 119.519C115.277 119.675 112.738 119.515 111.243 118.223C110.446 117.534 109.934 116.484 109.88 115.431C109.791 113.685 110.688 111.886 111.818 110.607C113.93 108.217 116.705 107.36 119.804 107.185Z" fill="white"/>
<path d="M36.7769 25.855C37.0253 25.8408 37.3273 25.8009 37.5589 25.9087C38.0869 26.1544 38.4978 26.7056 38.8621 27.1441L41.1882 30.1982C41.3408 30.4054 41.6128 30.8962 41.8037 31.0365C41.854 31.0734 42.0843 31.0706 42.1556 31.0747L43.3476 31.1644C44.4273 31.2822 45.5029 31.5204 46.5683 31.7296C47.4257 30.9398 48.4757 30.3804 49.5181 29.8753C50.0365 29.6242 50.6343 29.4025 51.1154 29.0876C51.9572 28.5367 52.4125 27.1062 53.5998 27.045C53.8191 27.0337 54.0275 27.1077 54.1732 27.2724C54.5511 27.6999 54.6621 28.614 54.7701 29.1615C55.2591 31.6433 55.638 34.5279 55.4142 37.0521C55.4013 37.1974 55.5671 37.3783 55.6498 37.5046C55.9556 37.9724 56.2728 38.4398 56.5443 38.9285C56.7656 39.3267 56.949 39.7417 57.1097 40.1675C57.474 41.132 57.7818 42.1521 57.8906 43.1814C57.9603 43.8415 57.9355 44.5271 57.9369 45.1908C57.938 45.7876 57.8693 46.4902 57.9677 47.0751C58.0244 47.4109 58.2232 47.5585 58.4837 47.7529L58.6181 47.7175L58.5505 47.5775C58.4943 47.4677 58.425 47.3615 58.3912 47.2415C58.3244 47.0037 58.3798 46.6538 58.524 46.4537C58.6226 46.3165 58.7066 46.233 58.8865 46.2292C59.1074 46.2247 59.2515 46.3369 59.408 46.4726C59.4416 46.5386 59.4627 46.5724 59.4851 46.639C59.7441 47.4083 59.0587 48.0726 58.6662 48.666C58.6435 48.7001 58.4601 48.9472 58.4587 48.9798C58.4539 49.0896 58.7855 49.5599 58.84 49.7244C58.9429 50.0343 58.9027 50.4976 58.833 50.8121C58.6875 51.4708 58.2726 52.1652 57.689 52.5285C57.4589 52.6714 57.205 52.7392 56.9382 52.671C56.2709 52.5007 56.09 51.5824 55.7736 51.0623L55.6623 51.1601C55.5039 51.7611 55.9546 52.4878 55.9498 53.1374C55.9459 53.6773 55.7127 54.1953 55.4503 54.6564C54.6132 56.1279 53.2451 57.4898 51.8677 58.456C50.9787 59.0796 49.9546 59.4957 49.1992 60.2863C49.0673 61.2767 49.1341 62.43 49.1677 63.4326C49.1847 63.9416 49.1589 65.2722 49.5943 65.5871C49.9072 65.8132 50.5607 65.7052 50.9298 65.6904L50.6587 65.132C50.5701 64.9093 50.5228 64.6396 50.6412 64.4169C50.8677 63.9908 51.4107 63.7531 51.846 63.6097C52.5259 63.3859 53.2437 63.2683 53.9427 63.1187L59.1656 62.0802L63.113 61.1158L69.5287 59.589C69.2384 58.1128 69.6605 56.4121 69.8308 54.9271C70.1531 52.1171 70.5972 49.3083 70.7642 46.4835C70.856 44.9281 70.8158 43.3607 70.788 41.8037C70.7705 40.8224 70.6711 39.754 70.8455 38.7847C70.947 38.2201 71.2531 37.7343 71.7404 37.4298C71.949 37.2995 72.1687 37.2036 72.4111 37.1581C74.3371 36.7964 75.9209 38.4884 77.0437 39.8105C77.1892 39.9818 77.5398 40.5107 77.7004 40.5964C77.7201 40.607 77.7451 40.5945 77.7674 40.5921C78.114 40.5574 78.464 40.4435 78.8084 40.3812C79.4634 40.2628 80.1455 40.2001 80.8093 40.149C84.164 39.8906 87.8912 39.7486 91.1779 40.5587L92.133 39.2494C93.0025 38.1966 94.1601 37.2126 95.5808 37.1191C96.2551 37.0747 96.8924 37.232 97.4015 37.6931C97.7984 38.0527 98.0181 38.5701 98.1615 39.0767C98.3437 39.7203 98.4094 40.4372 98.5013 41.0992L99.0033 45.4552C99.258 47.7087 99.6635 49.9294 99.7131 52.2013L100.073 51.0173C100.873 48.6244 103.07 46.147 105.176 44.7851C105.852 44.348 106.621 44.0128 107.343 43.656C107.775 42.4828 108.534 41.3267 109.158 40.2431C109.862 39.0212 110.563 37.6966 111.389 36.5544C111.602 36.2597 111.812 36.1074 112.17 36.0468C112.883 36.2884 113.309 36.9259 113.726 37.5177C114.76 38.9853 115.472 40.5544 116.289 42.1371C117.739 41.3619 119.226 40.8214 120.74 40.2003C121.325 39.9599 121.972 39.5454 122.607 39.4816C123.004 39.4417 123.374 39.5214 123.68 39.7861C124.574 40.5601 125.148 41.9503 125.724 42.9779C128.797 48.4615 131.567 54.5318 131.815 60.9011C131.873 62.4027 131.81 63.932 131.605 65.4203C131.454 66.5144 131.091 67.8261 131.159 68.9255C131.269 70.7185 131.858 72.5154 132.375 74.2298C133.143 76.775 133.836 79.2726 133.896 81.9496C136.155 82.0947 138.394 83.1759 140.296 84.33C141.042 83.0216 141.103 81.4859 141.005 80.0175C140.895 78.3714 140.585 76.8211 140.22 75.2168L139.19 70.6515C138.814 68.865 138.51 67.0367 138.492 65.2072C138.468 62.7029 138.792 59.5601 140.646 57.6972C141.187 57.1533 141.877 56.6726 142.676 56.6892C143.307 56.7023 143.739 56.9494 144.162 57.4072C144.296 57.5511 144.403 57.6966 144.493 57.872C144.729 58.3324 143.783 58.9396 143.561 59.3861C142.449 61.6169 142.286 64.3962 142.601 66.8384C142.907 69.2113 143.518 71.6529 144.208 73.9398L145.707 78.7873C146.399 81.0277 147.093 83.2347 146.985 85.6115C146.882 87.8748 146.01 90.166 144.304 91.7017C141.147 94.5435 136.609 94.6162 132.603 94.4119L131.332 97.2408C129.633 100.392 126.85 102.996 123.366 104.019C120.38 104.895 116.926 104.926 114.146 103.378C114.008 103.301 112.71 103.863 112.477 103.941C110.661 104.553 108.852 105.101 106.965 105.453C103.849 106.034 99.4719 106.098 96.7595 104.212C95.3252 103.215 94.3722 101.768 94.0679 100.041C93.6009 97.3906 94.5144 94.9685 96.0279 92.8287C97.382 91.0697 99.0154 89.8252 100.955 88.7709C101.697 88.3673 102.494 87.9611 103.32 87.7631L103.403 87.7441C103.636 86.2457 103.726 84.8734 104.546 83.547L104.585 83.4849C104.482 83.3291 103.592 81.9574 103.587 81.9543C103.315 81.7963 102.562 81.7625 102.211 81.6941L98.8254 80.975C97.2326 80.5976 95.6144 80.1082 94.1316 79.4144L94.0845 79.8166C93.9375 81.0166 93.439 82.0798 92.45 82.8173C91.7918 83.3084 90.5222 83.7464 89.6791 83.6095L89.575 83.5908C88.7943 83.4634 88.1812 83.2285 87.6011 82.6757C86.9689 82.0736 86.6545 81.3761 86.6588 80.4935C86.6627 79.7187 87.1291 78.7349 87.658 78.1892C88.6207 77.1961 90.0597 76.822 91.4093 76.8962C91.7652 76.916 92.1185 77.0232 92.4728 77.0179C92.5334 76.7242 92.5914 76.4722 92.8006 76.2464C93.3334 75.6714 94.4377 75.2306 95.2146 75.3134C96.1224 75.4101 96.3611 76.0791 97.0822 76.375C97.6359 76.6023 98.2719 76.7226 98.8586 76.8285C100.779 77.1752 102.696 77.1107 104.636 77.0343C105.058 76.1599 106.475 72.8064 106.187 72.0095C105.939 71.3211 104.317 69.3537 103.632 69.0306L102.708 70.7578C101.328 72.8711 99.1865 74.166 96.7345 74.6681C94.8047 75.0634 92.1785 75.282 90.4613 74.1375L90.3771 74.0802C89.0535 75.3752 87.9023 76.5031 86.0343 76.9127C84.0332 77.3515 82.1174 76.7509 80.4347 75.6621C80.3326 75.5959 80.0804 75.7244 79.955 75.7644C79.1027 76.0373 78.0839 76.0013 77.2002 75.9068C75.2957 75.7029 73.642 75.0072 72.4373 73.4732C70.4052 70.8857 71.6423 67.8873 71.9808 64.982C71.8759 64.9966 71.9283 64.9818 71.8123 65.0392C70.3404 65.7677 68.583 66.1171 66.9902 66.5082L61.4654 67.7953C61.5 68.7398 61.5711 69.7095 61.3841 70.6425C61.3357 70.8847 61.2933 71.1793 61.1664 71.3919L61.1066 71.4847C61.3238 71.9209 61.3005 72.5113 61.3212 72.992C61.3884 74.5656 61.3755 76.2603 60.9714 77.7904C60.5554 79.3648 59.7525 80.7232 58.3021 81.5466C55.6476 83.0541 52.2626 82.4734 49.4693 81.7117C49.4179 84.9695 49.0591 88.3076 46.7138 90.8084C44.2845 93.3986 41.0322 94.4086 37.5777 94.705C35.2599 94.9039 32.7736 94.7132 30.5765 93.9254C29.5249 93.5482 28.4595 93.0343 27.5249 92.4222C27.4107 92.3474 27.0326 92.0326 26.9193 92.0162C26.7859 91.9968 26.1421 92.3201 25.956 92.375C25.5718 92.4882 25.1658 92.5279 24.7667 92.5367C22.7831 92.58 20.9453 91.9392 19.5146 90.5484L17.0228 91.5468C16.7352 91.689 16.3985 91.8547 16.2878 92.1757C16.3677 92.4494 16.4713 92.6384 16.6605 92.8539C17.9211 94.2892 19.6456 95.3826 21.3367 96.2345C22.6464 96.8945 23.9888 97.4756 25.4087 97.8529C30.2167 99.131 35.4185 98.4841 40.1365 97.1168C43.596 96.114 46.8949 94.3291 50.6 94.5693C52.0666 94.6646 53.4418 95.3937 54.3996 96.4951C55.0082 97.1951 55.433 98.2431 55.3611 99.1722C55.1582 101.804 52.5302 102.431 50.6148 103.502C49.9863 103.853 49.4808 104.284 48.9357 104.75C48.0162 105.535 47.0966 106.298 46.0474 106.908C43.2624 108.527 40.0267 109.438 36.8736 109.962C33.6091 110.505 30.3281 110.679 27.0279 110.416C21.7037 109.991 15.9585 108.145 12.4123 103.955C10.295 101.454 9.23521 98.2818 9.5212 95.0084L9.38995 94.8941C5.67649 91.5254 4.39747 86.0818 4.16089 81.2615C3.94155 76.7923 4.39032 71.871 5.87253 67.632C6.13952 66.8683 6.48155 65.8748 7.05433 65.2812C7.23169 65.0974 7.01177 63.6244 7.03384 63.2496C7.0638 62.7412 7.20253 62.2054 7.36579 61.724C8.04056 59.7339 9.80695 58.1449 11.8983 57.7781C12.2569 57.7154 13.605 57.7929 13.7677 57.6419C13.9909 57.4349 14.1906 57.0279 14.3705 56.7712L15.8726 54.7345C17.6967 52.4517 19.7171 50.6412 22.038 48.8703C23.0997 48.0601 24.214 47.2193 25.4206 46.6384L25.5236 46.5894L25.5398 46.5283C25.9615 44.965 26.5533 43.3968 27.2261 41.9244C28.474 39.1935 30.0613 36.6199 31.5148 33.997C32.7941 31.6886 33.9521 29.2206 35.5093 27.0831C35.8705 26.5874 36.2376 26.1652 36.7769 25.855Z" fill="black"/>
<path d="M50.5588 30.5059L50.665 30.5191L49.4322 32.6482L48.3262 32.2395C48.1619 32.1514 47.9475 32.0922 47.7715 32.0252C48.5463 31.3934 49.6602 30.9375 50.5588 30.5059Z" fill="white"/>
<path d="M57.407 48.2812L58.4396 49.0943C58.2802 49.8639 58.0004 51.1869 57.3117 51.6498C57.2369 51.6215 57.2015 51.6123 57.1367 51.5742C56.8187 51.3877 56.3873 50.6344 56.299 50.2752C56.2445 50.0529 56.2048 49.6967 56.3228 49.5031L57.0355 49.3818L57.407 48.2812Z" fill="white"/>
<path d="M99.9331 57.623L100.208 57.7699C100.406 57.8795 100.581 58.0098 100.817 58.0014C100.947 57.9967 101.001 57.9924 101.122 58.0279C100.991 58.1918 100.966 58.2051 100.954 58.4115C101.204 58.7514 101.547 58.9402 101.897 59.1623L101.229 60.2898C100.984 60.5771 100.748 60.8416 100.379 60.9572C100.181 60.9094 100.046 60.8664 99.9318 60.6822C99.504 59.9928 99.7792 58.3775 99.9331 57.623Z" fill="white"/>
<path d="M53.3441 28.2344L53.4316 28.2609C53.8693 29.0883 53.9135 30.1922 54.0365 31.1109L54.5623 36.3277C54.3828 36.2293 54.2127 35.9607 54.0646 35.8061L53.1082 34.8668C52.3014 34.1424 51.3525 33.585 50.4424 33.0018C50.9836 31.8674 51.4896 30.6818 52.1615 29.6189C52.5086 29.0701 52.8006 28.6092 53.3441 28.2344Z" fill="white"/>
<path d="M12.7808 58.6914L12.9636 58.6963L13.0378 58.7779C12.7001 59.2551 12.4359 59.8197 12.165 60.3389C11.256 62.0807 10.6255 63.8709 9.97701 65.7197C9.55574 65.6248 9.17994 65.5303 8.78746 65.3441C8.39543 65.042 8.11824 64.6869 8.06404 64.1791C7.92281 62.8559 8.47406 61.5363 9.31705 60.5357C10.2002 59.4875 11.411 58.8037 12.7808 58.6914Z" fill="white"/>
<path d="M112.193 37.2051C113.377 38.6066 114.229 40.4152 115.08 42.0361C113.708 42.032 112.341 42.2428 111 42.518L108.695 43.2322C109.786 41.2209 110.847 39.0559 112.193 37.2051Z" fill="white"/>
<path d="M72.6803 66.7266C72.8896 67.2096 73.0008 67.7305 73.2172 68.2148C74.1531 70.3107 75.6387 72.1717 77.4676 73.5553C78.0955 74.0305 78.7924 74.407 79.4119 74.891L79.1186 74.9807L77.1654 74.9121C75.6254 74.7375 74.1711 74.1518 73.2029 72.9C71.7332 70.9996 72.3998 68.8885 72.6803 66.7266Z" fill="white"/>
<path d="M90.612 77.8799C91.1399 77.8418 91.8596 77.8963 92.3223 78.1797C92.6952 78.408 92.9606 78.769 93.0497 79.1963C93.1911 79.875 93.0427 80.5403 92.663 81.1155C92.0829 81.9942 91.2893 82.4813 90.2659 82.6844C89.7553 82.6688 89.2934 82.553 88.8505 82.2912C88.3446 81.9924 87.8891 81.5477 87.7565 80.9584C87.6204 80.3547 87.7655 79.6577 88.1216 79.158C88.7278 78.3069 89.6229 78.0244 90.612 77.8799Z" fill="white"/>
<path d="M89.4869 81.1883L89.7945 81.1562C90.0135 81.2787 90.0301 81.2943 90.1437 81.5178C90.1059 81.7656 90.0982 81.7547 89.9043 81.9174C89.8439 81.9352 89.8246 81.9453 89.7533 81.9398C89.5191 81.9213 89.4379 81.8258 89.3184 81.6438C89.3381 81.4359 89.3477 81.3557 89.4869 81.1883Z" fill="black"/>
<path d="M94.8092 76.2598C95.7303 76.3715 96.0869 77.0176 96.8779 77.3723C97.3516 77.5848 97.9195 77.6801 98.4254 77.7873C100.306 78.1863 102.307 78.2949 104.22 78.1221L104.35 78.1098C103.536 78.9818 103.338 79.667 103.249 80.8184C100.669 80.2576 97.9271 79.9148 95.4709 78.9162C94.9482 78.7037 94.3369 78.4709 93.8875 78.1232C93.6711 77.9561 93.5148 77.7127 93.3613 77.4893C93.7369 76.8236 94.0738 76.4906 94.8092 76.2598Z" fill="white"/>
<path d="M60.1754 65.8087C60.352 65.7779 60.2652 65.7767 60.4356 65.8087C60.5627 67.1996 60.8902 69.1156 60.2897 70.4066C59.8551 71.3412 59.0854 72.2476 58.0826 72.5853C57.1178 72.9101 55.7934 72.2804 54.9357 71.8668L54.1836 71.4072C54.5457 71.0207 54.8209 70.5673 55.0215 70.0783C55.4158 69.117 54.9533 67.9664 54.5813 67.0634C54.8617 66.9427 55.1992 66.9248 55.4992 66.8752L56.8801 66.615L60.1754 65.8087Z" fill="white"/>
<path d="M69.9344 60.5254C70.4723 60.8375 70.9816 61.4822 71.4996 61.8717C71.6035 61.95 71.8123 63.6 71.8656 63.8756C71.0514 64.5129 62.8826 66.5219 61.4744 66.6885L61.3811 65.2955L61.2268 65.051C61.0346 64.7871 60.7887 64.7361 60.4809 64.6814L60.3883 64.6662C60.3234 64.5846 60.2992 64.5312 60.2771 64.4287C60.234 64.2277 60.2102 64.0387 60.0842 63.8691C59.7359 63.401 58.3379 63.3453 57.7578 63.2389C58.5051 63.0613 59.3203 63.1084 60.0879 62.9566L64.6082 61.8853C66.3871 61.4701 68.2117 61.1385 69.9344 60.5254Z" fill="white"/>
<path d="M53.1582 72.1406C54.5588 72.7873 55.852 73.6789 57.467 73.6973C58.6723 73.7111 59.3873 73.0789 60.2037 72.2857C60.3522 74.3613 60.4201 76.658 59.5416 78.5898C58.9133 79.9717 57.8723 80.6643 56.4924 81.1691C54.1842 81.809 51.6047 81.2168 49.359 80.5471C49.2346 77.8918 48.8123 75.3697 48.0625 72.818C49.8662 72.8162 51.4215 72.6367 53.1582 72.1406Z" fill="white"/>
<path d="M7.81147 66.041C8.48393 66.4314 9.0093 66.6713 9.77979 66.8273C9.27422 68.7227 8.92656 70.6111 8.77029 72.567C8.5699 75.0752 8.77112 77.7451 9.52211 80.1549C10.4001 82.9721 11.9408 85.4264 13.841 87.6582C12.2409 88.8406 11.1063 90.1584 10.2897 91.9733L9.7552 93.7445L9.66278 93.693C9.42201 93.5129 9.16615 93.1219 8.97445 92.8826C7.36654 90.8756 6.45078 88.4293 5.83391 85.9553C5.39859 84.2094 5.23295 82.3971 5.17193 80.6033C5.0548 77.1607 5.37271 73.809 6.19057 70.4607C6.55873 68.9535 7.00186 67.3756 7.81147 66.041Z" fill="white"/>
<path d="M103.233 88.8789L103.309 88.9109C103.418 89.3434 103.401 89.8406 103.447 90.2867C103.543 91.2174 103.747 92.1127 104.074 92.9902C105.26 96.1797 107.832 99.1096 110.442 101.24C111.098 101.775 111.749 102.317 112.529 102.664L112.626 102.707C109.932 103.751 107.272 104.472 104.389 104.705C102.496 104.864 100.336 104.701 98.5659 103.974C97.2077 103.416 96.0139 102.465 95.4559 101.069C94.768 99.3479 94.9653 97.1625 95.6928 95.4846C97.0805 92.2846 100.084 90.1492 103.233 88.8789Z" fill="white"/>
<path d="M142.526 57.7112C142.812 57.7057 142.948 57.7815 143.19 57.927C143.279 58.161 143.147 58.2169 143.013 58.4106C141.629 60.4098 141.314 63.4423 141.471 65.8089C141.671 68.8266 142.426 71.7802 143.282 74.6726L145.222 81.0155C145.645 82.555 146.081 84.0599 145.953 85.6761C145.78 87.8423 144.929 89.7815 143.249 91.1974C140.647 93.3905 136.465 93.596 133.209 93.2979C133.032 93.2958 133.113 93.3239 132.971 93.2089C133.879 89.8212 134.225 86.4552 133.969 82.9485C135.282 83.1643 136.584 83.5645 137.775 84.1614C138.668 84.6087 139.503 85.1849 140.485 85.4149C141.233 85.0376 141.627 84.1319 141.822 83.3628C142.208 81.845 142.151 80.1968 141.975 78.6509C141.565 75.0634 140.323 71.6575 139.822 68.1042C139.466 65.5763 139.316 62.7552 140.267 60.3347C140.745 59.1171 141.288 58.2438 142.526 57.7112Z" fill="white"/>
<path d="M98.8248 62.439C98.8789 62.447 98.9555 62.4189 98.9871 62.4634C99.0934 62.6127 99.1293 63.3882 99.1912 63.623C99.2684 63.9154 99.4209 64.1964 99.5711 64.4574C100.346 65.8058 101.688 66.9576 102.733 68.1062C102.405 68.8685 102.086 69.6494 101.635 70.3492C100.869 71.5367 99.7766 72.3437 98.516 72.955C96.5678 73.8996 93.7068 74.4275 91.6264 73.6701C91.5615 73.6465 91.0738 73.4478 91.0563 73.4127C91.0545 73.4093 91.1068 73.1812 91.1123 73.1558C91.1817 72.8269 91.2682 72.4927 91.126 72.18C90.8881 72.0136 90.8412 72.0144 90.5645 71.9966C90.2029 72.2226 89.9291 73.107 89.6149 73.4904C88.5506 74.789 86.9461 75.8998 85.2397 76.0621C82.6297 76.3101 80.3318 74.6486 78.4027 73.0775C76.3541 71.4447 74.6477 69.3849 73.6553 66.9435C73.092 65.5578 72.7193 63.9459 72.3975 62.4806L74.8728 63.9377C79.992 66.4255 85.2998 65.95 90.6692 64.7523C93.4393 64.1343 96.1402 63.3607 98.8248 62.439Z" fill="white"/>
<path d="M19.5235 86.6696C19.8643 86.6216 20.4922 86.5786 20.8004 86.731C20.994 86.8267 21.0278 86.9259 21.0916 87.1206C21.0358 87.5417 20.8031 87.9413 20.5633 88.2859C20.1487 88.881 19.6006 89.3755 18.9393 89.6835C17.883 90.1757 16.7345 90.3286 15.8213 91.1222C15.5251 91.3796 15.1504 91.7618 15.1338 92.1796C15.1124 92.7191 15.6279 93.2933 15.9748 93.6743C16.9977 94.7974 18.3048 95.7175 19.5977 96.5021C25.9176 100.337 33.526 100.095 40.4297 98.12C43.6891 97.1876 46.7795 95.4841 50.2641 95.6591C51.5002 95.7212 52.7059 96.204 53.5284 97.1489C54.0129 97.7056 54.3512 98.487 54.2662 99.2335C54.0743 100.921 51.9104 101.636 50.6358 102.298C50.0106 102.622 49.4514 102.982 48.8994 103.419C48.0698 104.114 47.2889 104.876 46.3959 105.491C43.7182 107.334 40.141 108.354 36.9643 108.908C30.018 110.118 21.7852 109.887 15.8268 105.661C12.9515 103.622 11.0877 100.835 10.5294 97.3448C10.1505 94.9761 10.9504 92.4171 12.3578 90.5214C13.9801 88.3361 16.8871 87.0527 19.5235 86.6696Z" fill="white"/>
<path d="M95.4077 38.0254L95.9469 38.0309C96.285 38.0705 96.6389 38.3166 96.8385 38.5836C97.0805 38.9074 97.1716 39.3879 97.2466 39.7805C97.6132 41.7004 97.7331 43.6902 97.9776 45.6311C98.3514 48.5979 98.8317 51.6039 99.0036 54.5898C99.0926 56.1402 99.0837 57.6797 98.9212 59.2246C98.7573 59.0404 98.6725 58.8961 98.4249 58.8235C98.1546 58.7442 97.7813 58.7916 97.5393 58.9381C97.3366 59.0609 97.1778 59.2723 97.1399 59.5098C97.101 59.7524 97.1454 59.8447 97.2878 60.034C97.9132 60.3129 98.3622 60.1506 98.9932 59.9842L99.0419 61.2082C98.3042 61.5406 97.4928 61.7647 96.7214 62.0086L93.2975 63.0377C90.5235 63.7731 87.6124 64.5252 84.7444 64.7311C80.8805 65.0088 77.0487 64.1219 73.7001 62.1746C72.6766 61.5674 71.4106 60.7125 70.7063 59.7412C70.2895 59.1666 70.4741 58.3652 70.5426 57.6887C70.8969 54.1881 71.5649 50.6758 71.761 47.1645L71.8057 42.6813C71.7864 41.4734 71.653 40.1324 71.8821 38.9469C71.9385 38.6551 72.0565 38.3828 72.3262 38.2303C73.6589 37.477 75.4321 39.4766 76.1622 40.3668C76.5536 40.8443 77.0462 41.7828 77.6364 41.9248C77.9628 41.8297 78.1686 41.5531 78.3975 41.3147C79.6446 41.1068 80.9159 41.0867 82.1774 41.0424C84.9735 40.9443 87.7001 40.9959 90.4887 41.2221L90.5188 41.2719C90.3858 41.4645 90.2575 41.6146 90.2477 41.8582C90.3458 42.0475 90.47 42.1947 90.6698 42.2811C90.7198 42.3025 90.8825 42.3449 90.9298 42.3354C91.0944 42.3022 91.4948 41.6648 91.6032 41.5111C92.0368 40.8961 92.4997 40.2992 92.9962 39.733C93.3647 39.3125 93.7889 38.9004 94.2425 38.5709C94.6104 38.3035 94.9792 38.1564 95.4077 38.0254Z" fill="white"/>
<path d="M77.4582 52.8453C77.5871 52.8248 77.7257 52.802 77.8562 52.8178C78.1638 52.8551 78.514 53.1432 78.7042 53.3723C78.966 53.6873 79.0683 54.0156 79.0351 54.4199C78.8605 54.6418 78.8123 54.6813 78.5521 54.79C78.408 54.7981 78.2556 54.8076 78.1126 54.7856C77.764 54.7318 77.4242 54.4537 77.2138 54.1824C77.0513 53.9729 76.9785 53.7242 77.0152 53.4604C77.058 53.1529 77.2199 53.0121 77.4582 52.8453Z" fill="black"/>
<path d="M73.6052 52.9176C73.705 52.8832 73.7084 52.878 73.8283 52.8606C74.3461 52.7858 74.9404 53.1069 75.3371 53.412C75.6086 53.6209 75.9908 53.9512 76.0308 54.309C75.9326 54.5358 75.7806 54.626 75.5861 54.7621C75.3509 54.812 75.0935 54.8631 74.8525 54.8424C74.3302 54.7975 73.6005 54.4414 73.2677 54.0288C73.1435 53.875 73.1045 53.5829 73.1642 53.3936C73.2392 53.1557 73.407 53.0489 73.6052 52.9176Z" fill="black"/>
<path d="M85.5404 52.8447C85.9279 52.7347 86.3005 52.8107 86.663 52.9738C87.1 53.1702 87.6263 53.5146 87.8023 53.98C87.7398 54.4116 87.5177 54.5472 87.1918 54.8003C86.9373 54.9146 86.7273 54.9548 86.447 54.9454C86.0132 54.9308 85.4675 54.8042 85.1746 54.456C84.9923 54.2392 84.9845 53.8814 85.0275 53.6156C85.0894 53.2343 85.2279 53.0566 85.5404 52.8447Z" fill="black"/>
<path d="M83.2343 54.9648L83.606 54.9355L83.6941 55.0424C83.6786 55.324 83.6619 55.5484 83.555 55.8111C83.1417 56.1906 82.4919 56.1127 81.957 56.1326C82.1185 56.9043 82.13 57.5176 82.837 58.0146C83.0535 58.1668 83.4203 58.2865 83.6857 58.2197C83.9525 58.1523 84.057 58.0256 84.1976 57.8051C84.3003 57.6443 84.3992 57.5061 84.5228 57.3607C84.7347 57.3354 84.8622 57.3488 85.0343 57.4934C85.1884 57.623 85.2661 57.8092 85.2421 58.0088C85.2029 58.3361 84.99 58.6299 84.732 58.823C84.2911 59.1533 83.654 59.2609 83.1195 59.1539C82.4501 59.0199 82.0197 58.5086 81.6689 57.9609L81.6302 57.8994C81.4091 58.1109 81.2201 58.368 81.0242 58.6033C80.6107 58.9494 80.254 59.1295 79.7408 59.2705C79.1533 59.1752 78.5484 58.9875 78.1294 58.5377C77.881 58.2707 77.8751 58.0926 77.8841 57.7525C78.0093 57.5947 78.0911 57.4699 78.3111 57.4596C78.6081 57.4453 78.6958 57.5883 78.8689 57.7902C79.0785 58.0348 79.2265 58.2596 79.5704 58.2877C79.8484 58.3102 80.0449 58.2471 80.255 58.0521C80.7923 57.5539 80.9876 57.0244 81.0134 56.3078C81.015 56.2648 81.0369 56.2172 81.0177 56.1785C81.0072 56.1572 80.9703 56.1754 80.9466 56.1736C80.4273 56.1373 80.0658 56.1803 79.6876 55.7748C79.587 55.5178 79.5878 55.3521 79.6132 55.0791C79.8329 54.9166 82.7261 55.0018 83.2343 54.9648Z" fill="black"/>
<path d="M122.988 40.6133C124.731 43.1539 126.168 45.9555 127.451 48.7561C129.652 53.559 131.154 58.7817 130.69 64.1047C130.53 65.9459 129.98 67.8578 130.189 69.7047C130.479 72.2756 131.49 74.7432 132.145 77.2328C132.608 78.9906 132.83 80.8326 132.947 82.6444C133.202 86.5721 132.872 90.5682 131.476 94.274C130.154 97.784 127.879 100.956 124.364 102.502C121.509 103.758 118.227 103.927 115.303 102.805C112.553 101.749 110.453 100.147 108.482 97.9873C107.245 96.6315 106.123 95.0924 105.386 93.403C104.063 90.3701 104.217 86.9817 105.392 83.9424L108.501 85.4188C111.874 86.6596 116.549 87.0752 119.88 85.4934C121.485 84.7315 122.653 83.4305 123.234 81.7543C123.381 81.3295 123.674 80.5008 123.473 80.0901L123.159 80.0131C123.097 80.0002 122.844 79.9682 122.788 80.0147C122.633 80.1449 122.419 81.0453 122.326 81.2756C121.9 82.3233 121.209 83.3928 120.247 84.0221C117.636 85.7293 113.835 85.6313 110.901 85.0195C109.304 84.6528 107.822 84.1317 106.385 83.3401C105.589 82.902 104.502 82.094 104.272 81.1617C104.13 80.5836 104.243 79.8483 104.567 79.3494C104.917 78.8108 105.425 78.4287 105.986 78.1297C107.857 77.1315 109.642 77.8526 111.467 78.5637C111.843 78.71 112.336 78.9606 112.744 78.859C113.196 78.7463 113.509 78.2613 113.715 77.8776C114.069 77.218 114.742 75.9219 114.522 75.1717C114.341 74.9967 114.337 74.9664 114.075 74.9395C113.658 75.15 113.542 75.6547 113.371 76.0619C113.101 76.7027 112.835 77.3444 112.494 77.9516C111.598 77.5432 110.689 77.0867 109.742 76.8131C108.113 76.3424 106.931 76.5102 105.46 77.3092C106.202 76.0108 106.899 74.4397 107.102 72.949C107.16 72.517 107.216 71.9803 107.122 71.5492C106.975 70.8735 106.296 70.1869 105.845 69.6912L102.859 66.6865C101.882 65.7358 100.703 64.6451 100.127 63.3908C99.9223 62.9445 99.8805 62.4742 99.8301 61.992C100.834 61.8356 101.276 61.507 101.924 60.7453L102.075 61.0992C102.259 61.4901 102.55 61.793 102.964 61.9332C103.404 62.0818 103.843 62.049 104.254 61.8383C104.577 61.6727 104.943 61.3428 105.03 60.974C105.083 60.7465 105.052 60.4434 104.921 60.2479C104.822 60.101 104.742 60.0397 104.553 60.0397C104.125 60.0397 104.122 60.6297 103.85 60.9006C103.704 61.0451 103.549 61.0936 103.345 61.0813C103.093 61.066 102.958 60.9594 102.79 60.7856C102.202 60.1738 102.389 58.8824 102.386 58.092C102.596 58.0779 102.933 58.0893 103.125 58.0092C103.295 57.9385 103.316 57.8606 103.36 57.691C103.422 57.4572 103.388 57.2656 103.268 57.058C102.847 56.7856 100.714 56.8451 100.096 56.8305C100.112 55.0184 100.206 53.2107 100.914 51.5211C103.047 46.432 107.82 43.8742 113.071 43.1436C113.659 43.0617 114.255 43 114.849 43.0107C115.332 43.0195 115.93 43.1344 116.401 43.041C117.015 42.9188 117.701 42.518 118.283 42.2674L120.594 41.3385C120.228 41.9002 119.79 42.4217 119.407 42.9738C118.79 43.8633 118.22 44.7906 117.692 45.7354C117.398 46.2596 117.046 46.8293 116.932 47.424C117.153 47.5791 117.246 47.675 117.517 47.7064C118.053 47.3688 118.465 46.351 118.788 45.7955L120.193 43.4807C120.814 42.5113 121.437 41.5721 122.255 40.7568C122.133 41.8158 121.478 49.8619 121.664 50.1565C121.898 50.2291 122.069 50.265 122.315 50.2529C122.709 49.86 122.967 41.8648 122.988 40.6133Z" fill="white"/>
<path d="M106.506 54.353C106.706 54.347 106.892 54.3585 107.087 54.4083C107.449 54.5009 107.897 54.8114 108.08 55.1405C108.211 55.3767 108.275 55.8208 108.154 56.0722C108.021 56.3493 107.638 56.4296 107.373 56.5066L106.897 56.5075C106.527 56.4691 105.98 56.1956 105.765 55.8829C105.61 55.6585 105.604 55.4353 105.681 55.1814C105.822 54.7185 106.093 54.5667 106.506 54.353Z" fill="black"/>
<path d="M36.7311 27.1133C36.8179 27.8439 36.7557 28.6336 36.7786 29.3727L36.9952 33.1154C37.0266 33.6076 36.9884 34.3877 37.2079 34.8262C37.2803 34.851 37.3048 34.8635 37.3899 34.8686C37.6126 34.8818 37.7177 34.8361 37.86 34.6797L37.4874 27.1178C38.3843 28.0117 39.1776 29.0332 39.8895 30.0787C40.3837 30.8041 40.8327 31.5918 41.4311 32.2363L41.9104 32.1068C42.0667 32.0639 42.2067 32.0254 42.3704 32.017C43.1399 31.9781 44.0677 32.2002 44.8218 32.349C47.7741 32.932 50.4263 33.7895 52.7352 35.8082C54.9681 37.7604 56.5852 40.442 56.9058 43.4186C57.0546 44.8012 56.9981 46.2307 57.0856 47.6244C56.9266 47.8926 56.6671 48.2965 56.3229 48.3348C55.7204 48.4016 55.2647 47.8381 54.6016 48.0547C54.4534 48.2604 54.427 48.3092 54.4169 48.5602C54.4063 48.8229 54.4827 49.0268 54.6634 49.218C54.9384 49.509 55.302 49.4502 55.6745 49.4578C55.5073 49.8328 55.3411 50.2049 55.1116 50.5473C54.7567 51.0772 54.228 51.8035 53.5763 51.9281C53.0798 51.7647 53.3462 51.0703 53.0542 50.6551C52.8733 50.6031 52.8378 50.5936 52.6608 50.6914C52.4134 50.8281 52.238 51.0734 52.1778 51.3465C52.11 51.6535 52.2577 52.0531 52.4386 52.3002C52.6909 52.6443 53.0704 52.8258 53.4882 52.8617C54.0446 52.9096 54.4056 52.7205 54.8212 52.3875L54.9071 52.3176L54.9727 52.9537C54.997 53.6137 54.6456 54.1557 54.2782 54.6727C53.3106 56.0346 52.1042 57.0221 50.6841 57.8758C49.9813 58.2983 49.1575 58.6752 48.6214 59.3182C47.7509 60.3621 48.0434 62.2797 48.1352 63.5563L48.0573 63.4893C47.7032 63.1918 47.2173 62.8877 46.7282 62.9922C46.5354 63.0332 46.4259 63.1459 46.338 63.3176C46.2546 63.4803 46.2208 63.6559 46.28 63.8301C46.696 64.0151 47.18 64.069 47.5493 64.3446C47.8376 64.5596 47.9704 64.9174 48.1259 65.2299C48.4139 65.8084 48.8595 66.4731 49.4755 66.727C49.6063 66.7811 49.8247 66.8815 49.9628 66.8946C50.4677 66.9418 51.303 66.526 51.7706 66.3305C52.2833 66.4481 52.8999 66.6057 53.3159 66.9399C53.8286 67.3514 54.1671 68.2977 54.1975 68.9358C54.2245 69.5014 54.028 70.0645 53.6263 70.4709C52.4612 71.6496 50.0817 71.7947 48.5149 71.7752C46.337 71.7483 43.9005 71.4301 42.3155 69.7821C41.2991 68.725 40.7038 67.3129 40.721 65.8475C40.7276 65.2848 40.8325 64.7313 40.8419 64.1692C40.7464 64.0119 40.6636 63.8903 40.4661 63.8549C40.2602 63.8182 40.1964 63.8549 40.0266 63.952C39.8221 64.435 39.7929 64.9604 39.7626 65.4781C39.6526 67.3594 40.1323 68.9153 41.4098 70.3332C42.8233 71.9024 44.8831 72.6645 46.9598 72.7826L47.7364 76.0049C48.078 77.8033 48.2942 79.601 48.3598 81.4313C48.4526 84.0215 48.255 86.752 46.797 88.9858C43.6294 93.8393 35.6833 94.703 30.6106 92.837C29.9409 92.5905 29.293 92.2909 28.6721 91.9387L27.2059 91.0502C27.1329 91.0102 26.8981 90.8567 26.8241 90.8508C26.7415 90.8444 26.3096 91.0912 26.2094 91.1364C25.8755 91.2862 25.5344 91.4076 25.1737 91.4766C23.4507 91.8061 21.861 90.9926 20.4835 90.0512C21.0594 89.5211 21.5784 88.9471 21.9413 88.2465C22.1911 87.7643 22.3106 87.1793 22.128 86.6496C21.9925 86.2563 21.5698 85.8574 21.1874 85.7028C20.7425 85.5229 20.2165 85.5313 19.7438 85.5582C17.9653 85.6598 16.364 86.3411 14.7658 87.068C12.0414 83.9602 10.1784 80.3444 9.85196 76.1731C9.63803 73.4395 9.93921 70.8074 10.5346 68.141C11.2858 64.7768 12.5445 61.5035 14.3799 58.5754C17.0549 54.3078 20.9219 50.7408 25.0919 47.9529C25.3093 47.8076 25.493 47.6863 25.7512 47.6264C25.8803 47.5963 26.2548 47.5656 26.3483 47.5061C26.3743 47.4897 26.3729 47.4496 26.3848 47.4213C26.6364 46.8248 26.7725 46.1354 26.9802 45.5166C27.3628 44.3764 27.8214 43.2633 28.3251 42.1715C29.6608 39.2756 31.2975 36.5496 32.8313 33.7578L35.1042 29.6006C35.5991 28.7396 36.0866 27.8729 36.7311 27.1133Z" fill="white"/>
<path d="M49.9762 43.6606C50.3145 43.6403 50.6153 43.6457 50.9184 43.8168C51.2364 43.9965 51.5977 44.3739 51.6844 44.7362C51.7264 44.9116 51.7104 45.102 51.6075 45.2545C51.4002 45.5621 51.1059 45.6166 50.7661 45.6844C50.1833 45.6457 49.4821 45.6842 49.0598 45.2262C48.9465 44.9135 48.9442 44.6377 49.0907 44.3311C49.2831 43.9285 49.5821 43.811 49.9762 43.6606Z" fill="black"/>
</svg>
