<svg width="150" height="150" viewBox="0 0 150 150" fill="none" xmlns="http://www.w3.org/2000/svg">
<path d="M138.823 109.07C139.024 109.059 139.262 109.033 139.454 109.107C139.732 109.213 139.891 109.427 140.023 109.68C140.059 110.145 140.065 110.522 139.768 110.908C139.416 111.364 139.101 111.514 138.539 111.572C138.336 111.557 138.14 111.53 137.946 111.465C137.66 111.371 137.46 111.204 137.343 110.923C137.221 110.632 137.231 110.356 137.368 110.073C137.648 109.495 138.257 109.264 138.823 109.07Z" fill="black"/>
<path d="M138.416 110.12C138.629 110.066 138.903 110.042 139.102 110.149L139.105 110.237L138.704 110.609C138.544 110.679 138.488 110.667 138.319 110.653L138.15 110.45L138.181 110.277L138.416 110.12Z" fill="#FDFCFE"/>
<path d="M132.499 95.8056C132.734 95.796 133.006 95.7693 133.232 95.8433C133.602 95.9644 133.888 96.2287 134.059 96.5755C134.267 96.9974 134.217 97.5742 134.043 97.9988C133.876 98.4087 133.584 98.6388 133.187 98.8085C132.937 98.8347 132.67 98.8525 132.422 98.7947C132.139 98.7287 131.885 98.4898 131.732 98.2515C131.468 97.8402 131.44 97.3408 131.561 96.8773C131.695 96.3591 132.058 96.0626 132.499 95.8056Z" fill="black"/>
<path d="M132.659 96.7895C132.758 96.7682 132.828 96.7793 132.927 96.7895C133.07 96.9707 133.108 97.0766 133.156 97.3024C133.107 97.5366 133.066 97.5998 132.899 97.7557C132.64 97.7534 132.594 97.761 132.367 97.6172C132.347 97.5282 132.32 97.4319 132.325 97.3389C132.338 97.1096 132.505 96.9399 132.659 96.7895Z" fill="#FDFCFE"/>
<path d="M124.579 56.9463L124.771 56.8867C124.933 56.9896 125.007 57.0256 125.088 57.2084C125.196 57.4518 125.207 57.7523 125.276 58.0113C125.524 58.9422 126.093 59.7551 126.814 60.3842C127.656 61.1193 128.557 61.4195 129.519 61.9268C129.766 62.0572 129.861 62.1949 129.987 62.4397C129.929 62.7055 129.89 62.693 129.676 62.842L129.534 62.8783C129.381 62.9127 129.24 62.9147 129.09 62.865C128.783 62.7637 128.481 62.5459 128.194 62.3953C127.66 62.1152 127.094 61.8588 126.6 61.5102C125.442 60.6926 124.522 59.3895 124.312 57.9729C124.242 57.498 124.29 57.3262 124.579 56.9463Z" fill="black"/>
<path d="M21.8383 71.0808C22.0118 71.0249 22.0874 71.0331 22.2659 71.0402C22.4084 71.1087 22.5122 71.165 22.6065 71.2962C22.7518 71.4984 22.7831 71.7406 22.7342 71.9802C22.6928 72.1824 22.662 72.3607 22.7291 72.5628C23.3518 74.4337 25.9022 74.315 27.386 75.0275C27.6864 75.1718 27.8661 75.3033 27.9747 75.6218C27.9292 75.8986 27.9518 75.8958 27.7292 76.0613L27.6182 76.0783C27.1397 76.1396 26.6993 75.8091 26.2604 75.6626C25.1096 75.2787 24.112 75.2783 23.1108 74.4642C22.342 73.839 21.6157 72.7648 21.5479 71.7554C21.5254 71.4224 21.6309 71.313 21.8383 71.0808Z" fill="black"/>
<path d="M36.1048 46.5463C36.212 46.5385 36.297 46.566 36.4007 46.5906C37.1829 47.2006 36.2378 48.0312 36.4075 48.817C36.471 49.1101 36.8028 49.3957 37.0446 49.5459C37.3511 49.7363 37.7616 49.8857 38.122 49.809C38.2923 49.6777 38.3343 49.6848 38.3679 49.476C38.1108 49.168 37.8165 48.9666 37.429 48.8566L36.8767 48.7008C36.7063 48.5066 36.728 48.4785 36.7179 48.231C36.8118 48.0752 36.8284 47.993 37.0142 47.9402C37.4839 47.807 38.0499 48.0992 38.4505 48.3195C38.695 48.5014 38.9241 48.6767 39.1075 48.9232C39.2987 49.1801 39.3663 49.491 39.3063 49.8057C39.2421 50.1424 39.044 50.4457 38.7534 50.631C38.3511 50.8879 37.831 50.8516 37.3896 50.7293C36.656 50.5262 35.9194 49.95 35.5804 49.2639C35.3114 48.7201 35.3524 47.8121 35.5374 47.2537C35.645 46.9285 35.7999 46.7047 36.1048 46.5463Z" fill="black"/>
<path d="M130.213 9.41255L130.34 9.37437C130.505 9.34101 130.668 9.38542 130.806 9.47423C131.454 9.89193 131.999 11.1562 132.151 11.9012C132.282 12.5396 132.285 13.3666 131.904 13.9169C131.655 14.2769 131.206 14.5727 130.767 14.6328C130.212 14.7089 129.536 14.2771 129.098 13.9682C128.815 13.6766 128.536 13.3836 128.496 12.9648C128.583 12.636 128.728 12.4025 129.02 12.2155C129.338 12.0115 129.679 12.0017 130.041 12.082C130.483 12.1801 130.782 12.3973 131.009 12.7875L131.052 12.8696L131.125 12.7469C131.189 12.6038 131.164 12.3157 131.146 12.1636C131.029 11.2155 130.376 10.7594 130.041 9.95185C130.057 9.71689 130.091 9.61431 130.213 9.41255Z" fill="black"/>
<path d="M129.52 13.0012C129.79 12.9329 130.685 13.1143 130.927 13.2458L130.778 13.4407L130.686 13.5045C130.454 13.6193 130.236 13.5752 130.006 13.4697C129.802 13.376 129.605 13.2097 129.52 13.0012Z" fill="#FDFCFE"/>
<path d="M129.773 28.8207C129.948 28.8066 130.115 28.8566 130.261 28.9537C130.784 29.3002 131.059 30.0853 131.16 30.6812C131.297 31.4885 131.026 32.3258 130.556 32.9791C129.271 34.767 126.896 35.5762 124.805 35.8963C124.543 35.9363 124.365 36.0137 124.146 35.852L124.125 35.4125C124.13 35.3496 124.172 35.1994 124.208 35.1512C124.432 34.8492 125.062 34.6037 125.391 34.4217C125.872 34.1549 126.311 33.874 126.743 33.533C127.201 33.1578 127.575 32.7355 127.952 32.2812C128.177 32.0096 128.481 31.5451 128.796 31.3926C129.001 31.2939 129.112 31.2957 129.315 31.3777L129.353 31.7139C129.342 32.0266 129.146 32.3275 128.962 32.5695C128.639 32.9957 128.24 33.4103 127.844 33.7682C127.539 34.0439 127.204 34.2541 126.927 34.5637C127.849 34.125 128.7 33.6697 129.347 32.8553C129.79 32.298 130.316 31.4672 130.204 30.7273C130.168 30.4885 130.08 30.3756 129.883 30.2443C129.724 30.1389 129.508 30.008 129.401 29.8461C129.289 29.6779 129.288 29.448 129.353 29.2602C129.43 29.0357 129.575 28.9307 129.773 28.8207Z" fill="black"/>
<path d="M29.8762 34.2213L30.4682 34.207C31.5131 34.2613 32.3152 34.8762 33.0094 35.5928C33.4859 35.4225 34.0045 35.2947 34.5064 35.2262C36.1758 34.9984 38.2182 35.482 39.5668 36.5143C39.8125 36.7025 40.0457 36.926 40.0885 37.2447C40.0094 37.3678 39.9553 37.4477 39.8221 37.517C39.6619 37.6002 39.3801 37.699 39.1994 37.6211C38.9838 37.5277 38.7217 37.2285 38.5092 37.0889C37.6709 36.5389 36.8 36.3285 35.8195 36.1895C35.0391 36.173 34.3822 36.202 33.619 36.3535L34.5512 37.4897C34.7016 37.7141 34.6732 37.8809 34.6158 38.1236C34.4865 38.2938 34.392 38.3934 34.167 38.4387C34.0225 38.468 33.8543 38.4121 33.7479 38.3156C33.4807 38.0738 33.3143 37.6037 33.0961 37.3021C32.7119 36.7713 32.1674 36.2424 31.6711 35.8148C31.2068 35.415 30.6688 35.0883 30.0287 35.1627C29.6428 35.2074 29.4609 35.2715 29.2186 35.5789C29.0959 35.7344 28.9877 35.8857 28.8277 36.0063C28.5568 36.2102 28.341 36.2113 28.0147 36.1746C27.8074 35.974 27.7842 35.9705 27.7383 35.6699C27.9416 35.1641 28.3897 34.793 28.8725 34.5576C29.1949 34.4004 29.5301 34.309 29.8762 34.2213Z" fill="black"/>
<path d="M130.937 106.531C131.081 106.498 131.157 106.476 131.303 106.523C131.513 106.591 131.677 106.862 131.767 107.05C132.432 108.447 132.492 110.052 131.985 111.508C131.41 113.162 130.277 114.527 128.694 115.295C128.196 115.537 127.487 115.943 126.93 115.714C126.749 115.64 126.572 115.461 126.514 115.274C126.448 115.062 126.425 114.721 126.526 114.514C126.635 114.291 126.95 114.067 127.136 113.903C127.488 113.591 127.835 113.267 128.154 112.92C128.79 112.229 129.282 111.455 129.723 110.63C129.908 110.198 130.078 109.214 130.445 108.965C130.536 109.021 130.533 109.013 130.619 109.103C130.86 109.356 130.841 109.758 130.814 110.083C130.769 110.631 130.517 111.1 130.244 111.565C129.471 112.882 128.516 113.796 127.366 114.778L127.754 114.662C129.054 114.252 130.126 113.259 130.744 112.055C131.242 111.084 131.659 109.52 131.293 108.46L131.255 108.362C131.175 108.146 131.078 108.035 130.917 107.868L130.732 107.676C130.573 107.482 130.578 107.246 130.615 107.007C130.649 106.792 130.776 106.661 130.937 106.531Z" fill="black"/>
<path d="M120.744 12.1869C122.866 12.0683 125.051 12.7587 126.674 14.1439C127.352 14.723 128.742 16.0685 128.762 17.029C128.767 17.3004 128.688 17.3658 128.518 17.5507C128.295 17.5806 128.218 17.6177 128.029 17.4685C127.792 17.2813 127.568 16.7324 127.388 16.4682C126.714 15.4804 125.864 14.7576 124.856 14.1343C122.965 13.1653 121.12 12.9138 119.064 13.4855C119.029 13.8949 118.973 14.1897 118.755 14.5467C118.426 15.087 117.77 15.7389 117.134 15.8571C116.85 15.9098 116.498 15.8759 116.274 15.6708C116.09 15.5016 116.005 15.1661 116.006 14.9256C116.012 13.6334 117.409 13.8052 118.046 13.182C118.791 12.4528 119.749 12.2901 120.744 12.1869Z" fill="black"/>
<path d="M136.187 68.0777L136.374 68.0499C136.614 68.0306 136.771 68.1032 136.951 68.2632C137.045 68.5007 137.131 68.6302 137.01 68.8835C136.849 69.2189 136.523 69.5435 136.277 69.8161C135.295 70.9027 134.263 71.4943 132.899 71.9822C134.38 73.4601 134.749 74.8331 135.061 76.8472C135.441 75.9449 135.468 75.1605 135.595 74.2081C135.79 72.7505 136.372 71.7486 137.199 70.5634C137.48 70.1613 137.755 69.7335 138.078 69.3634C138.298 69.1109 138.471 68.9267 138.831 68.923C139.066 68.9206 139.203 68.9937 139.367 69.1503C139.461 69.3755 139.445 69.439 139.417 69.6741C139.208 69.9823 138.924 70.1755 138.63 70.3976C137.274 71.5458 136.729 73.0027 136.566 74.7279C136.495 75.4738 136.453 76.1613 136.103 76.8398C135.863 77.3023 135.319 78.0322 134.793 78.1769C134.597 78.2308 134.364 78.2093 134.19 78.1011C134.105 78.0482 134.127 78.0509 134.104 77.939C134.036 77.6066 134.122 77.206 134.136 76.8667C134.16 76.2984 134 75.6909 133.805 75.1605C133.593 74.5843 133.285 74.0066 132.899 73.5269C132.697 73.2747 132.478 73.0452 132.231 72.8361C131.962 72.6079 131.581 72.4263 131.492 72.0695C131.517 71.8697 131.529 71.6948 131.67 71.538C132.14 71.0163 133.005 70.871 133.616 70.5708C134.135 70.3157 134.631 69.9779 135.071 69.6029C135.619 69.1353 135.748 68.5952 136.187 68.0777Z" fill="black"/>
<path d="M105.077 10.4199C105.348 10.4223 105.58 10.4542 105.836 10.5526C107.167 11.0654 108.114 12.4782 108.667 13.7328C109.211 14.9672 109.551 16.32 109.851 17.6322C110.568 20.7675 110.831 23.8495 110.847 27.0565C110.853 28.3989 110.853 29.7454 110.739 31.0841C110.626 32.4247 110.374 33.7487 110.131 35.0708C109.938 36.1192 109.773 37.3663 109.379 38.3544C109.336 38.4645 109.617 38.93 109.683 39.061C110.343 40.3759 110.762 41.6731 110.981 43.1313C111.087 43.8352 111.105 44.5552 111.192 45.2636C111.361 44.628 111.343 43.936 111.382 43.2825C111.508 41.1909 111.952 39.4401 113.379 37.8286C114.741 36.2897 116.51 35.4919 118.544 35.3974C120.28 35.3169 122.139 36.0179 123.411 37.1968C126.911 40.4438 125.81 45.6313 125.022 49.7548L123.669 56.2681C123.451 57.2269 123.167 58.1702 123.006 59.1409C122.978 59.3116 122.878 59.6071 122.89 59.7653C122.902 59.9198 123.078 60.2321 123.142 60.3788L123.933 62.0792C124.216 62.639 124.634 63.2679 124.662 63.9038C124.582 64.0808 124.516 64.1718 124.329 64.2485C124.122 64.3335 123.943 64.2993 123.743 64.2226C123.486 63.8991 123.369 63.453 123.217 63.0708L122.377 61.0386L118.56 71.5462C119.354 71.0067 120.241 70.6544 121.218 70.6991C121.898 70.7304 122.356 71.0237 122.808 71.5077L122.894 71.6001C123.51 70.9448 123.973 69.9546 124.531 69.2216C124.727 68.964 125.001 68.6032 125.278 68.4294C125.969 67.9946 126.557 68.7001 127.244 68.8253C127.577 68.8862 127.77 68.9015 128.048 68.7101L128.027 68.5546C127.715 68.3441 127.371 68.3651 127.039 68.2017C126.97 68.0239 126.965 67.937 126.996 67.7489C127.084 67.612 127.15 67.4921 127.299 67.4118C127.544 67.2798 127.845 67.3032 128.101 67.3857C128.489 67.5103 128.81 67.7671 128.973 68.1441C129.097 68.4278 129.069 68.7185 128.937 68.9958C128.768 69.3489 128.408 69.6433 128.041 69.7632C127.204 70.0364 126.321 69.6612 125.586 69.2825C125.165 70.1151 124.723 70.9226 124.202 71.6976C124.082 71.8757 123.542 72.471 123.511 72.6314C123.503 72.6755 123.809 73.1614 123.84 73.2148C124.513 74.3566 125.229 75.472 125.811 76.6644C128.208 81.5696 129.608 87.3441 129.609 92.7978C129.609 100.908 127.356 108.791 122.114 115.087C121.539 115.778 120.986 116.504 120.344 117.135L120.258 117.218C120.201 117.502 120.615 118.384 120.713 118.7C120.881 119.242 121.023 119.788 121.087 120.352C121.215 121.484 120.992 122.607 120.256 123.5C118.893 125.151 116.53 125.061 114.589 125.034C111.224 124.987 108.024 124.476 104.841 123.382C103.882 123.052 102.881 122.711 101.954 122.304L101.015 121.867C100.953 121.837 100.743 121.713 100.688 121.71C100.579 121.705 100.223 121.877 100.103 121.919C99.6158 122.088 99.1215 122.227 98.6213 122.35C96.9357 122.765 95.2582 123.023 93.5326 123.179L93.4254 125.363C93.2283 127.291 92.7182 129.159 92.1404 131.004C91.9256 131.69 91.6469 132.377 91.4727 133.073C91.2541 133.946 91.2859 134.778 90.8853 135.616C90.559 136.298 90.007 136.907 89.4199 137.376C87.315 139.057 84.3041 139.51 81.6844 139.186C80.8228 139.08 80.0437 138.927 79.3072 138.442C78.6668 138.019 78.0912 137.335 77.9531 136.565C77.8125 135.782 78.0389 135.034 78.4756 134.385L78.5264 134.311L76.3701 130.035C75.3496 128.077 74.3572 125.788 72.7369 124.255C71.5222 123.106 69.8535 122.866 68.3496 122.289C64.6119 120.856 61.0666 117.835 58.8519 114.532C56.9217 111.653 55.6291 108.599 55.0019 105.179C54.8152 104.161 54.6527 103.145 54.5748 102.112C54.5701 102.051 54.6093 101.966 54.5611 101.927C54.514 101.89 54.0922 101.848 54.0088 101.832L52.4857 101.468C48.4279 100.365 44.5959 98.3003 41.8283 95.078C39.7988 92.7152 38.1722 89.3556 38.467 86.1694C38.5783 84.965 39.0713 83.7927 40.0119 83.0105C40.9211 82.2544 42.0925 82.011 43.2502 82.1276C45.6773 82.3724 47.0576 84.7741 48.467 86.4972C50.2222 88.6528 52.2898 90.4138 54.9211 91.3888C55.1183 90.4275 55.3525 89.4786 55.7175 88.5655C54.1181 87.4316 52.3373 86.5515 50.7347 85.4066C48.0943 83.5204 45.5234 81.2712 43.3588 78.8536C42.1527 77.5067 41.0701 76.0538 39.9988 74.5989C39.0029 73.2466 38.0164 71.9003 37.2132 70.4218L32.0474 69.4388C28.9828 68.6483 26.0353 67.2571 23.5644 65.2644C21.0898 63.2689 18.9909 60.545 17.3935 57.8097C13.7502 51.571 12.3213 43.8419 14.2125 36.8042C15.2783 32.8376 17.5281 28.8745 20.4478 26.0015C21.4185 25.046 22.4269 24.1956 23.6162 23.5186C25.4304 22.486 27.748 21.8038 29.8168 22.3798C30.9779 22.703 32.0597 23.3688 32.6617 24.4395C33.0851 25.1927 33.2207 25.9708 32.9732 26.8065C32.4652 28.5216 30.3248 29.0938 28.9312 29.871C25.7634 31.6374 23.4683 35.3347 22.4968 38.7626C21.1941 43.3587 21.6068 49.0265 23.9591 53.2058C24.8587 54.8042 25.9587 56.3364 27.3148 57.5815C29.1961 59.3091 31.5046 60.4423 33.9248 61.2005C34.9921 61.5351 36.0888 61.7407 37.1654 62.0386C38.2777 60.7437 39.9029 59.8798 41.5726 59.5605C43.7597 59.1423 45.9509 59.646 47.7785 60.8931L47.8533 60.9448C47.0834 58.4333 46.9049 55.9274 47.1931 53.3237C43.522 53.4097 39.8972 53.8026 36.2584 53.004C35.0783 52.745 33.9275 52.3185 32.7957 51.9013C32.1646 51.6686 31.1906 51.494 30.6777 51.0673C30.4793 50.9022 30.3375 50.7737 30.3097 50.5114C30.29 50.3265 30.3699 50.1792 30.4914 50.0479C30.6435 49.8833 30.8388 49.8583 31.0525 49.9155C31.5337 50.044 31.7371 50.4405 32.1509 50.655C33 51.095 34.283 51.3302 35.2183 51.4843C37.2271 51.8153 39.2545 52.012 41.292 51.9921L47.5761 51.637C47.6666 51.3936 48.1976 49.853 48.1433 49.72C48.0103 49.3942 47.6299 48.9966 47.4254 48.6845C46.9593 47.9728 46.539 47.2272 46.1533 46.4694C44.024 42.286 42.4027 37.5796 41.774 32.9231C41.5203 31.0438 41.191 28.6005 42.4371 26.9954C43.1759 26.0436 44.0621 25.4772 45.274 25.3294C46.5476 25.1739 47.8994 25.2893 49.1621 25.4665C52.5521 25.9427 55.7017 27.1124 58.7422 28.6641C60.1176 29.3661 61.4156 30.0729 62.633 31.0319L65.0318 29.1952C66.6174 28.1352 68.4318 27.2938 70.2162 26.6288C76.1994 24.3983 82.7875 24.077 89.0244 25.3007C89.1426 25.0155 89.2881 24.7473 89.4545 24.4874C90.9246 22.1927 92.6398 20.1022 94.4707 18.0906C96.2189 16.1699 98.0314 14.4167 100.134 12.8857C101.654 11.779 103.222 10.8361 105.077 10.4199Z" fill="black"/>
<path d="M107.065 46.1025C107.873 46.0852 109.036 46.024 109.807 46.2529C109.861 46.4213 109.863 46.4475 109.823 46.6193C108.869 46.5912 107.914 46.5076 106.959 46.5336C105.138 46.5832 103.401 46.8586 101.623 47.2375L99.1562 47.9146C99.4496 47.6178 100.126 47.4186 100.53 47.2805C101.576 46.9227 102.637 46.5877 103.727 46.3924C104.835 46.1941 105.944 46.1443 107.065 46.1025Z" fill="#FDFCFE"/>
<path d="M57.0564 89.1504C57.9191 89.5311 58.7914 89.9469 59.6832 90.2535L61.1213 90.6719L59.8676 91.275C58.6855 91.6662 57.6029 91.8523 56.3555 91.8527L57.0564 89.1504Z" fill="#FDFCFE"/>
<path d="M121.241 87.2633L121.935 87.2422L121.6 92.684L120.117 90.9941C119.218 89.9258 118.217 88.8693 117.447 87.7051C117.788 87.5576 118.29 87.5502 118.659 87.5113L121.241 87.2633Z" fill="#FDFCFE"/>
<path d="M118.216 72.3809C118.188 74.1691 118.869 75.4182 119.597 76.9877L120.653 79.4084C119.72 79.4002 118.784 79.1914 117.865 79.0342L115.062 78.7428L118.216 72.3809Z" fill="#FDFCFE"/>
<path d="M60.3121 59.721C60.5162 59.6964 60.6828 59.6701 60.8848 59.7292C57.7457 61.39 55.4215 64.2835 53.7719 67.3533C53.452 67.2292 52.9527 66.6177 52.6848 66.3624L50.7812 64.3257C53.3234 61.8466 56.7773 60.1263 60.3121 59.721Z" fill="#FDFCFE"/>
<path d="M105.767 47.6379C107.267 47.5281 108.941 47.548 110.397 47.9347C110.387 49.8486 110.249 51.6506 109.837 53.5269C109.368 53.2775 108.9 52.7832 108.472 52.4504C107.672 51.8283 106.83 51.2924 105.939 50.8095C103.603 49.6304 100.927 49.1791 98.3359 49.1219L101.081 48.4174C102.636 48.0459 104.174 47.7738 105.767 47.6379Z" fill="#FDFCFE"/>
<path d="M114.207 80.2676C116.492 80.2277 118.901 80.8047 121.158 81.1529L121.867 85.6145L121.052 85.6488C119.574 85.749 118.139 86.033 116.711 86.4195C116.575 86.3094 116.471 86.1926 116.363 86.0559C115.884 85.4492 115.507 84.7639 115.158 84.0762C114.518 82.815 114.04 81.7029 114.207 80.2676Z" fill="#FDFCFE"/>
<path d="M62.7649 91.1777L64.6807 91.5771C65.1743 91.6613 65.8641 91.6951 66.2911 91.9488C66.5026 92.0746 66.5829 92.2812 66.6411 92.5092C67.3674 95.3537 64.3991 96.1689 62.3665 96.8654C61.2854 97.2359 60.0856 97.6055 59.1174 98.227C58.1469 98.8498 57.4325 99.7172 56.8626 100.707C56.3729 101.65 56.3155 102.522 56.2924 103.562C56.0999 103.258 56.1106 102.518 56.0745 102.157C55.7825 99.2391 55.7381 96.2943 55.819 93.365C57.7502 93.4184 59.6307 93.2721 61.3411 92.2734C61.8536 91.9742 62.3124 91.5582 62.7649 91.1777Z" fill="#FDFCFE"/>
<path d="M46.0305 26.6211C49.8697 26.7348 53.4625 27.8006 56.9209 29.4305C58.6736 30.2564 60.1961 31.0777 61.7219 32.2889L59.575 34.0916L58.2401 32.9418C56.0143 31.1797 53.31 29.8332 50.6744 28.7932C49.1902 28.2076 47.3272 27.5428 45.7096 27.7869C45.2486 27.8566 44.7785 28.0877 44.507 28.4777C43.7566 29.5557 44.3633 31.5029 44.6188 32.6922C45.5412 36.8703 46.8106 40.9713 48.5391 44.8865C48.8775 45.6533 49.2012 46.5754 49.7504 47.2131L49.8045 47.2746L48.9637 48.65C47.8932 46.9697 47.1016 45.1996 46.3272 43.3705C44.6857 39.4941 43.227 35.257 43.018 31.0156C42.9584 29.8084 42.9584 28.1666 43.8588 27.2373C44.435 26.6426 45.2645 26.6406 46.0305 26.6211Z" fill="#FDFCFE"/>
<path d="M104.793 11.8711C104.956 11.8784 105.113 11.8959 105.273 11.9311C105.939 12.0777 106.507 12.8512 106.85 13.4079C107.774 14.9119 108.196 16.8165 108.519 18.5335C109.085 21.5388 109.288 24.4187 109.288 27.4681L109.258 30.2238C109.118 32.5984 108.775 34.9775 108.234 37.2935L106.968 36.032L107.128 35.4603C107.496 33.7232 107.768 31.9443 107.874 30.1718C107.933 29.1943 107.9 28.1984 107.9 27.2183C107.899 26.0517 107.921 24.8742 107.84 23.7103C107.71 21.8416 107.388 20.0045 106.966 18.1807C106.668 16.8919 106.393 15.5807 105.65 14.4659L105.592 14.3798C105.441 14.2053 105.282 14.0395 105.093 13.9064C104.708 13.6368 104.331 13.5532 103.871 13.6482C102.814 13.8663 101.851 14.7599 101.081 15.4625C97.6648 18.5805 94.9199 22.567 92.4887 26.4793L90.123 25.69C90.9688 24.8824 91.5621 23.6976 92.315 22.7884L95.9033 18.7287C97.8104 16.6789 99.7238 14.8081 102.083 13.2713C102.938 12.7138 103.807 12.1633 104.793 11.8711Z" fill="#FDFCFE"/>
<path d="M114.993 112.27C115.834 113.171 116.523 114.246 117.207 115.271C118.312 116.929 120.03 119.531 119.549 121.63C119.435 122.128 119.149 122.68 118.695 122.945C117.843 123.442 116.645 123.478 115.687 123.513C113.138 123.607 110.746 123.354 108.269 122.744L102.748 120.998C103.703 120.631 104.615 120.115 105.518 119.636C107.639 118.512 109.688 117.238 111.523 115.681C112.764 114.629 113.876 113.45 114.993 112.27Z" fill="#FDFCFE"/>
<path d="M45.7203 28.8217L45.9477 28.7873C46.8723 28.7064 47.9223 28.9949 48.7983 29.2578C52.2922 30.306 55.9174 32.2535 58.6659 34.6613C56.5871 36.5441 54.8682 38.5814 53.111 40.7584L50.0084 45.6834L48.7743 42.5797C48.0604 40.6365 44.583 30.6898 45.1899 29.284C45.3032 29.0213 45.4672 28.9308 45.7203 28.8217Z" fill="#FDFCFE"/>
<path d="M42.0779 83.6594C42.8756 83.5617 43.6062 83.6602 44.2908 84.1094C45.5785 84.9545 46.4369 86.6479 47.3988 87.8424C48.0752 88.6826 48.8816 89.4762 49.6941 90.1856C51.0783 91.3942 52.6949 92.1731 54.3543 92.9229L54.442 100.231L52.8812 99.9194C51.3894 99.4762 49.9164 99.0137 48.5156 98.3246C44.9343 96.5627 41.8441 93.4531 40.5496 89.6262C40.0992 88.2951 39.6908 86.3084 40.3797 84.9926C40.7605 84.265 41.3218 83.9106 42.0779 83.6594Z" fill="#FDFCFE"/>
<path d="M103.996 14.6127C104.058 14.6033 104.086 14.5963 104.154 14.6012C104.362 14.616 104.547 14.7759 104.677 14.9288C105.207 15.5553 105.416 16.5988 105.598 17.3761C106.59 21.6114 106.709 26.1495 106.539 30.4798C106.488 31.7751 106.242 33.0452 106.182 34.3374C104.866 32.5306 102.64 31.0216 100.779 29.7982C98.7262 28.4331 96.2309 27.2329 93.8508 26.5558L93.7637 26.5318C94.3434 25.7605 94.8191 24.8939 95.3682 24.0976C97.3461 21.229 99.4834 18.2104 102.117 15.9124C102.675 15.4263 103.272 14.8215 103.996 14.6127Z" fill="#FDFCFE"/>
<path d="M120.028 72.1581C120.49 72.1349 120.834 72.1276 121.195 72.4515C122.262 73.4089 123.017 74.8987 123.653 76.1612C125.267 79.3659 126.541 82.8778 127.335 86.38C127.631 87.6882 127.803 89.0132 127.884 90.3511C128.048 93.0786 127.995 95.8819 127.572 98.5849C127.263 100.56 126.72 102.521 126.114 104.424C125.456 106.493 124.654 108.548 123.528 110.412C122.47 112.163 121.128 113.717 119.772 115.239L119.421 115.607C119.192 115.53 118.792 114.759 118.647 114.536C117.863 113.329 117.092 112.005 116.201 110.879C116.132 110.792 116.135 110.841 116.201 110.741C116.953 109.604 117.73 108.475 118.368 107.269C119.344 105.426 120.245 103.548 120.955 101.584C121.593 99.8177 122.058 97.9769 122.47 96.1474C123.422 91.9239 123.93 87.3894 123.131 83.0964C122.733 80.9575 121.979 78.8683 121.11 76.8784L120.275 75.111C119.866 74.3116 119.335 73.511 119.395 72.5825C119.54 72.3331 119.773 72.2688 120.028 72.1581Z" fill="#FDFCFE"/>
<path d="M27.6992 23.748C28.084 23.7045 28.515 23.6943 28.8969 23.7588C29.7248 23.8982 30.6508 24.3824 31.1109 25.1084C31.2871 25.3865 31.3957 25.8359 31.3121 26.1607C31.0145 27.3174 28.7842 28.1652 27.8689 28.7248C26.6131 29.4924 25.434 30.4312 24.4721 31.5494C22.5726 33.7568 21.4004 36.7519 20.7295 39.5648C19.5232 44.6217 20.3693 50.7631 23.1185 55.1826C26.1121 59.9947 31.0568 62.1248 36.3586 63.3726C36.3322 63.6301 36.1199 63.9353 36.0309 64.1885C35.7725 64.9219 35.7422 65.8383 35.8533 66.6018L35.8725 66.7234C35.9758 67.4248 36.2201 68.0176 36.5123 68.659L35.7248 68.6117C32.1283 68.1076 28.4764 66.7393 25.4844 64.6676C22.3996 62.5316 20.0957 59.2988 18.3559 56.0238C16.982 53.4377 15.9404 50.8709 15.4123 47.9748C14.276 41.7451 15.5085 35.2508 19.1398 30.024C21.1809 27.0861 24.0777 24.4064 27.6992 23.748Z" fill="#FDFCFE"/>
<path d="M80.6737 26.1064L80.8962 26.0938C83.6056 26.034 86.3671 26.1961 89.0267 26.7348C92.6167 27.4619 96.1232 28.9068 99.2806 30.7504C101.112 31.8199 102.924 33.068 104.453 34.5465C107.276 37.2774 109.751 40.9174 109.812 44.9701C105.991 45.0002 102.122 45.0695 98.7933 47.2037C98.3196 47.5074 96.2956 48.9865 96.1948 49.4393C96.2218 49.5492 96.3042 49.9705 96.4243 50.0049C96.5577 50.043 96.8614 50.0053 97.0103 50.0061L98.5444 50.032C99.3169 50.0701 100.067 50.1778 100.828 50.3108C103.44 50.7672 105.735 51.6186 107.871 53.2229C108.453 53.6604 108.982 54.1742 109.515 54.6699C109.034 56.2393 108.526 57.86 107.838 59.351C106.54 62.1637 104.595 64.5533 102.175 66.4744C98.9032 69.0715 94.9882 70.7032 91.0278 71.9059C83.9618 74.0518 76.4224 74.9012 69.0687 74.0436C63.897 73.4289 58.2548 71.3248 54.3198 67.8522C54.9081 67.2865 55.2686 66.5102 55.7483 65.8571C56.5776 64.7278 57.5645 63.7117 58.6134 62.7869C59.5364 61.9731 60.5673 61.1479 61.6038 60.4819C62.0122 60.2192 62.4782 60.0492 62.8755 59.7774C63.0216 59.6772 63.0864 59.5953 63.1604 59.4367C63.1446 59.211 63.097 59.0678 62.9255 58.9102C62.5763 58.5895 61.6854 58.6555 61.2329 58.6539C58.503 58.6445 56.2647 59.4985 53.9048 60.7975C52.5845 61.5244 51.3638 62.3155 50.2892 63.3799L48.8604 60.8957C50.2036 60.2811 51.5821 59.761 52.9843 59.2975C53.6995 59.061 54.4872 58.883 55.1767 58.5924C55.4138 58.4924 55.4642 58.4807 55.6018 58.2649C55.5952 58.0069 55.6429 57.8821 55.4632 57.6885C54.8632 57.5789 54.1626 57.8192 53.5831 57.9822C51.9808 58.433 50.3421 58.9674 48.8747 59.7582C48.7009 58.934 48.636 58.0403 48.58 57.1979C48.511 56.1608 48.4952 55.0422 48.6229 54.0102C48.7657 52.8567 49.0927 51.7526 49.4458 50.6486C50.8669 46.2067 53.5931 42.282 56.6585 38.8065C58.5819 36.6254 60.6808 34.5678 62.9198 32.7121C63.8456 31.9447 64.7433 31.0914 65.7433 30.4227C70.0339 27.5529 75.5899 26.4234 80.6737 26.1064Z" fill="#FDFCFE"/>
<path d="M92.3384 44.5518L92.7239 44.5371C93.4214 44.5451 94.1466 44.6312 94.655 45.1533C94.6975 45.3256 94.7173 45.4553 94.6651 45.6299C94.5966 45.8594 94.4661 45.9869 94.262 46.1074L94.1926 46.0475L94.0876 45.9588C93.9128 45.8082 93.7589 45.676 93.5311 45.6104C92.6374 45.3533 91.3532 45.71 90.5729 46.1803L90.4823 46.2363C90.2735 46.401 90.0641 46.5631 89.8921 46.7672C89.6805 47.018 89.4848 47.467 89.1716 47.5404C88.9466 47.4467 88.8764 47.3664 88.7321 47.1803C88.6962 46.835 88.8391 46.5725 89.0432 46.2922C89.8469 45.1881 91.0337 44.74 92.3384 44.5518Z" fill="black"/>
<path d="M68.3687 52.6895C68.9866 52.7168 69.6941 52.7604 70.2155 53.1334C70.3741 53.2469 70.4755 53.3268 70.4735 53.54C70.4718 53.7578 70.3489 53.9242 70.2253 54.0895C69.9054 54.1955 69.0669 53.7633 68.6306 53.7525C67.7282 53.7303 66.9069 54.2982 66.2837 54.8928C66.0464 55.2545 65.8345 55.641 65.4849 55.9043C65.2589 55.9424 65.2312 55.9549 65.0411 55.8031C64.9312 55.7156 64.8437 55.5998 64.8237 55.4617C64.7704 55.0912 65.0179 54.7 65.2429 54.4275C66.0722 53.4236 67.0657 52.824 68.3687 52.6895Z" fill="black"/>
<path d="M93.268 40.6094L94.3678 40.6732C95.4315 40.7977 96.4399 41.0881 97.4276 41.498C97.8428 41.6705 98.2352 41.8254 98.5201 42.1885C98.4977 42.3775 98.4242 42.5262 98.2537 42.6381C98.142 42.7117 98.083 42.7098 97.959 42.683C97.6051 42.6061 97.2553 42.3992 96.9164 42.2676C96.2815 42.0211 95.6233 41.8293 94.9502 41.7219C92.5557 41.34 90.3516 41.883 88.3813 43.2967C87.6817 43.8326 87.0252 44.4836 86.5686 45.2422C86.3834 45.5496 86.2672 45.8965 86.0795 46.199C85.9674 46.3795 85.9303 46.3602 85.7295 46.4064C85.5647 46.3602 85.4744 46.3398 85.3416 46.2236C85.2367 46.1318 85.2557 46.1582 85.2457 46.0107C85.1967 45.2906 86.3074 43.9545 86.768 43.4484C88.483 41.5645 90.775 40.7262 93.268 40.6094Z" fill="black"/>
<path d="M67.7557 48.9514C68.9055 48.7545 70.4709 49.0647 71.5541 49.4707C72.1652 49.7 73.0885 50.0219 73.3723 50.6479C73.3232 50.8512 73.2006 50.9557 73.0592 51.0987C72.5672 51.1461 72.0004 50.6194 71.5018 50.4432C70.8609 50.2168 70.1434 50.043 69.469 49.9473C67.1998 49.6254 65.241 50.5102 63.4816 51.8612C62.7826 52.4754 62.1234 53.1524 61.5742 53.9057C61.315 54.2614 61.1109 54.6828 60.8215 55.0112C60.732 55.1125 60.6676 55.2121 60.5256 55.2073C60.2703 55.1985 60.0865 55.0424 59.9238 54.8594C60.0363 54.3063 60.3977 53.7801 60.7272 53.3299C62.3897 51.0582 64.9668 49.3612 67.7557 48.9514Z" fill="black"/>
<path d="M80.3416 48.4488L80.532 48.4297C80.7695 48.5402 80.7959 48.5588 80.9373 48.7785C81.0082 49.4484 80.4496 50.1008 80.1041 50.6496C80.1811 50.9434 80.2709 51.2682 80.4664 51.5094C80.652 51.7377 81.0311 51.8955 81.2969 52.0113C82.1315 52.375 83.0883 52.7242 84.0092 52.7531C84.5836 52.7711 85.0768 52.6594 85.5025 52.2574C86.1742 51.6236 86.6537 50.5789 86.6529 49.6551C86.6527 49.5088 86.6678 49.5277 86.7559 49.4205L87.0854 49.3936L87.2207 49.5109L87.2231 49.6277C87.2504 51.0891 86.777 52.5254 86.3779 53.9166C85.8801 55.6523 85.344 58.0318 84.0113 59.3445C83.3453 60.0008 82.3436 60.2166 81.4438 60.1902C79.8955 59.8781 78.2898 58.9252 77.1107 57.8932C76.0621 56.9752 75.0463 55.8797 74.3643 54.6586C74.2256 54.4104 74.0305 54.1285 74.0117 53.8404L74.1582 53.7602L74.3777 53.852C74.7738 54.4356 75.1147 54.85 75.8283 55.0236L75.9525 55.0529C76.1973 55.1172 76.3568 55.133 76.6074 55.0904C77.8272 54.8828 78.4453 54.209 79.1186 53.2436C79.4459 52.7742 79.8506 52.1807 79.7334 51.5838L79.7127 51.4885C79.6947 51.4016 79.6811 51.318 79.6477 51.235C79.5459 50.9822 79.3563 50.8803 79.1158 50.7805C78.7764 50.6393 78.4582 50.4787 78.1781 50.2359C77.9336 50.024 77.7691 49.833 77.7535 49.5029C77.8914 49.2381 78.1459 49.0937 78.3828 48.9232L79.5363 49.2875C79.7828 48.9844 80.009 48.6613 80.3416 48.4488Z" fill="black"/>
<path d="M80.4646 52.3184C81.3765 52.967 82.5458 53.2051 83.3665 54.0066C83.7318 54.3635 83.9798 54.8119 84.1724 55.2801C84.5568 56.2135 84.5366 57.1189 84.1327 58.0451C83.8591 58.6725 83.1923 58.9549 82.5982 59.2014C82.1222 59.3326 81.6845 59.4719 81.2142 59.275C80.2185 58.8584 79.1556 58.0881 78.7681 57.0414C78.1441 55.3561 79.7839 53.848 80.4185 52.4229L80.4646 52.3184Z" fill="#FBDCE2"/>
<path d="M117.961 37.0756C118.481 37.0266 119.054 37.0317 119.569 37.1246C120.958 37.3748 122.181 38.0727 122.985 39.2537C123.626 40.1944 123.985 41.2727 124.091 42.4018C124.307 44.6778 123.916 46.9164 123.495 49.1452L122.315 54.7116L120.357 62.2803C119.711 64.36 118.924 66.4786 118.069 68.4811L115.253 74.7192L113.443 78.4387C113.124 79.1565 112.793 79.8811 112.655 80.6598C112.425 81.9549 112.961 83.3004 113.523 84.4479C114.848 87.153 116.885 89.6202 118.809 91.9256C119.618 92.8944 120.465 93.7975 121.184 94.8397C120.968 96.001 120.609 97.1462 120.273 98.2786C118.958 102.722 117.081 107.041 114.191 110.705C112.767 112.511 111.029 114.088 109.196 115.469C105.513 118.243 101.513 120.208 96.9834 121.158C95.2914 121.513 93.6006 121.532 91.8967 121.739L91.7355 125.461C91.4742 127.887 90.7045 130.267 90.0804 132.619C89.8845 133.357 89.7574 134.246 89.4502 134.938C89.2553 135.377 88.8791 135.743 88.5084 136.039C87.2306 137.057 85.9625 137.403 84.3699 137.598C83.5918 137.693 82.765 137.75 81.9844 137.654L81.849 137.636C81.2031 137.555 80.5574 137.436 80.0252 137.032C79.7361 136.813 79.4752 136.458 79.456 136.084C79.4437 135.846 79.4269 135.596 79.5787 135.41L80.3111 136.016C80.7377 136.327 81.4144 136.609 81.9482 136.48C82.206 136.418 82.3519 136.302 82.482 136.084C82.4744 135.804 82.472 135.753 82.3185 135.503C82.0021 135.36 81.6197 135.508 81.2631 135.439C80.7773 135.124 80.8138 134.893 80.5554 134.436C80.4719 134.288 80.3082 134.17 80.1959 134.043C80.0103 133.833 79.8779 133.596 79.749 133.349L76.8619 127.359C75.9279 125.544 74.7795 123.646 73.0301 122.51C71.732 121.668 70.1992 121.273 68.7754 120.698C63.6035 118.611 60.1636 114.618 57.9945 109.57C57.5464 108.499 57.1552 107.361 56.9312 106.219C56.6797 104.936 56.8465 103.561 57.3795 102.367C59.0912 98.5313 62.1666 98.8862 65.4943 97.4208C66.3664 97.0366 67.2131 96.4922 67.7414 95.6764C68.3804 94.6901 68.4646 93.3155 68.2269 92.1885C68.123 91.6963 67.9183 90.8422 67.4773 90.5421C67.2595 90.394 66.8922 90.3717 66.6369 90.3342L65.0097 90.0633C63.53 89.7839 62.0947 89.368 60.6699 88.8854C57.8746 87.9387 55.1627 86.4852 52.6976 84.869C47.4293 81.4143 43.2582 76.6813 39.7685 71.484C38.8582 70.1284 37.7394 68.603 37.4148 66.9817C37.1552 65.6854 37.4107 64.3325 38.1638 63.2403C38.9664 62.0762 40.4419 61.285 41.8113 61.0461C44.1087 60.6456 46.092 61.425 47.7363 63.0209C48.8662 64.1174 49.7728 65.4225 50.8597 66.5596C52.4082 68.1795 54.1076 69.6483 55.9427 70.9348C58.0941 72.4426 60.5513 73.4737 63.0537 74.2303C68.8867 75.994 75.0834 76.1983 81.1144 75.5067L86.0605 74.7127C91.8435 73.6786 97.8851 71.5754 102.647 68.0727C104.26 66.8862 105.876 65.4329 107.082 63.828C109.064 61.1913 110.142 58.2192 111.01 55.0725C111.509 53.2639 111.929 51.4686 112.132 49.5995L112.48 45.7725C112.646 43.6475 112.777 41.2784 114.055 39.4815C115.031 38.1096 116.313 37.3619 117.961 37.0756Z" fill="#FDFCFE"/>
<path d="M83.8133 134.104C84.1001 134.094 84.3424 134.112 84.5969 134.259C84.929 134.451 85.2159 134.715 85.2901 135.107C85.3479 135.413 85.3061 135.722 85.1292 135.982C84.8946 136.327 84.5346 136.419 84.1491 136.503L83.6139 136.444C83.2915 136.39 82.8981 136.218 82.7124 135.935C82.5967 135.759 82.4887 135.456 82.5641 135.245C82.7559 134.709 83.3323 134.346 83.8133 134.104Z" fill="black"/>
<path d="M41.3667 64.3441C41.463 64.3377 41.5596 64.3377 41.6555 64.3498C41.9307 64.3842 42.219 64.5424 42.384 64.7674C42.4936 64.9164 42.5526 65.166 42.5102 65.3498C42.4456 65.6301 42.2801 65.6783 42.0534 65.809C42.0747 65.8947 42.096 65.9762 42.0975 66.0652C42.1053 66.5006 41.9106 66.9994 41.5817 67.2871C41.2171 67.6059 40.8696 67.5424 40.4231 67.5189L40.3266 67.4598C40.1428 67.3494 39.9868 67.2564 39.8827 67.0602C39.7678 66.8437 39.7403 66.5115 39.8428 66.285C39.9213 66.1111 40.0792 65.9328 40.2745 65.8936C40.6524 65.818 41.0788 66.207 41.3803 66.4078C41.1995 66.0935 40.8745 65.6519 40.9124 65.2791L40.9262 65.1863L40.9801 64.8476C41.046 64.5635 41.1176 64.4941 41.3667 64.3441Z" fill="black"/>
<path d="M120.308 40.3929C120.374 40.3831 120.41 40.3743 120.482 40.3816C120.695 40.4034 120.854 40.5126 120.972 40.6859C121.116 40.8962 121.183 41.1712 121.122 41.4212C121.047 41.7247 120.816 41.9103 120.562 42.0654C120.419 42.0696 120.375 42.0566 120.246 41.9851C120.133 41.9224 120.045 41.8788 119.923 41.8376C120.079 42.0374 120.101 42.1173 120.114 42.3706C119.98 42.7423 119.773 43.0089 119.443 43.2318C119.046 43.5007 118.497 43.5874 118.03 43.4941C117.627 43.4136 117.276 43.0536 117.06 42.721C116.825 42.3591 116.844 42.2882 116.941 41.881L116.785 41.8325C116.547 41.8741 116.529 41.8534 116.309 41.7462C116.179 41.5823 116.093 41.4622 116.081 41.2474C116.068 41.0193 116.157 40.7913 116.32 40.6321C116.554 40.4052 116.809 40.4222 117.115 40.4368C117.342 40.6159 117.468 40.7734 117.56 41.0523C117.65 41.3232 117.628 41.3882 117.497 41.6382C117.937 41.8671 117.891 42.2366 118.23 42.5019C118.328 42.578 118.374 42.6169 118.5 42.5825C118.896 42.4749 119.114 42.0027 119.316 41.6775C119.408 41.6314 119.476 41.6048 119.546 41.5279L119.533 41.3085C119.719 40.9028 119.873 40.5616 120.308 40.3929Z" fill="black"/>
</svg>
