<svg width="92" height="92" viewBox="0 0 92 92" fill="none" xmlns="http://www.w3.org/2000/svg">
<g clip-path="url(#clip0_2805_1209)">
<path d="M92 80.8547V92H0V0H92V78.0658V78.7602V80.2006V80.8547Z" fill="#262626"/>
<path d="M55.0324 66.148C55.2848 66.1397 55.9337 66.1102 56.1366 66.2295L56.13 66.3396L55.9841 66.4175C55.6975 66.4667 55.1819 66.4817 54.9379 66.3098C54.8641 66.2577 54.8851 66.285 54.873 66.1946L55.0324 66.148Z" fill="white"/>
<path d="M56.4863 56.9622L57.1705 56.959L57.0788 57.7913L57.0393 57.9016L56.9833 57.9095C56.7767 57.6404 56.644 57.2664 56.4863 56.9622Z" fill="white"/>
<path d="M53.7734 52.2266C53.994 52.5425 54.1514 52.9224 54.322 53.2684L55.4762 55.8728C55.0233 55.7119 54.664 55.6545 54.1793 55.6452C54.1892 55.2239 54.1193 54.7974 54.0675 54.3797L53.7734 52.2266Z" fill="white"/>
<path d="M36.9432 60.8911C37.1339 60.8739 37.4107 60.8586 37.5781 60.9663C37.9433 61.2015 38.1114 61.6766 38.1785 62.0859L38.1918 62.1714L38.2247 62.3988C38.2875 63.1027 38.1282 63.7633 37.6833 64.3159L37.3046 64.5975C37.6025 63.5036 37.6619 62.4551 37.0811 61.4336C36.9988 61.2888 36.8058 61.0971 36.793 60.9361L36.9432 60.8911Z" fill="white"/>
<path d="M35.7258 61.1602L35.8102 61.1614C36.1199 61.4399 36.3182 61.7637 36.4565 62.1525C36.7348 62.9351 36.7423 63.9792 36.3858 64.7301C36.1945 64.826 35.9894 64.8711 35.7833 64.9249L35.2227 65.0181L35.2488 64.9621C35.7699 63.8234 35.7381 62.8214 35.3132 61.6574L35.7258 61.1602Z" fill="white"/>
<path d="M13.6346 80.0352L17.042 81.0225L16.3246 81.3089C15.4676 81.6852 14.5386 81.8809 13.6152 82.0063L13.6346 80.0352Z" fill="white"/>
<path d="M12.4444 69.599L12.6235 69.5742C12.7225 69.7002 12.7132 71.845 12.7233 72.2192C11.895 71.7755 11.0631 71.6944 10.138 71.6669L9.43374 71.6956L9.29492 70.064L12.4444 69.599Z" fill="white"/>
<path d="M5.05554 68.57C5.80407 68.4702 6.75996 68.5796 7.47416 68.8236C7.79775 68.9342 8.36117 69.1391 8.5034 69.4726C8.57931 69.6505 8.57791 69.7812 8.50816 69.9584C7.89706 70.6309 6.4776 70.7564 5.6251 70.8315C4.77939 70.8505 3.92687 70.8458 3.09965 70.6432C2.83026 70.5773 2.53785 70.5077 2.3027 70.3542C2.17152 70.2685 2.04151 70.1243 2.01483 69.9681C1.9873 69.807 2.043 69.6748 2.14279 69.5493C2.72249 68.8204 4.19105 68.6404 5.05554 68.57Z" fill="white"/>
<path d="M9.99618 72.2522C10.6435 72.2128 11.2653 72.2858 11.8651 72.5342C12.2948 72.7122 12.7331 72.9404 12.9099 73.3978C13.0072 73.6496 13.1146 74.2047 13.0075 74.4572C12.731 74.6544 12.39 74.7088 12.062 74.7668C11.3195 74.898 10.6037 74.9377 9.85235 74.9432C9.12775 74.9262 8.4317 74.823 7.73461 74.6214C7.47515 74.5462 7.15897 74.4577 6.94084 74.2978C6.81859 74.2082 6.72892 74.0806 6.71423 73.9273C6.69133 73.6884 6.78992 73.4971 6.94247 73.3215C7.62356 72.5375 9.02364 72.3218 9.99618 72.2522Z" fill="white"/>
<path d="M57.547 49.3406C57.6577 49.3231 57.7234 49.3074 57.8318 49.3471L57.1633 56.1416L56.2347 56.0989C56.1861 55.4451 55.9711 54.8078 55.701 54.2152C55.3519 53.4505 54.9532 52.703 54.5336 51.9749C54.137 51.2869 53.7166 50.6454 53.4453 49.8933L57.547 49.3406Z" fill="white"/>
<path d="M32.9576 61.2965C33.0589 61.2829 33.1513 61.2903 33.2526 61.3003C33.7029 61.345 34.1522 61.5713 34.4311 61.934C34.811 62.4283 34.8327 63.2213 34.7372 63.8127C34.6508 64.3477 34.4805 64.9219 34.0098 65.242C33.34 65.6973 32.0032 65.4323 31.2552 65.2743L31.2001 65.2603C30.7457 65.1416 30.2107 64.9806 29.974 64.536C29.6636 63.9534 29.7344 63.0848 29.9099 62.4674C30.0508 61.9715 30.3078 61.6626 30.7462 61.4168C30.9249 61.6079 31.1029 61.8305 31.3507 61.9309C32.4611 62.3805 32.2074 61.5861 32.9576 61.2965Z" fill="white"/>
<path d="M43.1761 52.0254C43.3066 52.6212 43.5657 53.1784 43.8093 53.7349C44.6864 55.7377 45.8108 57.7375 47.4986 59.1756L47.5441 59.2135L44.1244 59.9522L42.2318 60.3864C42.4041 60.1359 42.5866 59.9417 42.7184 59.6615C43.2785 58.4704 43.3309 57.2524 42.8803 56.0178C42.5586 55.1364 42.0018 54.4144 41.1394 54.0178L41.082 53.992C41.1527 53.8886 41.3264 53.7954 41.4285 53.7158C42.0564 53.2258 42.6154 52.5924 43.1761 52.0254Z" fill="white"/>
<path d="M13.541 72.885L13.5544 72.8848C13.8636 72.8908 14.1989 72.9902 14.4982 73.0657C15.67 73.3613 16.942 73.9077 17.8079 74.7754C18.4078 75.3767 18.9647 76.0987 19.1795 76.9349C19.3137 77.4577 19.3258 77.9798 19.327 78.5157L13.7053 76.807C13.7611 76.258 13.7302 75.6841 13.7465 75.1311C13.7595 74.6901 13.8303 74.2141 13.7837 73.7775C13.7497 73.4599 13.6654 73.1777 13.541 72.885Z" fill="white"/>
<path d="M47.987 59.7689C48.168 59.7506 48.3387 59.9205 48.4856 60.0245C48.8209 60.2618 49.1544 60.5044 49.5119 60.708C49.9455 60.9551 50.418 61.116 50.8873 61.2802C50.73 61.3682 50.5319 61.396 50.356 61.439L49.1954 61.7023L40.9945 63.5427L38.7051 64.1859C39.067 63.3407 39.1067 62.6938 39.0199 61.8007C40.2793 61.6741 41.4432 61.238 42.6677 60.9569C44.4427 60.5495 46.2278 60.256 47.987 59.7689Z" fill="white"/>
<path d="M19.5874 74.0801L26.1443 74.8555L28.1298 75.0896C28.5682 75.1416 29.0292 75.1618 29.4485 75.3064L30.9752 80.597L19.5684 75.1622L19.5874 74.0801Z" fill="white"/>
<path d="M40.9167 76.6816L53.7349 79.0115L54.0086 81.6783L40.9121 79.4336L40.9167 76.6816Z" fill="white"/>
<path d="M54.5372 4.00781L54.6933 4.04547C54.8015 4.13724 54.8762 4.22223 54.9266 4.35742C55.1199 4.87706 55.0953 5.59098 55.1079 6.14482C55.1845 9.51227 54.5112 12.9198 53.1932 16.0188C53.0624 15.7175 52.9958 15.3593 52.8979 15.0434L52.2456 13.0599C51.6965 11.6347 51.142 10.2724 50.167 9.07433C49.7351 8.54377 49.2472 8.09481 48.7422 7.63652C49.1887 7.38046 49.5884 6.99459 49.9925 6.67391C50.9591 5.90652 51.9425 5.14679 53.0446 4.58085C53.526 4.33366 54.0037 4.11183 54.5372 4.00781Z" fill="white"/>
<path d="M8.55167 70.7305L8.62784 70.7753L8.63605 71.9029C8.07044 72.1445 7.4603 72.2166 6.92479 72.5426C6.51178 72.7939 6.1379 73.2184 6.04237 73.7007C5.95463 74.1437 6.05093 74.5546 6.30204 74.9264C6.36985 75.0268 5.97378 75.7266 5.90087 75.8862C5.63532 76.4673 5.67132 77.2426 5.65509 77.8717L5.61437 80.4196C4.51754 80.2914 3.40354 80.1666 2.3708 79.7557C2.21946 79.6786 2.05435 79.5881 1.93513 79.465C1.85784 79.3852 1.85216 79.282 1.84812 79.176C1.81901 78.4103 1.87582 77.6209 1.87855 76.8522L1.8975 70.9375C2.53395 71.2493 3.27894 71.3803 3.97738 71.4714C5.13155 71.622 7.56929 71.5061 8.51719 70.7586L8.55167 70.7305Z" fill="white"/>
<path d="M2.7418 72.0171L2.79446 72.0142C2.90834 72.0057 3.02469 71.9876 3.13848 72.006C3.35191 72.0402 3.58338 72.1583 3.69854 72.3465C3.79928 72.5111 3.80476 72.7472 3.75228 72.9293C3.68235 73.1723 3.49786 73.2898 3.28777 73.4026L3.23936 73.4094C3.13679 73.426 3.03304 73.4493 2.9285 73.4393C2.74655 73.4219 2.56515 73.3124 2.45322 73.1699C2.31418 72.9928 2.23996 72.7406 2.28429 72.5176C2.3354 72.2604 2.53356 72.1447 2.7418 72.0171Z" fill="#262626"/>
<path d="M7.03742 75.1954C8.61358 75.6181 10.0993 75.7821 11.7197 75.5278C12.157 75.4591 12.6248 75.3857 13.0247 75.1871L13.0656 75.166L13.0506 76.1565C13.0488 76.2803 13.0706 76.3942 13.0053 76.501C12.8963 76.4815 12.7717 76.4511 12.6611 76.4613C12.4562 76.4803 12.2733 76.6472 12.1633 76.8087C11.883 77.2206 11.9245 77.8991 11.9304 78.3839C11.9328 78.5848 11.9235 78.8157 11.9758 79.0093C12.0941 79.4471 12.4802 79.6813 12.8394 79.907L12.8489 81.8853L12.8502 82.615C11.1822 83.0004 8.74931 82.9782 7.25384 82.0417C6.82666 81.7742 6.44439 81.3621 6.34431 80.855C6.25647 80.4101 6.32181 79.8466 6.32794 79.3906L6.37975 77.3321C6.39454 76.9538 6.37694 76.5322 6.48341 76.1682C6.58136 75.8333 6.8506 75.4903 7.03742 75.1954Z" fill="white"/>
<path d="M12.7391 77.334L38.4428 85.1696C38.3693 85.7298 38.4555 86.3042 38.3915 86.8663L38.2513 86.8641L35.7188 86.0845L29.7497 84.2569L18.5531 80.6852L15.5401 79.7872L13.9103 79.3151C13.4252 79.1729 12.9521 79.0542 12.5421 78.7461C12.4633 78.2559 12.5699 77.7915 12.7391 77.334Z" fill="white"/>
<path d="M56.9016 60.3613L56.7137 62.1471C56.2931 62.2343 55.8801 62.3763 55.4641 62.4852L52.8374 63.1297L43.2361 65.3025L41.8816 65.5936C41.6148 65.6456 41.311 65.6615 41.0814 65.8125L41.0617 65.9225C41.2989 66.1216 41.9574 66.2324 42.2654 66.212C42.8672 66.1721 43.5133 65.9707 44.1031 65.8347L46.7654 65.2333L54.5117 63.4675L55.8705 63.1389C56.0652 63.088 56.3935 62.951 56.5824 62.9981C56.5779 63.1018 56.5883 63.2381 56.5368 63.33C56.5048 63.387 56.4291 63.3881 56.3703 63.405L52.8718 64.2803L48.1001 65.4846L46.0293 66.0111C45.7268 66.0918 45.4083 66.1487 45.1166 66.2642C44.9915 66.3137 44.8951 66.3575 44.843 66.4841C44.8733 66.525 44.8975 66.5713 44.934 66.6067C45.0545 66.7233 45.4377 66.8001 45.6002 66.8429L47.8314 67.3914L49.6083 67.8039C49.9489 67.8808 50.3157 67.9948 50.6656 67.964C51.2311 67.9143 51.8075 67.7703 52.3576 67.6365C53.3408 67.3975 54.3138 67.1024 55.3088 66.9151C55.5271 66.874 55.952 66.7689 56.1538 66.866L56.1531 67.1355C56.1192 67.1669 56.1109 67.1786 56.0628 67.1999C55.9426 67.2529 55.7576 67.2682 55.6272 67.2952L54.8275 67.4714L52.1059 68.1616C51.5598 68.2982 50.9545 68.4991 50.3892 68.4915C49.4553 68.4788 48.437 68.1508 47.5177 67.977L40.9421 66.5867L36.4785 65.5844L40.998 64.2517L51.4521 61.9108C52.6998 61.6253 53.9833 61.7567 55.2317 61.4051C55.9436 61.2045 56.3875 60.8772 56.9016 60.3613Z" fill="white"/>
<path d="M12.7676 54.1476C13.5528 54.0367 14.415 54.3114 15.047 54.7741C16.0067 55.4763 16.5641 56.7687 16.7458 57.9127C16.92 59.0097 16.8531 60.2173 16.1709 61.1369C15.5459 61.9793 14.6899 62.2862 13.6916 62.4377C12.7573 62.4587 12.0057 62.308 11.2384 61.75C10.3506 61.1045 9.8297 60.0631 9.66948 58.9928C9.48233 57.7427 9.78055 56.3941 10.5474 55.3811C11.1101 54.6377 11.8606 54.2759 12.7676 54.1476Z" fill="white"/>
<path d="M19.6523 75.7422L22.2585 77.1414C25.0619 78.5717 27.9592 80.0033 30.9103 81.1056C31.8838 81.4694 32.893 81.7373 33.8904 82.0266L37.6345 83.1459L49.3696 86.7827L54.6719 88.5629C54.7784 88.9134 54.7046 89.4503 54.69 89.8205L54.6 89.8903L19.9056 78.684C19.8253 78.3977 19.904 77.8947 19.8776 77.5779L19.6523 75.7422Z" fill="white"/>
<path d="M70.8772 74.9453L71.077 77.7525C68.8901 78.5707 66.6156 79.1871 64.3584 79.775L54.6147 81.9601L54.332 78.8272L70.8772 74.9453Z" fill="white"/>
<path d="M92.0003 78.7598V80.2001L55.0232 89.8612L55.0195 88.4912L92.0003 78.7598Z" fill="white"/>
<path d="M52.5995 50.3805C52.7055 50.3596 52.6502 50.3626 52.7654 50.3751L53.3207 55.1413L53.4339 56.7146C53.4483 56.99 53.3905 57.4908 53.5578 57.7149C53.6369 57.752 53.7103 57.7931 53.7991 57.7985C53.9206 57.8059 53.9585 57.7936 54.0422 57.7029C54.285 57.4395 54.2114 56.7706 54.2157 56.4261C54.4786 56.4644 54.7668 56.5375 55.0067 56.6551C55.5029 56.8984 55.7702 57.2963 55.9442 57.8108C56.1493 58.4164 56.1875 59.4479 55.882 60.0198C55.6611 60.4332 55.2395 60.6184 54.807 60.7316C53.0771 61.1847 51.3416 60.7697 49.829 59.8977L48.5307 58.9592C46.599 57.2736 45.3029 55.1448 44.365 52.7838C44.2364 52.4597 43.9477 51.9129 43.9238 51.5752C46.8082 51.5764 49.8356 51.2221 52.5995 50.3805Z" fill="white"/>
<path d="M28.7308 63.2732C28.83 63.2579 28.8203 63.2456 28.9168 63.2956L28.968 64.2274C29.0334 64.7437 29.2181 65.2211 29.6501 65.537C29.762 65.6187 29.8833 65.6867 30.0089 65.7447C31.0956 66.2464 32.8393 66.3971 33.9948 66.1498C34.1672 66.1129 34.333 66.0752 34.4934 66.0003C34.5877 65.9564 34.8129 65.8022 34.9031 65.7936C35.0079 65.7835 35.3402 65.9383 35.458 65.9745L36.8121 66.3414L41.2897 67.446L47.8762 68.8063L49.4488 69.0969C49.8617 69.17 50.3119 69.2608 50.7303 69.2002L50.8073 69.1884C51.3864 69.1057 51.9648 68.9489 52.5356 68.8193L56.0748 67.9634L55.86 70.2826C55.7884 71.0252 55.6569 71.9316 55.8854 72.6463C56.0956 73.3036 56.5626 73.5469 57.132 73.8412C55.461 73.924 53.8027 74.2218 52.123 74.2085C51.2562 74.2015 50.3931 74.0649 49.5346 73.9576L30.0823 71.086L26.207 70.4964C25.5039 70.399 24.7349 70.3701 24.052 70.1873C23.3617 70.0025 22.6848 69.6554 22.0334 69.3647C21.0277 68.9159 19.7827 68.5048 18.9941 67.7196L20.1225 65.1393C20.4687 64.9577 20.9151 64.9008 21.2945 64.8241L23.4567 64.4083L28.7308 63.2732Z" fill="white"/>
<path d="M23.2671 3.42569C25.7339 3.30688 29.3892 5.99261 31.0466 7.72026L32.2213 9.02506C32.4481 9.2847 32.7137 9.64737 33.0042 9.82562C33.1454 9.91232 33.2415 9.91404 33.3996 9.88189C33.5099 9.76619 33.5321 9.75415 33.56 9.58992C33.4648 9.28863 33.2065 9.03354 33.0137 8.78718C32.143 7.67424 31.2181 6.72446 30.1298 5.82588L32.1981 4.91521C36.0912 3.5974 40.6636 3.87273 44.3547 5.69991C46.6813 6.85166 48.839 8.37266 50.1954 10.6372C51.0955 12.1399 51.6586 13.8391 52.1924 15.4991L54.3824 22.4733C53.6777 22.7598 52.9815 23.1133 52.3075 23.4662C52.004 23.6251 51.6651 23.7728 51.3933 23.983C51.2668 24.0808 51.2256 24.1446 51.2052 24.3018C51.2579 24.4207 51.3553 24.5279 51.4759 24.5837C51.576 24.6298 51.6781 24.6246 51.7816 24.5962C52.1374 24.4984 52.5016 24.2645 52.8253 24.0897C53.4078 23.775 53.9827 23.4565 54.5885 23.1874L54.9692 24.667C54.704 24.7529 54.4393 24.8246 54.1644 24.8731C53.7668 24.9432 53.4035 24.9215 53.1204 25.2472C53.0929 25.3435 53.0805 25.4051 53.1058 25.5019C53.134 25.6102 53.2182 25.6891 53.3174 25.7416C53.6566 25.9209 54.6854 25.5134 55.0732 25.4072C55.0817 26.5597 54.9411 27.5888 54.6154 28.6941L54.4204 29.2147C54.1436 29.105 53.4394 28.7425 53.1428 28.7965C53.0242 28.8182 52.9837 28.8578 52.9092 28.9499C52.8074 29.0757 52.7997 29.1777 52.8158 29.3331C53.0471 29.664 53.6902 29.7507 54.0619 29.8415L52.967 31.5076C51.9755 32.8787 50.6188 34.1261 49.1384 34.9553C47.6903 35.7665 46.0008 36.1767 44.3831 36.4906L40.1375 37.1683C38.675 37.3545 37.219 37.5494 35.7409 37.5235C34.0392 37.4937 32.3295 37.2481 30.6935 36.7795C27.1297 35.7588 23.8363 33.508 21.4954 30.6365C20.7287 29.6962 20.0753 28.6672 19.4877 27.6075C19.864 27.3904 20.1837 27.0679 20.6194 27.0082C20.8287 26.9794 21.1116 26.8977 21.2474 26.7276C21.2718 26.561 21.2775 26.5271 21.2137 26.3633C21.0119 26.1736 20.7589 26.1569 20.4958 26.114L19.2105 25.9418C19.0525 22.4231 20.0295 18.9646 20.3731 15.4862C20.5895 13.2947 20.3831 11.105 20.7395 8.91565C20.9695 7.50256 21.3055 5.99517 21.9832 4.72238C22.2729 4.17831 22.6503 3.61441 23.2671 3.42569Z" fill="white"/>
<path d="M47.0432 28.0084L47.0815 28.0059C47.2381 28.0168 47.3579 28.0673 47.4706 28.177C47.582 28.2855 47.6093 28.3736 47.6158 28.525C47.5552 28.6743 47.4841 28.7262 47.3538 28.817C47.3099 28.8264 47.2365 28.8481 47.1897 28.8436C47.0441 28.8292 46.9379 28.7537 46.8508 28.6373C46.7783 28.5405 46.7486 28.4076 46.7853 28.2913C46.8275 28.1578 46.9313 28.0801 47.0432 28.0084Z" fill="#262626"/>
<path d="M28.284 28.9034C28.3421 28.8983 28.3738 28.8935 28.4351 28.8989C28.5929 28.913 28.635 28.9619 28.7177 29.0867C28.7251 29.215 28.718 29.2943 28.6391 29.4013C28.5818 29.4789 28.4576 29.5326 28.3697 29.5633C27.828 29.7534 27.0893 29.7844 26.5147 29.8478C26.4074 29.8574 26.3168 29.838 26.2114 29.8203C26.146 29.7529 26.0885 29.7205 26.0702 29.6244C26.0464 29.4994 26.0783 29.3983 26.159 29.3015C26.3028 29.129 26.6087 29.1225 26.8179 29.092L28.284 28.9034Z" fill="#262626"/>
<path d="M48.595 14.4305L48.679 14.4216C49.1566 14.379 49.56 14.5171 49.922 14.8357C50.0681 14.9644 50.1278 15.057 50.1402 15.251C50.1186 15.315 50.0997 15.3716 50.0499 15.42C49.6592 15.7995 49.3886 15.3408 49.0491 15.2124C48.948 15.1743 48.8207 15.1743 48.7132 15.1704L48.6465 15.1689C48.3336 15.2684 47.8468 15.7319 47.5472 15.6633C47.3531 15.6187 47.2841 15.537 47.1907 15.3718C47.189 15.26 47.1731 15.2271 47.2326 15.1269C47.4712 14.7255 48.1675 14.5454 48.595 14.4305Z" fill="#262626"/>
<path d="M34.5712 14.5736C35.6053 14.498 36.8954 14.7174 37.8796 15.0196C38.058 15.0745 38.1906 15.123 38.2814 15.2959C38.2816 15.3975 38.295 15.4989 38.2185 15.5782C38.1478 15.6513 38.057 15.6962 37.956 15.7026C37.4979 15.7317 36.8915 15.5093 36.4338 15.4276C36.0891 15.366 35.7318 15.3458 35.3829 15.318C34.8316 15.3133 34.3038 15.3337 33.7583 15.4254L32.6474 15.6677C32.4215 15.721 32.1522 15.8003 31.9177 15.7702C31.7713 15.7515 31.7254 15.6702 31.6398 15.5655C31.6398 15.4234 31.6229 15.3872 31.7228 15.2776C32.1283 14.8331 33.9642 14.6232 34.5712 14.5736Z" fill="#262626"/>
<path d="M35.7462 20.4041C36.038 20.3883 36.3445 20.376 36.6276 20.4575L36.7017 20.4802C36.9514 20.5538 37.18 20.6532 37.3973 20.7974C38.0702 21.2445 38.4584 21.8976 38.6012 22.6873C38.7722 23.6336 38.5965 24.7478 38.0349 25.5431C37.5696 26.2019 36.963 26.4646 36.1921 26.5943C35.6227 26.6067 35.1043 26.5259 34.6002 26.2427C33.9159 25.8581 33.4656 25.1927 33.2835 24.4382C33.0664 23.5384 33.307 22.5302 33.7901 21.7556C34.2463 21.0241 34.9143 20.6006 35.7462 20.4041Z" fill="#262626"/>
<path d="M35.8187 21.2596C36.2435 21.2428 36.5572 21.2751 36.9253 21.5195C37.396 21.8319 37.6535 22.3861 37.7509 22.9285C37.8717 23.6009 37.7604 24.4023 37.3494 24.9627C37.0325 25.3947 36.6258 25.6247 36.1071 25.7156C35.8107 25.7035 35.5558 25.7141 35.2772 25.5893C34.8128 25.3811 34.4111 24.9636 34.2463 24.4789C34.021 23.8168 34.0986 22.9873 34.4165 22.3702C34.7324 21.7568 35.1861 21.4736 35.8187 21.2596Z" fill="white"/>
<path d="M45.8434 20.1833C46.3551 20.154 46.8699 20.3022 47.26 20.6422C47.9018 21.2017 48.1894 22.0378 48.2324 22.8714C48.2773 23.7399 48.0916 24.6991 47.4787 25.3539C46.9894 25.8767 46.4129 25.9245 45.7477 25.9522C45.5061 26.6745 45.014 27.0522 44.4522 27.5146C44.3782 28.0862 44.3076 28.7519 44.498 29.3077C44.6533 29.7607 45.0099 30.099 45.4349 30.3032C45.9896 30.5697 46.7066 30.4339 47.1283 29.9861C47.2836 29.8214 47.4873 29.4574 47.7015 29.3973C47.8487 29.3561 48.0059 29.4207 48.1319 29.4921C48.2146 29.6043 48.2541 29.675 48.2515 29.8179C48.2452 30.1505 47.9204 30.4769 47.6834 30.6864C47.2017 31.1122 46.5471 31.3295 45.9063 31.2857C45.0944 31.2303 44.5002 30.7885 43.9772 30.2002C43.7764 30.4183 43.5777 30.631 43.3308 30.7979C42.6683 31.246 41.8214 31.3223 41.0494 31.1727L40.981 31.1591C40.5943 31.6923 40.2111 31.9328 39.5909 32.1027C39.4241 32.1357 39.2593 32.1638 39.0888 32.1684C38.3174 32.1886 37.6086 32.0035 37.041 31.4558C36.6555 31.0839 36.1015 30.3569 36.1155 29.8004C36.12 29.6215 36.1918 29.5436 36.3193 29.429C36.4339 29.3995 36.5315 29.37 36.6477 29.4106C36.9044 29.5001 36.9695 29.9144 37.0813 30.1379C37.3329 30.6416 37.794 31.0929 38.3375 31.2585C38.81 31.4027 39.4371 31.3527 39.8662 31.1125C40.0223 31.0251 40.1895 30.9026 40.2397 30.7274C40.1594 30.627 40.0684 30.5039 40.0375 30.3765C40.0041 30.2389 40.0329 30.0933 40.1213 29.9814C40.2331 29.8401 40.3439 29.7841 40.5194 29.7706C40.7786 29.8393 40.8806 30.0933 41.081 30.2507C41.3324 30.4484 41.632 30.5257 41.9483 30.4891C42.4173 30.4351 43.0028 30.1194 43.2905 29.7396C43.6177 29.3079 43.5332 28.5342 43.4729 28.0264C43.4557 27.882 43.4387 27.7137 43.373 27.5819C43.3041 27.444 43.153 27.3142 43.0398 27.211C42.6576 26.8625 42.2049 26.591 41.8023 26.2657C41.5883 26.0928 41.3951 25.9235 41.3808 25.6288C41.3741 25.4889 41.4239 25.3412 41.5194 25.2391C41.9625 24.7652 43.1486 24.7682 43.7523 24.7365C43.7054 23.5406 43.6745 22.204 44.3636 21.1688C44.7224 20.6299 45.2137 20.3095 45.8434 20.1833Z" fill="#262626"/>
<path d="M43.6 25.4877C43.9621 25.4751 44.4756 25.4422 44.8026 25.6124C44.9015 25.6639 44.8688 25.6299 44.9061 25.7362L44.8096 25.8456C44.6589 25.9122 44.4911 25.9071 44.3288 25.9147C43.969 25.9162 43.5407 25.9541 43.1924 25.8668C43.0661 25.8351 42.9286 25.7876 42.8574 25.6725C43.0576 25.5255 43.358 25.5129 43.6 25.4877Z" fill="white"/>
<path d="M45.839 21.1621L45.8808 21.1634C46.1133 21.165 46.2784 21.1748 46.4889 21.2821C46.9074 21.4958 47.1493 21.9501 47.2852 22.3816C47.4781 22.9935 47.4315 23.7169 47.1288 24.2859C46.8999 24.7162 46.6172 24.9298 46.1612 25.0708C46.0472 25.0704 45.9399 25.0504 45.829 25.0269C45.5952 24.9775 44.7331 24.7229 44.6396 24.5223C44.6011 24.4396 44.6084 24.2421 44.6023 24.1484C44.562 23.5353 44.5977 22.8348 44.8204 22.2546C45.0297 21.7092 45.3024 21.4009 45.839 21.1621Z" fill="white"/>
<path d="M85.6981 30.117L86.6314 30.0957C86.8144 30.0965 86.9389 30.1891 87.0689 30.313C87.3313 30.563 87.4146 30.877 87.4161 31.2291C87.4184 31.7539 87.3346 32.2845 87.2783 32.8062L86.9675 35.5856L85.8252 45.8089L85.1911 52.1533L84.423 58.8989L83.8539 63.3245C83.776 63.91 83.7502 64.5001 83.637 65.0811C83.5663 65.4437 83.3786 65.754 83.1185 66.0117C82.4036 66.7199 81.2087 67.0275 80.2806 67.3476L74.4906 69.0717L66.7793 71.2221L61.8579 72.6752C60.6952 73.015 59.5074 73.514 58.2822 73.5012C57.9325 73.4256 57.6081 73.313 57.3079 73.1145C56.9534 72.8802 56.6504 72.5771 56.5616 72.1506C56.4898 71.8053 56.5427 71.4355 56.568 71.0874L56.8076 68.9195L57.1286 66.0427L58.1684 55.7801L59.4214 42.1811L59.9487 36.8143L60.1808 34.3983C60.2329 33.9723 60.3127 33.5671 60.5592 33.205C60.7389 32.9414 61.0315 32.6692 61.3544 32.6137L61.4086 32.6053L85.6981 30.117Z" fill="white"/>
<path d="M72.6099 48.2461C72.7457 48.2405 72.8796 48.2316 73.0122 48.2675L73.2447 48.3274C73.4638 48.3427 73.6766 48.1941 73.8196 48.0445L73.8464 48.0156L73.8774 48.0782C73.9555 48.0948 74.0244 48.1101 74.0992 48.139L74.17 48.2638C73.8863 48.3997 73.5727 48.5727 73.2532 48.5949C73.0143 48.6115 72.7309 48.5372 72.4902 48.5099C72.6125 48.4741 72.736 48.4771 72.8628 48.4714L72.9306 48.3816L72.8964 48.303C72.8193 48.3116 72.7685 48.2994 72.696 48.2755L72.6099 48.2461Z" fill="#060606"/>
<path d="M72.4903 48.5099L72.234 48.5211C71.4989 48.5672 71.0267 48.8129 70.5514 49.361C69.8953 50.1176 69.5779 51.1141 69.662 52.1101C69.7201 52.7987 70.0006 53.4397 70.5352 53.8867C70.9567 54.239 71.4818 54.3674 72.0235 54.3165C72.6742 54.2553 73.2611 53.8883 73.6698 53.391C73.823 53.2043 73.9374 52.9917 74.0936 52.8064L74.1432 52.8453L74.1382 52.9228C74.0979 53.3907 73.6969 53.8343 73.3459 54.1137C72.8924 54.4745 72.1556 54.72 71.5689 54.6383L71.4927 54.6267C71.2133 54.5864 70.9623 54.5226 70.7106 54.3937C70.1039 54.0831 69.6819 53.4567 69.4865 52.8168C69.0455 51.3722 69.6604 49.5853 70.8615 48.6817C71.074 48.5219 71.2991 48.4055 71.5423 48.2996C71.6308 48.261 71.8763 48.1924 71.9312 48.1345C71.9826 48.0805 72.0308 47.9521 72.0685 47.8828L72.0768 48.157C72.1942 48.1424 72.1429 48.1644 72.232 48.0948L72.2373 48.0957L72.2565 48.1892C72.3795 48.2221 72.4829 48.2397 72.61 48.2461L72.6961 48.2755C72.7686 48.2994 72.8194 48.3117 72.8965 48.303L72.9307 48.3816L72.8629 48.4715C72.7361 48.4771 72.6126 48.4741 72.4903 48.5099Z" fill="#262626"/>
<path d="M72.0684 47.8813L72.0686 47.8664C72.1229 47.7012 72.2635 47.5494 72.391 47.4372C72.8262 47.0549 73.373 46.8977 73.9439 46.9324C74.4299 46.962 74.9635 47.1961 75.2896 47.56C75.5119 47.7058 75.6807 48.02 75.728 48.2792C75.7607 48.4588 75.7424 48.6656 75.739 48.848L75.6891 48.878C75.2731 49.1343 74.7588 49.6257 74.6547 50.1166C74.6227 50.2672 74.6203 50.4442 74.6991 50.5813C74.7609 50.6887 74.8903 50.7988 75.0189 50.803C75.219 50.8095 75.3935 50.7059 75.5892 50.7835C75.6112 50.9442 75.5786 51.0625 75.4828 51.1928C75.4089 51.2934 75.3826 51.3112 75.266 51.356C75.021 51.3233 74.7907 51.2041 74.6337 51.008C74.4138 50.7333 74.3141 50.3921 74.3664 50.0432C74.4392 49.5581 74.761 49.1423 75.1069 48.8104C75.2093 48.7121 75.3686 48.5943 75.4344 48.4682C75.5052 48.3323 75.4386 48.0997 75.3515 47.9831C75.2591 47.8597 75.1652 47.7813 75.0116 47.7508C74.7602 47.9109 74.4451 48.1615 74.1699 48.2624L74.0991 48.1375C74.0243 48.1087 73.9554 48.0933 73.8773 48.0767L73.8463 48.0141L73.8195 48.043C73.6766 48.1926 73.4637 48.3412 73.2446 48.326L73.0121 48.2661C72.8795 48.2301 72.7457 48.239 72.6098 48.2446C72.4827 48.2382 72.3793 48.2205 72.2563 48.1877L72.2371 48.0942L72.2319 48.0933C72.1427 48.1629 72.194 48.1409 72.0766 48.1555L72.0684 47.8813Z" fill="#252424"/>
<path d="M72.2383 48.0948C72.4981 47.8623 72.8065 47.4372 73.1334 47.3098C73.2384 47.4117 73.1972 47.5031 73.3356 47.5661C73.4557 47.4902 73.4929 47.3392 73.5448 47.2131C73.6788 47.1379 73.7153 47.1652 73.8629 47.1903C73.9429 47.3216 73.9003 47.5706 73.9877 47.6273L74.252 47.3343C74.3986 47.3451 74.4336 47.3923 74.5483 47.4798L74.5822 47.5945C74.47 47.7982 74.2616 47.9809 74.0372 48.0528C73.9848 48.0696 73.9328 48.073 73.8785 48.0773L73.8474 48.0148L73.8206 48.0436C73.6777 48.1932 73.4648 48.3418 73.2457 48.3266L73.0132 48.2667C72.8806 48.2307 72.7468 48.2396 72.6109 48.2452C72.4838 48.2388 72.3805 48.2212 72.2574 48.1883L72.2383 48.0948Z" fill="white"/>
<path d="M18.6639 27.9355C18.8695 28.1891 19.0166 28.5682 19.1911 28.8515C19.706 29.6877 20.2642 30.5259 20.8959 31.2787C23.6199 34.5256 27.3922 36.8304 31.5134 37.7908C32.7187 38.0716 33.9847 38.2403 35.2233 38.2658C37.3497 38.3096 39.4738 38.0311 41.5752 37.737C43.6891 37.4411 45.9192 37.1167 47.9253 36.3726C48.7867 36.0531 49.5444 35.6182 50.3208 35.1366C50.8041 36.3857 51.1211 37.6874 51.4054 38.993C52.1605 42.4603 52.4454 45.9821 52.7856 49.507C52.6632 49.594 52.4932 49.6195 52.349 49.6591L51.4368 49.8846C50.2339 50.1509 49.0443 50.4184 47.8193 50.5662L44.1416 50.8881L45.4092 49.0474C46.1657 47.8573 46.7874 46.6426 47.2844 45.3232C47.4346 44.9246 47.6322 44.4801 47.7214 44.0653C47.745 43.9559 47.7316 43.9361 47.6619 43.8464C47.5841 43.7464 47.4668 43.7186 47.3477 43.711C47.1959 43.7677 47.144 43.8012 47.0556 43.9385C46.7439 44.4231 46.5592 45.0477 46.329 45.5792C46.072 46.1723 45.7689 46.7433 45.4552 47.3079C44.865 48.3702 44.2157 49.4451 43.4687 50.4054C42.3867 51.7964 41.0173 53.0883 39.5676 54.0918C39.4303 54.1868 39.2699 54.3016 39.1106 54.3523C38.8001 54.4511 38.3102 54.4459 38.0862 54.709C37.9861 54.8266 37.9685 54.9252 37.9721 55.0751C38.009 55.1426 38.0425 55.2106 38.1123 55.2509C38.2876 55.3525 38.5236 55.2743 38.7023 55.2217L38.7676 55.2019L39.0927 55.4661C39.4919 55.4976 40.0151 54.8838 40.3345 54.6396C40.6493 54.7976 40.9902 54.9723 41.2596 55.2006C41.9315 55.7699 42.2858 56.5593 42.3413 57.4307C42.3942 58.2579 42.1624 59.3379 41.5876 59.9641C40.8786 60.7368 39.7414 60.8694 38.7527 60.9289C38.614 60.6593 38.4475 60.4438 38.1932 60.273C37.4669 59.7852 36.6782 59.9374 35.8823 60.1051C35.8837 59.2705 35.8673 58.4415 35.7565 57.6132C35.4294 55.1697 34.5521 52.7442 33.7834 50.4098C33.446 49.385 33.1619 48.3154 32.7779 47.3099C32.7173 47.1513 32.6259 46.9812 32.4529 46.9237C32.3206 46.8799 32.2457 46.915 32.1241 46.9666C32.0333 47.1206 32.0313 47.2176 32.0583 47.397C32.1297 47.8724 32.3163 48.3482 32.4382 48.8139L34.4775 55.5775C34.829 56.9551 35.4576 59.6932 34.7009 60.9723C34.3738 60.7944 34.0556 60.6001 33.6988 60.4851C32.8991 60.2272 32.2926 60.5928 31.5928 60.9322C31.3949 60.8268 31.1883 60.5311 31.0644 60.3433C30.2182 59.0603 29.5418 57.6483 28.7879 56.3095C27.9869 54.887 27.0895 53.5287 26.3937 52.0478C25.5748 50.3046 24.8468 48.5105 24.2351 46.6843L23.721 45.0575C23.6276 44.7393 23.5257 44.1133 23.2849 43.8749C23.1717 43.7628 23.0785 43.7689 22.9327 43.7628C22.8018 43.8227 22.7542 43.8574 22.6707 43.9746C22.6234 44.1636 22.6818 44.3547 22.7245 44.5408C22.8291 44.998 22.983 45.4511 23.121 45.8993C23.9236 48.5045 24.9604 51.1057 26.2267 53.5232L29.5009 59.2795L30.2877 60.5514C29.6786 60.9049 29.363 61.4596 29.1537 62.1133C29.1289 62.1906 29.0877 62.425 29.0452 62.4794C29.0331 62.495 28.3951 62.6159 28.3115 62.6354L23.084 63.8125C22.0471 64.0262 20.9198 64.1525 19.9186 64.4803C19.6989 64.5523 19.502 64.65 19.3377 64.8161C19.2006 64.9547 19.1801 65.0603 19.1873 65.25L19.2939 65.4226C19.4397 65.7428 18.6171 66.8378 18.4836 67.1932C18.3853 67.4552 18.4256 67.624 18.5321 67.8728L18.5598 67.9368C18.1847 67.7692 17.7975 67.6097 17.4465 67.3953C15.7931 66.3856 14.6891 64.9254 13.6947 63.2976C14.5215 63.168 15.3223 62.9836 16.0005 62.4661C16.9156 61.7678 17.4266 60.712 17.5716 59.5857C17.7709 58.0403 17.4019 56.199 16.4221 54.9588C15.7396 54.0946 14.6892 53.4494 13.5857 53.3268C12.4827 53.2043 11.4124 53.4893 10.5496 54.196C9.5547 55.0109 8.90194 56.4346 8.78987 57.7053C8.66383 59.1348 9.04287 60.5235 9.97818 61.6292C10.6453 62.418 11.7523 63.2299 12.8186 63.3163C12.9003 63.323 12.8731 63.3 12.8981 63.3755C13.1219 64.0498 13.4984 64.6367 13.9288 65.1974C14.6377 66.1206 15.4556 67.044 16.439 67.6806C17.4335 68.3245 18.5208 68.569 19.5952 69.0175C22.5267 70.2414 25.3994 71.5455 28.4332 72.5047L30.0484 73.001C30.4962 73.1271 30.9484 73.2423 31.3878 73.3963C31.5621 73.4574 31.7754 73.515 31.9205 73.6307C32.3779 73.9953 32.7816 75.4334 32.9891 75.9979C33.332 76.9305 33.7077 77.8531 33.988 78.8073C34.1488 79.3547 34.2784 79.914 34.368 80.4775L32.9444 80.7753C32.6375 80.8462 32.2336 80.9859 31.9226 80.9417C31.8069 80.9253 31.7448 80.907 31.6669 80.8153C31.5328 80.6577 31.4599 80.2192 31.4088 80.0126L30.9063 77.9853L30.3213 76.0378C30.2224 75.7126 30.1298 75.2046 29.9156 74.946C29.8087 74.8171 29.6489 74.763 29.4916 74.7256C28.8032 74.5618 28.0654 74.4858 27.3623 74.4053L24.5723 74.104L19.1283 73.5351L19.1251 75.2094C19.0218 75.0972 18.9407 74.9661 18.8477 74.8453C17.5566 73.1696 15.3904 72.3671 13.3612 72.1162L13.3365 69.3834C13.4543 69.2618 13.6372 69.1028 13.6874 68.9425C13.7289 68.81 13.5542 68.6625 13.454 68.6009C13.1184 68.3944 12.6767 68.2815 12.3111 68.1307C11.7771 67.9105 11.2628 67.6415 10.7654 67.3483C9.82935 66.7966 8.99019 66.1107 8.20201 65.3665C6.93573 64.1709 5.87343 62.8738 5.09253 61.3064C3.98407 59.0818 3.36648 56.5085 3.33717 54.0195C3.3026 51.0843 3.99864 48.0764 4.94001 45.3188C5.8418 42.677 7.05133 40.0683 8.53176 37.6998C9.62525 35.9502 10.9577 34.2991 12.3769 32.8058C14.1996 30.8879 16.2745 29.11 18.6639 27.9355Z" fill="white"/>
<path d="M89.1721 69.5979L89.507 69.5781C89.5286 69.6024 89.5632 69.6196 89.5718 69.651C89.5928 69.7276 89.5714 69.8946 89.5716 69.9793L89.5762 70.7515L89.6569 73.6271C89.2787 73.8104 88.8581 73.9244 88.458 74.0497L86.6427 74.6072L76.2195 77.2885C75.0528 77.5412 73.8186 77.8984 72.6321 78.0228C72.4449 77.9717 72.3727 77.938 72.2596 77.7817C72.107 77.1214 72.1728 76.3322 72.1458 75.6504L72.0821 74.3233C72.0694 74.0575 72.0204 73.7486 72.1061 73.4945C72.2005 73.4224 72.2744 73.3919 72.3906 73.3616L76.6143 72.4147L81.1617 71.3985L87.4787 69.9431L89.1721 69.5979Z" fill="#262626"/>
<path d="M88.7539 70.2795L88.8761 70.2637C88.9582 70.3393 88.9409 70.2945 88.9443 70.3905L89.0649 73.3013L72.9298 77.3654C72.898 77.37 72.8564 77.3583 72.8243 77.3534C72.7385 76.921 72.7816 76.4265 72.7658 75.9844L72.6543 73.9325C73.0125 73.8014 73.4574 73.7516 73.8327 73.668L77.175 72.941L84.3958 71.3056L88.7539 70.2795Z" fill="white"/>
</g>
<defs>
<clipPath id="clip0_2805_1209">
<rect width="92" height="92" fill="white"/>
</clipPath>
</defs>
</svg>
