<svg width="711" height="203" viewBox="0 0 711 203" fill="none" xmlns="http://www.w3.org/2000/svg">
<path d="M100.39 3C155.825 3 200.779 47.78 200.779 103C200.779 158.22 155.825 203 100.39 203C44.9545 203 0 158.22 0 103C0 47.78 44.9545 3 100.39 3Z" fill="#DFFE00"/>
<path d="M120.989 58.4219L104.204 105.502V119.322H98.7028V105.502L81.9177 58.4219H54.8125V140.642H72.983V99.6819L65.7349 76.3019L70.915 74.4619L94.5266 140.642H108.38L131.992 74.4619L137.172 76.3019L129.904 99.6819V140.642H148.074V58.4219H120.989Z" fill="black"/>
<path d="M221.625 43H250L288 135.75H289.5L327.5 43H355.875V171H333.625V83.0625H332.438L297.063 170.625H280.438L245.063 82.875H243.875V171H221.625V43ZM422 172.875C412.625 172.875 404.5 170.812 397.625 166.687C390.75 162.562 385.417 156.792 381.625 149.375C377.875 141.958 376 133.292 376 123.375C376 113.458 377.875 104.771 381.625 97.3125C385.417 89.8542 390.75 84.0625 397.625 79.9375C404.5 75.8125 412.625 73.75 422 73.75C431.375 73.75 439.5 75.8125 446.375 79.9375C453.25 84.0625 458.563 89.8542 462.312 97.3125C466.104 104.771 468 113.458 468 123.375C468 133.292 466.104 141.958 462.312 149.375C458.563 156.792 453.25 162.562 446.375 166.687C439.5 170.812 431.375 172.875 422 172.875ZM422.125 154.75C427.208 154.75 431.458 153.354 434.875 150.562C438.292 147.729 440.833 143.937 442.5 139.187C444.208 134.437 445.063 129.146 445.063 123.312C445.063 117.437 444.208 112.125 442.5 107.375C440.833 102.583 438.292 98.7708 434.875 95.9375C431.458 93.1042 427.208 91.6875 422.125 91.6875C416.917 91.6875 412.583 93.1042 409.125 95.9375C405.708 98.7708 403.146 102.583 401.438 107.375C399.771 112.125 398.938 117.437 398.938 123.312C398.938 129.146 399.771 134.437 401.438 139.187C403.146 143.937 405.708 147.729 409.125 150.562C412.583 153.354 416.917 154.75 422.125 154.75ZM522.828 172.688C515.286 172.688 508.536 170.75 502.578 166.875C496.62 163 491.911 157.375 488.453 150C484.995 142.625 483.266 133.667 483.266 123.125C483.266 112.458 485.016 103.458 488.516 96.125C492.057 88.75 496.828 83.1875 502.828 79.4375C508.828 75.6458 515.516 73.75 522.891 73.75C528.516 73.75 533.141 74.7083 536.766 76.625C540.391 78.5 543.266 80.7708 545.391 83.4375C547.516 86.0625 549.161 88.5417 550.328 90.875H551.266V43H573.953V171H551.703V155.875H550.328C549.161 158.208 547.474 160.687 545.266 163.312C543.057 165.896 540.141 168.104 536.516 169.937C532.891 171.771 528.328 172.688 522.828 172.688ZM529.141 154.125C533.932 154.125 538.016 152.833 541.391 150.25C544.766 147.625 547.328 143.979 549.078 139.312C550.828 134.646 551.703 129.208 551.703 123C551.703 116.792 550.828 111.396 549.078 106.812C547.37 102.229 544.828 98.6667 541.453 96.125C538.12 93.5833 534.016 92.3125 529.141 92.3125C524.099 92.3125 519.891 93.625 516.516 96.25C513.141 98.875 510.599 102.5 508.891 107.125C507.182 111.75 506.328 117.042 506.328 123C506.328 129 507.182 134.354 508.891 139.062C510.641 143.729 513.203 147.417 516.578 150.125C519.995 152.792 524.182 154.125 529.141 154.125ZM640.562 172.875C630.938 172.875 622.625 170.875 615.625 166.875C608.667 162.833 603.313 157.125 599.563 149.75C595.813 142.333 593.938 133.604 593.938 123.562C593.938 113.687 595.813 105.021 599.563 97.5625C603.354 90.0625 608.646 84.2292 615.438 80.0625C622.229 75.8542 630.208 73.75 639.375 73.75C645.292 73.75 650.875 74.7083 656.125 76.625C661.417 78.5 666.083 81.4167 670.125 85.375C674.208 89.3333 677.417 94.375 679.75 100.5C682.083 106.583 683.25 113.833 683.25 122.25V129.187H604.563V113.938H661.563C661.521 109.604 660.583 105.75 658.75 102.375C656.917 98.9583 654.354 96.2708 651.062 94.3125C647.813 92.3542 644.021 91.375 639.687 91.375C635.063 91.375 631 92.5 627.5 94.75C624 96.9583 621.271 99.875 619.313 103.5C617.396 107.083 616.417 111.021 616.375 115.312V128.625C616.375 134.208 617.396 139 619.438 143C621.479 146.958 624.333 150 628 152.125C631.667 154.208 635.958 155.25 640.875 155.25C644.167 155.25 647.146 154.792 649.813 153.875C652.479 152.917 654.792 151.521 656.75 149.688C658.708 147.854 660.188 145.583 661.188 142.875L682.312 145.25C680.979 150.833 678.438 155.708 674.688 159.875C670.979 164 666.229 167.208 660.438 169.5C654.646 171.75 648.021 172.875 640.562 172.875Z" fill="black"/>
</svg>
